<?xml version="1.0" encoding="UTF-8" standalone="no"?>
<!DOCTYPE svg PUBLIC "-//W3C//DTD SVG 1.1//EN" "http://www.w3.org/Graphics/SVG/1.1/DTD/svg11.dtd">
<svg width="100%" height="100%" viewBox="0 0 100 100" version="1.1" xmlns="http://www.w3.org/2000/svg" xmlns:xlink="http://www.w3.org/1999/xlink" xml:space="preserve" style="fill-rule:evenodd;clip-rule:evenodd;stroke-linejoin:round;stroke-miterlimit:1.41421;">
    <g transform="matrix(1,0,0,1,-28.8535,39.8509)">
        <path d="M59.096,36.74C65.867,40.646 72.052,42.599 77.651,42.599C84.91,42.599 88.539,40.06 88.539,34.982C88.539,30.913 86,26.291 80.922,21.115C77.276,17.469 74.754,14.474 73.354,12.13C71.661,9.266 70.815,6.287 70.815,3.195C70.815,-2.892 74.721,-8.752 82.534,-14.383C78.237,-15.718 74.754,-17.378 72.084,-19.364C69.48,-21.284 67.25,-23.758 65.395,-26.786L67.739,-28.495C70.375,-25.532 73.614,-23.319 77.455,-21.854C79.897,-20.91 83.217,-20.08 87.416,-19.364C90.997,-18.778 93.487,-17.996 94.887,-17.02C96.189,-16.141 96.84,-14.953 96.84,-13.455C96.84,-11.73 95.978,-10.868 94.252,-10.868L88.93,-11.258C87.205,-11.258 84.942,-10.298 82.143,-8.377C79.799,-6.685 77.911,-4.829 76.479,-2.811C75.047,-0.825 74.33,1.03 74.33,2.755C74.33,5.587 75.453,8.403 77.7,11.203C78.937,12.733 81.378,15.142 85.024,18.429C88.637,21.619 91.225,24.451 92.787,26.925C94.48,29.627 95.326,32.394 95.326,35.226C95.326,39.783 93.699,43.169 90.444,45.382C87.742,47.205 84.096,48.117 79.506,48.117C75.502,48.117 71.417,47.189 67.25,45.334C63.67,43.739 60.431,41.639 57.534,39.035L59.096,36.74ZM98.207,9.738C104.783,12.309 110.789,16.004 116.225,20.822C120.294,24.565 122.328,28.032 122.328,31.222C122.328,34.543 121.157,36.203 118.813,36.203C117.218,36.203 116.095,35.145 115.444,33.029C112.677,24.663 106.508,17.664 96.938,12.033L98.207,9.738ZM37.514,27.707C39.337,30.376 40.932,31.711 42.299,31.711C43.797,31.711 46.319,30.474 49.867,28C52.439,26.177 56.785,22.824 62.905,17.941L64.809,20.138L50.405,34.103L46.01,38.498C44.806,39.702 43.715,40.304 42.739,40.304C39.939,40.304 37.433,36.479 35.219,28.83L37.514,27.707Z" style="fill-rule:nonzero;"/>
    </g>
</svg>
