<?xml version="1.0" encoding="UTF-8" standalone="no"?>
<!DOCTYPE svg PUBLIC "-//W3C//DTD SVG 1.1//EN" "http://www.w3.org/Graphics/SVG/1.1/DTD/svg11.dtd">
<svg width="100%" height="100%" viewBox="0 0 100 100" version="1.1" xmlns="http://www.w3.org/2000/svg" xmlns:xlink="http://www.w3.org/1999/xlink" xml:space="preserve" style="fill-rule:evenodd;clip-rule:evenodd;stroke-linejoin:round;stroke-miterlimit:1.41421;">
    <g transform="matrix(1,0,0,1,-28.8535,39.8509)">
        <path d="M97.426,-5.496C96.808,-16.401 96.043,-23.042 95.131,-25.418C94.317,-27.241 92.446,-28.364 89.516,-28.788L90.151,-31.62C90.606,-31.685 91.16,-31.717 91.811,-31.717C97.084,-31.717 100.323,-30.513 101.528,-28.104C101.918,-27.42 102.195,-24.995 102.358,-20.829C102.39,-20.243 102.472,-17.866 102.602,-13.7C102.667,-11.161 102.748,-8.898 102.846,-6.913C105.971,-7.694 108.266,-8.524 109.731,-9.403C111,-10.217 112.237,-10.623 113.442,-10.623C115.102,-10.623 116.388,-10.363 117.299,-9.842C118.113,-9.321 118.52,-8.508 118.52,-7.401C118.52,-5.35 113.263,-3.381 102.748,-1.493C102.781,-0.06 102.846,1.877 102.944,4.318C103.009,5.946 103.041,7.101 103.041,7.785C103.041,22.075 100.974,32.15 96.84,38.009C92.543,44.129 86.179,49.321 77.748,53.586L75.942,51.193C84.666,45.236 90.558,38.905 93.617,32.199C95.571,28.097 96.775,23.068 97.231,17.111C97.556,13.4 97.654,7.492 97.524,-0.614C91.111,0.33 86.049,0.802 82.338,0.802C78.985,0.802 76.316,0.363 74.33,-0.516C72.052,-1.525 69.887,-3.316 67.836,-5.887L69.741,-7.987C73.093,-5.252 77.423,-3.885 82.729,-3.885C86.375,-3.885 91.274,-4.422 97.426,-5.496ZM59.438,16.427L61.83,18.039C59.031,25.135 57.257,29.953 56.508,32.492C55.694,35.259 55.304,37.602 55.336,39.523C55.336,40.402 55.369,41.037 55.434,41.427C55.792,44.487 55.06,46.017 53.237,46.017C51.772,46.017 50.437,44.585 49.233,41.72C46.433,34.722 45.034,27.023 45.034,18.625C45.034,14.849 45.44,10.356 46.254,5.148C46.515,3.651 47.507,-1.932 49.233,-11.6C49.851,-14.66 50.16,-17.118 50.16,-18.973C50.16,-20.796 49.949,-22.196 49.526,-23.172C49.037,-24.214 48.077,-25.516 46.645,-27.079L48.647,-29.08C54.181,-25.597 56.948,-21.431 56.948,-16.58C56.948,-16.483 56.183,-13.879 54.653,-8.768C51.3,2.365 49.623,11.186 49.623,17.697C49.623,24.5 50.193,29.611 51.332,33.029C54.002,27.43 56.703,21.896 59.438,16.427Z" style="fill-rule:nonzero;"/>
    </g>
</svg>
