<?xml version="1.0" encoding="UTF-8" standalone="no"?>
<!DOCTYPE svg PUBLIC "-//W3C//DTD SVG 1.1//EN" "http://www.w3.org/Graphics/SVG/1.1/DTD/svg11.dtd">
<svg width="100%" height="100%" viewBox="0 0 100 100" version="1.1" xmlns="http://www.w3.org/2000/svg" xmlns:xlink="http://www.w3.org/1999/xlink" xml:space="preserve" style="fill-rule:evenodd;clip-rule:evenodd;stroke-linejoin:round;stroke-miterlimit:1.41421;">
    <g transform="matrix(1,0,0,1,-28.8535,39.8509)">
        <path d="M66.323,48.214C91.485,44.113 104.067,36.349 104.067,24.923C104.067,21.636 102.96,18.836 100.746,16.525C97.914,13.4 94.22,11.837 89.662,11.837C84.845,11.837 78.871,14.1 71.742,18.625C66.209,22.108 61.57,26.372 57.826,31.418C57.241,32.231 56.215,32.638 54.75,32.638C53.709,32.638 52.895,31.694 52.309,29.806C51.723,28.048 51.43,25.688 51.43,22.726C51.43,17.615 52.26,11.447 53.92,4.22C55.287,-1.672 56.72,-6.131 58.217,-9.159L59.535,-8.67C59.438,-7.857 59.438,-6.896 59.535,-5.789C59.796,-3.901 59.926,-2.534 59.926,-1.688C59.926,-0.353 59.552,1.551 58.803,4.025C57.338,9.201 56.606,14.897 56.606,21.115C56.606,21.994 56.801,22.433 57.192,22.433C57.517,22.433 58.917,21.571 61.391,19.845C72.328,12.033 81.98,8.127 90.346,8.127C97.312,8.127 102.813,10.291 106.85,14.621C109.584,17.843 110.951,21.505 110.951,25.607C110.951,40.711 96.238,49.256 66.811,51.242L66.323,48.214ZM66.713,-15.995C69.513,-17.166 72.719,-18.192 76.332,-19.071C72.068,-20.308 67.999,-23.97 64.125,-30.057L66.42,-31.864C71.433,-26.232 77.634,-23.01 85.024,-22.196C87.367,-21.935 89.19,-21.252 90.492,-20.145C91.502,-19.299 92.006,-18.338 92.006,-17.264C92.006,-15.148 91.176,-14.09 89.516,-14.09C88.572,-14.09 87.302,-14.286 85.707,-14.676C83.852,-15.132 82.192,-15.36 80.727,-15.36C76.235,-15.36 71.905,-14.627 67.739,-13.163L66.713,-15.995Z" style="fill-rule:nonzero;"/>
    </g>
</svg>
