<?xml version="1.0" encoding="UTF-8" standalone="no"?>
<!DOCTYPE svg PUBLIC "-//W3C//DTD SVG 1.1//EN" "http://www.w3.org/Graphics/SVG/1.1/DTD/svg11.dtd">
<svg width="100%" height="100%" viewBox="0 0 100 100" version="1.1" xmlns="http://www.w3.org/2000/svg" xmlns:xlink="http://www.w3.org/1999/xlink" xml:space="preserve" style="fill-rule:evenodd;clip-rule:evenodd;stroke-linejoin:round;stroke-miterlimit:1.41421;">
    <g transform="matrix(1,0,0,1,-28.8535,39.8509)">
        <path d="M94.252,-5.301C94.155,-8.621 94.106,-13.081 94.106,-18.68C94.106,-21.414 93.65,-23.254 92.739,-24.198C91.795,-25.239 90.118,-25.972 87.709,-26.395L88.149,-29.08C92.12,-29.048 95.31,-28.495 97.719,-27.42C99.867,-26.509 100.942,-25.337 100.942,-23.905C100.942,-23.286 100.714,-21.48 100.258,-18.485C99.867,-16.401 99.623,-12.3 99.526,-6.18C104.213,-7.254 107.485,-8.426 109.34,-9.696C110.512,-10.444 111.716,-10.819 112.953,-10.819C114.711,-10.819 115.916,-10.607 116.567,-10.184C117.218,-9.761 117.543,-9.045 117.543,-8.036C117.543,-6.766 116.778,-5.822 115.248,-5.204C111.668,-3.706 106.427,-2.371 99.526,-1.2C99.623,10.78 99.933,20.285 100.453,27.316C105.043,28.911 109.975,31.076 115.248,33.81C119.448,36.121 121.547,38.254 121.547,40.207C121.547,42.485 120.685,43.625 118.959,43.625C118.178,43.625 117.071,43.055 115.639,41.916C110.268,37.651 105.271,34.543 100.649,32.589C100.844,36.04 100.632,38.677 100.014,40.5C99.428,42.127 98.37,43.559 96.84,44.796C94.334,47.01 90.46,48.117 85.219,48.117C81.02,48.117 77.276,47.124 73.989,45.138C70.538,42.99 68.813,40.19 68.813,36.74C68.813,32.313 71.108,29.074 75.698,27.023C78.66,25.688 82.029,25.021 85.805,25.021C88.735,25.021 91.811,25.379 95.034,26.095L94.448,-0.614C89.272,0.07 85.105,0.412 81.948,0.412C77,0.412 73.5,-0.223 71.45,-1.493C69.822,-2.502 68.243,-4.471 66.713,-7.401L69.252,-8.914C70.685,-6.864 72.215,-5.529 73.842,-4.911C75.274,-4.357 77.472,-4.08 80.434,-4.08C84.47,-4.08 89.076,-4.487 94.252,-5.301ZM95.326,31.027C91.095,29.888 87.367,29.318 84.145,29.318C76.463,29.318 72.621,31.759 72.621,36.642C72.621,39.181 74.265,41.037 77.553,42.209C79.604,42.957 81.899,43.332 84.438,43.332C88.735,43.332 91.681,42.29 93.276,40.207C94.741,38.351 95.424,35.291 95.326,31.027ZM56.41,17.209L58.95,18.332C55.401,27.902 53.351,33.794 52.797,36.007C52.472,37.407 52.309,39.116 52.309,41.134C52.309,42.209 52.341,43.201 52.407,44.113C52.569,45.708 52.651,46.75 52.651,47.238C52.651,47.954 52.39,48.556 51.869,49.045C51.446,49.435 51.007,49.63 50.551,49.63C49.575,49.63 48.679,48.996 47.866,47.726C44.708,41.964 43.129,33.533 43.129,22.433C43.129,15.955 45.066,3.976 48.94,-13.504C49.395,-16.401 49.623,-18.355 49.623,-19.364C49.623,-22.163 48.533,-24.572 46.352,-26.59L48.11,-28.69C53.774,-25.5 56.606,-21.838 56.606,-17.704C56.606,-17.085 55.873,-14.774 54.409,-10.77C50.014,1.372 47.817,12.765 47.817,23.41C47.817,28.032 48.093,31.597 48.647,34.103C49.265,32.768 50.6,29.855 52.651,25.363C54.083,22.14 55.336,19.422 56.41,17.209Z" style="fill-rule:nonzero;"/>
    </g>
</svg>
