<?xml version="1.0" encoding="UTF-8" standalone="no"?>
<!DOCTYPE svg PUBLIC "-//W3C//DTD SVG 1.1//EN" "http://www.w3.org/Graphics/SVG/1.1/DTD/svg11.dtd">
<svg width="100%" height="100%" viewBox="0 0 100 100" version="1.1" xmlns="http://www.w3.org/2000/svg" xmlns:xlink="http://www.w3.org/1999/xlink" xml:space="preserve" style="fill-rule:evenodd;clip-rule:evenodd;stroke-linejoin:round;stroke-miterlimit:1.41421;">
    <g transform="matrix(1,0,0,1,-28.8535,39.8509)">
        <path d="M77.358,-10.575C77.879,-14.22 78.139,-17.622 78.139,-20.78C78.139,-23.156 77.846,-24.718 77.26,-25.467C76.739,-26.118 75.095,-26.786 72.328,-27.469L72.67,-29.764C77.423,-29.732 80.694,-28.983 82.485,-27.518C83.852,-26.411 84.535,-24.735 84.535,-22.489C84.535,-19.657 84.112,-15.962 83.266,-11.405C83.787,-11.47 84.584,-11.502 85.659,-11.502C94.285,-11.502 100.958,-9.81 105.678,-6.424C113.002,-0.955 116.664,6.629 116.664,16.33C116.664,22.254 115.655,27.414 113.637,31.808C119.236,35.78 122.035,38.921 122.035,41.232C122.035,43.836 121.01,45.138 118.959,45.138C118.113,45.138 117.136,44.373 116.03,42.843C114.337,40.727 112.644,38.823 110.951,37.13C107.338,42.99 102.13,45.92 95.326,45.92C90.932,45.92 87.319,44.813 84.487,42.599C82.045,40.679 80.825,38.351 80.825,35.617C80.825,32.199 82.354,29.464 85.414,27.414C87.791,25.819 90.46,25.021 93.422,25.021C98.728,25.021 103.806,26.291 108.657,28.83C109.796,24.63 110.366,20.529 110.366,16.525C110.366,9.038 108.201,3.032 103.871,-1.493C99.77,-5.822 93.894,-7.987 86.244,-7.987C85.17,-7.987 83.933,-7.922 82.534,-7.791C79.669,4.936 75.209,16.444 69.155,26.73C69.545,27.186 70.099,27.788 70.815,28.537C71.661,29.416 72.263,30.05 72.621,30.441C73.761,31.678 74.33,33.045 74.33,34.543C74.33,36.203 73.37,37.033 71.45,37.033C70.278,37.033 68.341,35.291 65.639,31.808C58.836,40.207 53.302,44.406 49.037,44.406C45.034,44.406 42.071,42.632 40.151,39.084C38.881,36.74 38.246,34.087 38.246,31.125C38.246,21.652 42.641,12.342 51.43,3.195C51.3,2.576 50.632,-1.314 49.428,-8.475C48.907,-11.633 47.849,-14.627 46.254,-17.459L48.744,-18.778C50.763,-16.467 52.228,-13.862 53.139,-10.965C53.823,-8.784 54.588,-5.122 55.434,0.021C62.302,-5.252 69.61,-8.784 77.358,-10.575ZM76.723,-6.668C69.366,-4.976 62.742,-1.281 56.85,4.416C59.291,11.903 62.351,18.071 66.03,22.921C70.912,13.742 74.477,3.879 76.723,-6.668ZM62.66,27.902C58.526,21.75 55.32,15.321 53.041,8.615C49.884,12.098 47.459,15.874 45.766,19.943C44.301,23.524 43.569,26.925 43.569,30.148C43.569,36.268 45.538,39.328 49.477,39.328C52.765,39.328 57.159,35.519 62.66,27.902ZM106.655,33.517C104.897,32.183 102.732,31.043 100.16,30.099C97.752,29.253 95.619,28.83 93.764,28.83C87.742,28.83 84.731,30.962 84.731,35.226C84.731,37.212 85.805,38.774 87.953,39.914C89.646,40.793 91.648,41.232 93.959,41.232C99.819,41.232 104.05,38.66 106.655,33.517Z" style="fill-rule:nonzero;"/>
    </g>
</svg>
