<?xml version="1.0" encoding="UTF-8" standalone="no"?>
<!DOCTYPE svg PUBLIC "-//W3C//DTD SVG 1.1//EN" "http://www.w3.org/Graphics/SVG/1.1/DTD/svg11.dtd">
<svg width="100%" height="100%" viewBox="0 0 100 100" version="1.1" xmlns="http://www.w3.org/2000/svg" xmlns:xlink="http://www.w3.org/1999/xlink" xml:space="preserve" style="fill-rule:evenodd;clip-rule:evenodd;stroke-linejoin:round;stroke-miterlimit:1.41421;">
    <g transform="matrix(1,0,0,1,-28.8535,39.8509)">
        <path d="M63.246,7.101C78.611,-8.361 89.907,-16.092 97.133,-16.092C103.546,-16.092 106.752,-11.665 106.752,-2.811C106.752,-0.728 106.248,4.351 105.239,12.423C104.457,19.976 104.067,25.9 104.067,30.197C104.067,34.266 105.694,36.3 108.95,36.3C111,36.3 113.067,34.998 115.151,32.394C117.625,29.334 119.985,24.5 122.231,17.892L125.014,18.82C121.629,34.347 116.046,42.111 108.266,42.111C101.658,42.111 98.354,37.716 98.354,28.927C98.354,23.752 98.793,16.818 99.672,8.127C100.258,2.104 100.551,-1.834 100.551,-3.69C100.551,-8.898 98.81,-11.502 95.326,-11.502C90.151,-11.502 79.425,-3.869 63.149,11.398C63.149,20.513 63.442,29.888 64.028,39.523C64.093,40.109 64.125,40.809 64.125,41.623C64.125,45.203 63.621,47.661 62.612,48.996C61.603,50.33 60.675,50.998 59.828,50.998C58.364,50.998 57.534,49.858 57.338,47.58C57.175,45.627 56.671,43.869 55.825,42.306C54.392,39.897 51.756,36.3 47.914,31.515L49.819,29.123C50.209,29.513 51.739,31.157 54.409,34.054C56.004,35.812 57.403,37.261 58.608,38.4C58.673,36.545 58.722,32.427 58.754,26.046C58.787,19.276 58.819,14.328 58.852,11.203C51.235,21.522 45.587,29.448 41.909,34.982C40.997,36.317 40.102,36.984 39.223,36.984C37.628,36.984 36.83,35.487 36.83,32.492C36.83,31.515 37.221,30.49 38.002,29.416C38.263,29.09 39.239,27.951 40.932,25.998C43.797,22.645 47.166,18.576 51.039,13.791C55.206,8.68 57.875,5.408 59.047,3.976C59.242,-2.469 59.34,-5.724 59.34,-5.789C54.099,-3.543 50.356,-1.851 48.11,-0.711C46.775,0.037 45.685,0.412 44.838,0.412C43.731,0.412 42.576,-0.483 41.371,-2.274C40.167,-4.097 39.353,-6.343 38.93,-9.012L41.42,-10.086C42.592,-7.352 44.057,-5.985 45.815,-5.985C47.215,-5.985 51.756,-7.319 59.438,-9.989C59.633,-12.593 59.731,-15.767 59.731,-19.51C59.731,-22.31 59.535,-24.1 59.145,-24.881C58.429,-26.346 56.622,-27.42 53.725,-28.104L54.506,-30.789C58.38,-30.594 61.521,-29.829 63.93,-28.495C65.785,-27.453 66.713,-26.395 66.713,-25.321C66.713,-24.474 66.42,-22.863 65.834,-20.487C65.248,-18.241 64.744,-15.278 64.321,-11.6C65.59,-11.6 66.599,-11.274 67.348,-10.623C68.552,-9.549 69.155,-8.508 69.155,-7.498C69.155,-7.271 68.585,-6.245 67.446,-4.422C66.176,-2.567 64.776,-0.06 63.246,3.097L63.246,7.101Z" style="fill-rule:nonzero;"/>
    </g>
</svg>
