<?xml version="1.0" encoding="UTF-8" standalone="no"?>
<!DOCTYPE svg PUBLIC "-//W3C//DTD SVG 1.1//EN" "http://www.w3.org/Graphics/SVG/1.1/DTD/svg11.dtd">
<svg width="100%" height="100%" viewBox="0 0 100 100" version="1.1" xmlns="http://www.w3.org/2000/svg" xmlns:xlink="http://www.w3.org/1999/xlink" xml:space="preserve" style="fill-rule:evenodd;clip-rule:evenodd;stroke-linejoin:round;stroke-miterlimit:1.41421;">
    <g transform="matrix(1,0,0,1,-28.8535,39.8509)">
        <path d="M55.825,-24.686C57.322,-21.952 59.129,-20.584 61.244,-20.584C63.946,-20.584 70.278,-21.952 80.239,-24.686C84.015,-25.76 86.684,-26.769 88.246,-27.713C88.8,-28.039 89.272,-28.202 89.662,-28.202C90.899,-28.202 92.429,-27.209 94.252,-25.223C95.782,-23.237 96.547,-21.756 96.547,-20.78C96.547,-19.966 95.978,-19.364 94.838,-18.973C93.959,-18.68 92.494,-17.72 90.444,-16.092C84.096,-10.884 73.419,-0.776 58.412,14.23L58.608,14.523C68.731,7.98 78.432,4.709 87.709,4.709C95.001,4.709 100.86,6.564 105.287,10.275C109.519,13.856 111.635,18.673 111.635,24.728C111.635,32.931 106.638,39.328 96.645,43.918C88.312,47.824 77.911,49.826 65.444,49.923L65.102,46.896C78.09,45.692 87.905,43.136 94.545,39.23C101.349,35.129 104.75,29.92 104.75,23.605C104.75,18.429 102.52,14.523 98.061,11.886C94.643,9.901 90.444,8.908 85.463,8.908C78.92,8.908 72.247,10.877 65.444,14.816C59.259,18.429 53.823,22.938 49.135,28.341C47.996,29.676 47.052,30.343 46.303,30.343C44.317,30.343 43.325,28.781 43.325,25.656C43.325,24.289 44.22,22.645 46.01,20.724C71.694,-5.252 86.033,-19.787 89.028,-22.879L88.832,-23.27C75.551,-18.941 67.576,-16.222 64.907,-15.116C63.051,-14.302 61.716,-13.895 60.903,-13.895C59.308,-13.895 57.745,-15.018 56.215,-17.264C55.011,-19.022 54.083,-21.056 53.432,-23.368L55.825,-24.686Z" style="fill-rule:nonzero;"/>
    </g>
</svg>
