<?xml version="1.0" encoding="UTF-8" standalone="no"?>
<!DOCTYPE svg PUBLIC "-//W3C//DTD SVG 1.1//EN" "http://www.w3.org/Graphics/SVG/1.1/DTD/svg11.dtd">
<svg width="100%" height="100%" viewBox="0 0 100 100" version="1.1" xmlns="http://www.w3.org/2000/svg" xmlns:xlink="http://www.w3.org/1999/xlink" xml:space="preserve" style="fill-rule:evenodd;clip-rule:evenodd;stroke-linejoin:round;stroke-miterlimit:1.41421;">
    <g transform="matrix(1,0,0,1,-28.8535,39.8509)">
        <path d="M76.528,-11.795C76.332,-19.966 76.039,-24.458 75.649,-25.272C74.9,-26.737 73.224,-27.632 70.619,-27.957L70.961,-30.887C74.867,-30.887 78.009,-30.334 80.385,-29.227C82.273,-28.348 83.217,-27.371 83.217,-26.297C83.217,-25.874 82.957,-24.165 82.436,-21.17C82.11,-19.38 81.948,-16.45 81.948,-12.381C87.156,-13.097 90.965,-13.732 93.373,-14.286C95.75,-14.806 97.442,-15.343 98.451,-15.897C99.688,-16.548 101.365,-16.873 103.481,-16.873C106.801,-16.873 108.461,-15.978 108.461,-14.188C108.461,-12.853 107.566,-11.877 105.776,-11.258C102.813,-10.314 94.838,-9.191 81.85,-7.889C81.85,-2.095 81.882,2.674 81.948,6.418C89.402,5.311 94.578,4.204 97.475,3.097C98.744,2.576 100.144,2.316 101.674,2.316C104.929,2.316 106.557,3.179 106.557,4.904C106.557,6.369 105.857,7.313 104.457,7.736C100.812,8.712 93.373,9.803 82.143,11.007C82.175,12.082 82.273,15.093 82.436,20.041C82.534,23.621 82.631,26.584 82.729,28.927C90.313,30.75 98.419,34.25 107.045,39.425C109.584,40.955 110.854,42.583 110.854,44.308C110.854,46.782 109.959,48.019 108.168,48.019C107.289,48.019 106.248,47.547 105.043,46.603C97.361,40.614 90.053,36.512 83.119,34.298C83.119,35.438 83.119,36.284 83.119,36.837C83.119,42.111 81.785,45.757 79.116,47.775C76.642,49.663 72.54,50.607 66.811,50.607C61.537,50.607 57.11,49.403 53.53,46.994C50.34,44.878 48.744,42.355 48.744,39.425C48.744,35.356 50.714,32.296 54.653,30.246C57.81,28.618 61.879,27.804 66.86,27.804C69.92,27.804 73.517,27.934 77.651,28.195C77.651,26.372 77.472,20.887 77.114,11.74C71.157,12.261 66.892,12.521 64.321,12.521C58.657,12.521 54.067,10.356 50.551,6.027L52.455,4.025C54.441,5.815 56.573,6.955 58.852,7.443C60.284,7.768 62.514,7.931 65.541,7.931C67.071,7.931 70.896,7.655 77.016,7.101L76.625,-7.157C70.05,-6.636 65.248,-6.375 62.221,-6.375C55.385,-6.375 50.291,-8.508 46.938,-12.772L48.842,-14.871C52.488,-12.202 57.55,-10.868 64.028,-10.868C67.348,-10.868 71.515,-11.177 76.528,-11.795ZM77.748,33.42C73.126,32.41 68.797,31.906 64.76,31.906C61.114,31.906 58.119,32.655 55.776,34.152C53.692,35.454 52.651,37.082 52.651,39.035C52.651,41.053 53.985,42.713 56.655,44.015C58.998,45.155 61.863,45.724 65.248,45.724C70.001,45.724 73.435,44.829 75.551,43.039C77.016,41.574 77.748,38.367 77.748,33.42Z" style="fill-rule:nonzero;"/>
    </g>
</svg>
