<?xml version="1.0" encoding="UTF-8" standalone="no"?>
<!DOCTYPE svg PUBLIC "-//W3C//DTD SVG 1.1//EN" "http://www.w3.org/Graphics/SVG/1.1/DTD/svg11.dtd">
<svg width="100%" height="100%" viewBox="0 0 100 100" version="1.1" xmlns="http://www.w3.org/2000/svg" xmlns:xlink="http://www.w3.org/1999/xlink" xml:space="preserve" style="fill-rule:evenodd;clip-rule:evenodd;stroke-linejoin:round;stroke-miterlimit:1.41421;">
    <g transform="matrix(1,0,0,1,-28.8535,39.8509)">
        <path d="M64.614,6.613C74.835,-3.316 85.203,-8.28 95.717,-8.28C102.39,-8.28 107.729,-6.278 111.733,-2.274C116.518,2.511 118.91,8.436 118.91,15.5C118.91,24.549 114.695,31.727 106.264,37.033C99.656,41.199 91.648,43.559 82.241,44.113L81.899,41.33C102.179,36.479 112.319,27.446 112.319,14.23C112.319,9.77 111.017,5.864 108.412,2.511C105.125,-1.753 100.535,-3.885 94.643,-3.885C85.203,-3.885 75.193,1.209 64.614,11.398C64.679,20.448 65.02,29.562 65.639,38.742C65.704,39.849 65.737,40.841 65.737,41.72C65.737,44.617 65.379,46.619 64.662,47.726C63.491,49.386 62.449,50.216 61.537,50.216C60.203,50.216 59.34,49.045 58.95,46.701C58.461,44.194 57.436,41.753 55.873,39.377C54.604,37.456 52.488,34.868 49.526,31.613L51.235,29.513C51.918,30.132 52.911,31.011 54.213,32.15C56.882,34.494 58.852,36.284 60.121,37.521L60.512,11.496C56.508,16.964 52.407,22.498 48.207,28.097C45.538,31.613 43.683,34.119 42.641,35.617C41.795,36.756 40.883,37.326 39.907,37.326C39.223,37.326 38.604,36.821 38.051,35.812C37.563,34.933 37.319,33.973 37.319,32.931C37.319,31.336 38.718,29.139 41.518,26.339C46.954,20.773 53.351,13.433 60.707,4.318C60.707,4.253 60.805,0.916 61,-5.692C54.555,-2.599 50.665,-0.728 49.33,-0.077C47.735,0.64 46.759,0.998 46.401,0.998C45.164,0.998 43.992,0.135 42.885,-1.59C41.778,-3.25 40.997,-5.448 40.541,-8.182L43.325,-9.061C44.301,-6.88 45.733,-5.789 47.621,-5.789C49.021,-5.789 53.513,-7.124 61.098,-9.793C61.098,-11.193 61.098,-12.218 61.098,-12.87C61.163,-14.334 61.196,-16.597 61.196,-19.657C61.196,-22.554 60.789,-24.523 59.975,-25.565C59.259,-26.574 57.745,-27.42 55.434,-28.104L56.313,-30.887C64.125,-30.399 68.032,-28.267 68.032,-24.491C68.032,-23.872 67.755,-22.407 67.201,-20.096C67.006,-19.185 66.55,-16.32 65.834,-11.502L66.225,-11.502C67.169,-11.502 68.032,-11.095 68.813,-10.282C70.278,-8.817 71.01,-7.645 71.01,-6.766C71.01,-6.148 70.538,-5.252 69.594,-4.08C68.064,-2.453 66.437,-0.028 64.711,3.195L64.614,6.613Z" style="fill-rule:nonzero;"/>
    </g>
</svg>
