<?xml version="1.0" encoding="UTF-8" standalone="no"?>
<!DOCTYPE svg PUBLIC "-//W3C//DTD SVG 1.1//EN" "http://www.w3.org/Graphics/SVG/1.1/DTD/svg11.dtd">
<svg width="100%" height="100%" viewBox="0 0 100 100" version="1.1" xmlns="http://www.w3.org/2000/svg" xmlns:xlink="http://www.w3.org/1999/xlink" xml:space="preserve" style="fill-rule:evenodd;clip-rule:evenodd;stroke-linejoin:round;stroke-miterlimit:1.41421;">
    <g transform="matrix(1,0,0,1,-28.8535,39.8509)">
        <path d="M98.159,-16.776C98.321,-7.791 98.419,-1.867 98.451,0.998C103.399,0.249 107.094,-0.711 109.535,-1.883C110.772,-2.567 112.205,-2.909 113.832,-2.909C116.762,-2.909 118.227,-1.948 118.227,-0.028C118.227,1.144 117.364,2.056 115.639,2.707C114.174,3.227 108.51,4.367 98.647,6.125C98.744,13.481 99.005,20.61 99.428,27.511C104.506,28.944 109.177,30.815 113.442,33.127C118.259,35.763 120.668,38.058 120.668,40.011C120.668,42.29 119.806,43.429 118.08,43.429C117.429,43.429 116.355,42.892 114.858,41.818C109.715,37.814 104.718,34.738 99.867,32.589C99.867,35.584 99.64,37.879 99.184,39.474C98.631,41.395 97.621,43.039 96.157,44.406C93.78,46.88 89.809,48.117 84.242,48.117C79.067,48.117 74.9,47.059 71.742,44.943C68.683,42.86 67.153,40.044 67.153,36.496C67.153,32.329 69.22,29.253 73.354,27.267C76.218,25.9 79.685,25.216 83.754,25.216C86.554,25.216 89.955,25.574 93.959,26.291L93.422,6.808C88.604,7.329 85.073,7.589 82.826,7.589C78.823,7.589 75.958,7.329 74.233,6.808C71.401,5.734 68.878,3.162 66.664,-0.907L69.155,-2.616C70.945,-0.532 72.703,0.9 74.428,1.681C76.121,2.43 78.253,2.804 80.825,2.804C83.494,2.804 87.628,2.462 93.227,1.779L92.641,-16.092C87.595,-15.539 83.868,-15.262 81.459,-15.262C77.586,-15.262 74.835,-15.783 73.207,-16.825C71.938,-17.638 70.587,-19.25 69.155,-21.659L71.45,-23.27C73.793,-20.926 77.016,-19.754 81.117,-19.754C84.47,-19.754 88.995,-20.194 94.692,-21.073C99.347,-21.821 103.058,-22.57 105.825,-23.319C108.461,-24.067 110.268,-24.442 111.244,-24.442C113.23,-24.442 114.223,-23.416 114.223,-21.366C114.223,-20.291 113.295,-19.494 111.44,-18.973C111.212,-18.908 106.785,-18.176 98.159,-16.776ZM94.155,31.515C89.825,30.115 85.789,29.416 82.045,29.416C74.721,29.416 71.059,31.613 71.059,36.007C71.059,38.254 72.263,39.995 74.672,41.232C76.853,42.339 79.881,42.892 83.754,42.892C87.726,42.892 90.492,41.899 92.055,39.914C93.455,38.156 94.155,35.356 94.155,31.515ZM56.069,16.525L58.852,18.234C55.499,25.884 53.416,30.913 52.602,33.322C51.69,36.056 51.235,38.498 51.235,40.646C51.235,41.167 51.3,42.16 51.43,43.625C51.56,45.285 51.625,46.424 51.625,47.043C51.625,48.833 50.86,49.728 49.33,49.728C48.028,49.728 46.629,47.498 45.131,43.039C43.341,37.309 42.446,31.141 42.446,24.533C42.446,16.851 44.317,4.643 48.061,-12.088C48.712,-15.311 49.037,-17.476 49.037,-18.582C49.037,-21.838 47.8,-24.539 45.326,-26.688L47.328,-28.788C50.193,-27.258 52.39,-25.37 53.92,-23.123C55.125,-21.333 55.727,-19.592 55.727,-17.899C55.727,-16.792 55.564,-15.816 55.239,-14.969C54.262,-12.3 53.692,-10.737 53.53,-10.282C49.265,2.642 47.133,13.644 47.133,22.726C47.133,26.893 47.377,30.295 47.866,32.931C49.005,30.587 50.421,27.707 52.114,24.289C54.327,19.927 55.645,17.339 56.069,16.525Z" style="fill-rule:nonzero;"/>
    </g>
</svg>
