<?xml version="1.0" encoding="UTF-8" standalone="no"?>
<!DOCTYPE svg PUBLIC "-//W3C//DTD SVG 1.1//EN" "http://www.w3.org/Graphics/SVG/1.1/DTD/svg11.dtd">
<svg width="100%" height="100%" viewBox="0 0 100 100" version="1.1" xmlns="http://www.w3.org/2000/svg" xmlns:xlink="http://www.w3.org/1999/xlink" xml:space="preserve" style="fill-rule:evenodd;clip-rule:evenodd;stroke-linejoin:round;stroke-miterlimit:1.41421;">
    <g transform="matrix(1,0,0,1,-28.8535,39.8509)">
        <path d="M58.901,11.105C52.879,19.211 47.442,27.039 42.592,34.591C41.941,35.731 41.274,36.3 40.59,36.3C38.865,36.3 38.002,34.673 38.002,31.418C38.002,30.083 39.028,28.276 41.078,25.998C44.789,21.929 50.893,14.425 59.389,3.488L59.682,-6.278C55.255,-4.292 51.821,-2.599 49.379,-1.2C47.654,-0.191 46.368,0.314 45.522,0.314C44.252,0.314 43.015,-0.549 41.811,-2.274C40.704,-3.901 39.841,-6.082 39.223,-8.817L41.811,-9.696C42.592,-8.133 43.308,-7.092 43.959,-6.571C44.578,-6.05 45.392,-5.789 46.401,-5.789C48.093,-5.789 52.553,-7.254 59.78,-10.184C59.812,-10.868 59.894,-12.935 60.024,-16.385C60.089,-18.436 60.121,-19.836 60.121,-20.584C60.121,-23.254 59.812,-25.06 59.194,-26.004C58.478,-27.013 56.785,-27.843 54.116,-28.495L54.994,-31.278C62.937,-30.887 66.909,-28.82 66.909,-25.077C66.909,-24.491 66.648,-23.026 66.127,-20.682C65.313,-17.362 64.744,-14.465 64.418,-11.991C64.548,-12.056 64.711,-12.088 64.907,-12.088C66.013,-12.088 66.974,-11.714 67.787,-10.965C68.992,-9.891 69.594,-8.833 69.594,-7.791C69.594,-7.271 69.155,-6.441 68.276,-5.301C67.136,-3.934 65.476,-1.135 63.295,3.097L63.295,6.515C69.741,-0.549 75.974,-5.806 81.996,-9.256C86.847,-12.023 91.176,-13.407 94.985,-13.407C100.323,-13.407 104.718,-11.144 108.168,-6.62C111.716,-2.095 113.491,4.481 113.491,13.107C113.491,19.39 113.035,24.956 112.123,29.806C119.057,34.526 122.524,38.4 122.524,41.427C122.524,44.292 121.515,45.724 119.496,45.724C118.683,45.724 117.625,44.764 116.323,42.843C114.076,39.751 111.977,37.309 110.024,35.519C106.183,42.095 100.34,45.382 92.494,45.382C88.979,45.382 85.935,44.357 83.364,42.306C80.987,40.386 79.799,38.107 79.799,35.47C79.799,31.987 81.443,29.171 84.731,27.023C87.465,25.265 90.72,24.386 94.496,24.386C98.338,24.386 102.439,25.184 106.801,26.779C107.257,23.947 107.485,19.162 107.485,12.423C107.485,8.94 107.094,5.62 106.313,2.462C105.629,-0.207 104.815,-2.225 103.871,-3.592C101.397,-7.271 98.272,-9.11 94.496,-9.11C86.489,-9.11 76.088,-2.404 63.295,11.007C63.295,22.954 63.474,32.313 63.832,39.084C63.865,39.507 63.93,40.223 64.028,41.232C64.093,41.851 64.125,42.339 64.125,42.697C64.125,44.52 63.784,46.164 63.1,47.629C62.188,49.614 61.163,50.607 60.024,50.607C58.526,50.607 57.729,49.468 57.631,47.189C57.534,45.692 56.866,43.901 55.629,41.818C53.644,38.693 51.235,35.617 48.403,32.589L50.502,30.49C53.757,33.875 56.492,36.577 58.705,38.595L58.901,11.105ZM105.483,31.711C100.893,29.562 97.035,28.488 93.91,28.488C91.046,28.488 88.588,29.155 86.537,30.49C84.584,31.792 83.608,33.387 83.608,35.275C83.608,37.196 84.666,38.693 86.782,39.767C88.442,40.581 90.476,40.988 92.885,40.988C98.777,40.988 102.976,37.895 105.483,31.711Z" style="fill-rule:nonzero;"/>
    </g>
</svg>
