<?xml version="1.0" encoding="UTF-8" standalone="no"?>
<!DOCTYPE svg PUBLIC "-//W3C//DTD SVG 1.1//EN" "http://www.w3.org/Graphics/SVG/1.1/DTD/svg11.dtd">
<svg width="100%" height="100%" viewBox="0 0 100 100" version="1.1" xmlns="http://www.w3.org/2000/svg" xmlns:xlink="http://www.w3.org/1999/xlink" xml:space="preserve" style="fill-rule:evenodd;clip-rule:evenodd;stroke-linejoin:round;stroke-miterlimit:1.41421;">
    <g transform="matrix(1,0,0,1,-28.8535,39.8509)">
        <path d="M80.825,-13.993C80.89,-15.197 80.922,-17.297 80.922,-20.291C80.987,-23.351 80.873,-25.467 80.58,-26.639C80.385,-27.583 79.962,-28.397 79.311,-29.08C78.595,-29.699 76.967,-30.138 74.428,-30.399L74.526,-33.182C76.869,-33.377 78.709,-33.475 80.043,-33.475C85.089,-33.475 87.612,-32.01 87.612,-29.08C87.612,-28.722 87.547,-28.136 87.416,-27.323C87.319,-26.476 87.254,-25.89 87.221,-25.565C86.83,-21.756 86.537,-18.094 86.342,-14.579C102.944,-16.043 112.075,-16.776 113.735,-16.776C118.878,-16.776 121.45,-15.376 121.45,-12.577C121.45,-10.721 120.554,-9.793 118.764,-9.793C118.536,-9.793 118.048,-9.858 117.299,-9.989C116.583,-10.086 115.965,-10.151 115.444,-10.184C107.826,-10.77 102.162,-11.063 98.451,-11.063C93.341,-11.063 89.207,-10.933 86.049,-10.672C85.984,-9.305 85.903,-6.506 85.805,-2.274C85.74,1.079 85.642,4.074 85.512,6.711C87.791,10.975 88.93,16.037 88.93,21.896C88.93,37.065 79.36,47.775 60.219,54.025L58.852,51.339C68.325,46.945 74.933,42.143 78.676,36.935C81.443,33.061 83.022,28.358 83.412,22.824C81.915,27.739 78.351,30.197 72.719,30.197C69.301,30.197 66.469,28.732 64.223,25.802C62.172,23.198 61.147,20.008 61.147,16.232C61.147,11.61 62.66,7.899 65.688,5.099C68.194,2.723 71.205,1.535 74.721,1.535C76.674,1.535 78.709,2.023 80.825,3L80.825,-10.379C71.124,-9.435 60.154,-7.564 47.914,-4.764C46.157,-4.439 44.936,-4.276 44.252,-4.276C42.69,-4.276 41.192,-5.383 39.76,-7.596C38.491,-9.484 37.514,-11.877 36.83,-14.774L39.223,-15.995C41.371,-12.511 43.748,-10.77 46.352,-10.77C47.296,-10.77 49.086,-10.9 51.723,-11.161C55.043,-11.486 57.175,-11.698 58.119,-11.795C60.626,-11.991 64.321,-12.332 69.203,-12.821C74.151,-13.342 78.025,-13.732 80.825,-13.993ZM81.41,15.109C81.41,11.593 80.564,8.908 78.871,7.052C77.634,5.653 76.186,4.953 74.526,4.953C71.726,4.953 69.545,6.108 67.983,8.42C66.681,10.405 66.03,12.977 66.03,16.134C66.03,19.259 66.843,21.75 68.471,23.605C69.903,25.2 71.677,25.998 73.793,25.998C76.202,25.998 78.123,24.858 79.555,22.58C80.792,20.594 81.41,18.104 81.41,15.109Z" style="fill-rule:nonzero;"/>
    </g>
</svg>
