<?xml version="1.0" encoding="UTF-8" standalone="no"?>
<!DOCTYPE svg PUBLIC "-//W3C//DTD SVG 1.1//EN" "http://www.w3.org/Graphics/SVG/1.1/DTD/svg11.dtd">
<svg width="100%" height="100%" viewBox="0 0 100 100" version="1.1" xmlns="http://www.w3.org/2000/svg" xmlns:xlink="http://www.w3.org/1999/xlink" xml:space="preserve" style="fill-rule:evenodd;clip-rule:evenodd;stroke-linejoin:round;stroke-miterlimit:1.41421;">
    <g transform="matrix(1,0,0,1,-28.8535,39.8509)">
        <path d="M61.537,18.527C55.678,18.527 51.479,17.892 48.94,16.623C46.563,15.288 44.659,13.091 43.227,10.031L45.326,8.029C46.954,10.308 49.233,11.854 52.162,12.668C54.474,13.319 57.826,13.677 62.221,13.742C62.351,12.798 62.758,9.787 63.442,4.709C63.865,1.616 64.223,-1.086 64.516,-3.397C63.539,-3.332 61.912,-3.299 59.633,-3.299C52.114,-3.299 47.084,-5.789 44.545,-10.77L46.742,-12.772C48.565,-10.786 50.632,-9.517 52.944,-8.963C55.45,-8.345 59.617,-8.084 65.444,-8.182C66.225,-13.032 66.746,-16.564 67.006,-18.778C67.267,-20.796 67.397,-22.57 67.397,-24.1C67.397,-25.272 67.055,-26.232 66.371,-26.981C65.688,-27.762 64.467,-28.527 62.709,-29.276L63.735,-32.059C71.254,-30.464 75.014,-28.202 75.014,-25.272C75.014,-24.295 74.623,-22.57 73.842,-20.096C73.354,-18.729 72.475,-14.888 71.205,-8.573C76.772,-9.484 80.32,-10.282 81.85,-10.965C83.152,-11.649 84.649,-11.991 86.342,-11.991C89.467,-11.991 91.03,-10.949 91.03,-8.866C91.03,-7.726 90.167,-6.864 88.442,-6.278C85.382,-5.204 79.246,-4.243 70.034,-3.397C69.024,2.039 68.048,7.85 67.104,14.035C73.94,13.579 78.611,12.83 81.117,11.789C82.615,11.203 84.21,10.91 85.903,10.91C86.912,10.91 87.856,11.268 88.735,11.984C89.451,12.57 89.809,13.14 89.809,13.693C89.809,15.646 88.539,16.818 86,17.209C79.946,18.055 73.419,18.592 66.42,18.82C66.03,22.856 65.834,27.023 65.834,31.32C65.834,40.434 70.636,44.992 80.239,44.992C88.149,44.992 94.464,43.087 99.184,39.279C102.797,36.447 104.604,32.622 104.604,27.804C104.604,22.173 102.341,16.948 97.817,12.13L100.014,10.226C107.078,15.988 110.61,22.352 110.61,29.318C110.61,35.926 107.647,41.248 101.723,45.285C96.417,48.833 90.216,50.607 83.119,50.607C75.209,50.607 69.35,48.377 65.541,43.918C62.547,40.5 61.049,35.926 61.049,30.197C61.049,26.323 61.212,22.433 61.537,18.527Z" style="fill-rule:nonzero;"/>
    </g>
</svg>
