<?xml version="1.0" encoding="UTF-8" standalone="no"?>
<!DOCTYPE svg PUBLIC "-//W3C//DTD SVG 1.1//EN" "http://www.w3.org/Graphics/SVG/1.1/DTD/svg11.dtd">
<svg width="100%" height="100%" viewBox="0 0 100 100" version="1.1" xmlns="http://www.w3.org/2000/svg" xmlns:xlink="http://www.w3.org/1999/xlink" xml:space="preserve" style="fill-rule:evenodd;clip-rule:evenodd;stroke-linejoin:round;stroke-miterlimit:1.41421;">
    <g transform="matrix(1,0,0,1,-28.8535,39.8509)">
        <path d="M58.412,12.716L61.049,13.937C57.566,23.214 55.532,28.748 54.946,30.539C53.741,34.217 53.139,36.951 53.139,38.742C53.139,40.272 53.302,41.867 53.627,43.527C53.66,43.722 53.741,44.097 53.871,44.65C53.969,45.041 54.018,45.334 54.018,45.529C54.018,46.115 53.806,46.644 53.383,47.116C52.96,47.588 52.472,47.824 51.918,47.824C49.542,47.824 47.54,45.464 45.912,40.744C44.057,35.21 43.129,28.472 43.129,20.529C43.129,12.391 44.692,2.755 47.817,-8.377C49.086,-12.87 49.721,-15.929 49.721,-17.557C49.721,-19.608 48.793,-21.886 46.938,-24.393L48.744,-26.2C51.316,-24.474 53.367,-22.489 54.897,-20.243C56.036,-18.55 56.606,-17.199 56.606,-16.19C56.606,-14.79 56.101,-12.983 55.092,-10.77C50.047,0.851 47.524,10.942 47.524,19.504C47.524,24.972 48.028,29.318 49.037,32.541C51.576,27.462 54.701,20.854 58.412,12.716ZM80.141,-1.883C80.401,-2.144 83.738,-5.09 90.151,-10.721C89.272,-10.656 88.035,-10.623 86.44,-10.623C80.222,-10.623 75.144,-12.251 71.205,-15.506L72.914,-17.606C75.453,-16.271 79.295,-15.604 84.438,-15.604C90.688,-15.604 95.945,-16.271 100.209,-17.606C101.837,-18.062 103.009,-18.289 103.725,-18.289C105.971,-18.289 107.631,-17.785 108.705,-16.776C109.584,-16.092 110.024,-15.23 110.024,-14.188C110.024,-12.593 108.494,-11.795 105.434,-11.795C102.146,-11.795 98.793,-10.916 95.375,-9.159C91.827,-7.303 87.416,-4.178 82.143,0.216L80.141,-1.883ZM72.426,23.8C73.989,28.455 76.625,31.662 80.336,33.42C83.657,35.015 88.556,35.812 95.034,35.812C98.289,35.812 102.016,35.438 106.215,34.689C107.289,34.429 108.396,34.298 109.535,34.298C111.196,34.298 112.595,34.559 113.735,35.08C115.069,35.666 115.737,36.675 115.737,38.107C115.737,39.474 114.353,40.434 111.586,40.988C108.819,41.541 104.229,41.818 97.817,41.818C88.507,41.818 81.541,40.255 76.918,37.13C72.719,34.201 70.326,30.099 69.741,24.826L72.426,23.8Z" style="fill-rule:nonzero;"/>
    </g>
</svg>
