<?xml version="1.0" encoding="UTF-8" standalone="no"?>
<!DOCTYPE svg PUBLIC "-//W3C//DTD SVG 1.1//EN" "http://www.w3.org/Graphics/SVG/1.1/DTD/svg11.dtd">
<svg width="100%" height="100%" viewBox="0 0 100 100" version="1.1" xmlns="http://www.w3.org/2000/svg" xmlns:xlink="http://www.w3.org/1999/xlink" xml:space="preserve" style="fill-rule:evenodd;clip-rule:evenodd;stroke-linejoin:round;stroke-miterlimit:1.41421;">
    <g transform="matrix(1,0,0,1,-28.8535,39.8509)">
        <path d="M88.344,43.332C94.301,41.411 98.565,38.823 101.137,35.568C103.481,32.573 104.653,28.699 104.653,23.947C104.653,18.673 102.52,14.556 98.256,11.593C94.936,9.282 91.062,8.127 86.635,8.127C80.841,8.127 74.981,9.494 69.057,12.228C60.886,15.874 54.75,20.806 50.649,27.023C49.509,28.813 48.37,29.709 47.231,29.709C45.44,29.709 44.545,28.114 44.545,24.923C44.545,23.328 45.408,21.652 47.133,19.894C72.198,-5.301 86.31,-19.526 89.467,-22.782L89.223,-23.172C77.146,-19.526 69.382,-16.922 65.932,-15.36C64.728,-14.774 63.637,-14.481 62.66,-14.481C60.838,-14.481 59.096,-15.62 57.436,-17.899C56.069,-19.787 55.011,-22.082 54.262,-24.784L56.655,-26.102C58.868,-22.879 61,-21.268 63.051,-21.268C67.022,-21.268 73.126,-22.407 81.362,-24.686C85.496,-25.923 88.132,-27.062 89.272,-28.104C89.89,-28.56 90.411,-28.788 90.834,-28.788C92.234,-28.788 93.91,-27.86 95.864,-26.004C97.328,-24.539 98.061,-23.335 98.061,-22.391C98.061,-21.577 97.524,-20.942 96.45,-20.487C95.147,-19.998 93.683,-19.103 92.055,-17.801C90.46,-16.369 86.293,-12.349 79.555,-5.741C72.621,1.063 66.388,7.085 60.854,12.326L61.147,12.619C66.257,9.396 71.157,7.134 75.844,5.832C79.783,4.757 84.08,4.22 88.735,4.22C94.627,4.22 99.819,6.108 104.311,9.884C108.933,13.823 111.244,18.966 111.244,25.314C111.244,33.127 107.924,39.279 101.284,43.771C95.75,47.547 88.946,49.435 80.873,49.435C72.898,49.435 67.12,48.133 63.539,45.529C61.977,44.487 60.74,43.104 59.828,41.379C59.047,39.914 58.657,38.465 58.657,37.033C58.657,34.429 59.763,32.345 61.977,30.783C63.93,29.416 66.42,28.732 69.448,28.732C74.233,28.732 78.53,30.376 82.338,33.664C85.528,36.431 87.53,39.653 88.344,43.332ZM82.143,44.504C81.264,40.988 79.571,38.009 77.065,35.568C74.688,33.224 72.084,32.052 69.252,32.052C66.876,32.052 65.086,32.622 63.881,33.761C62.937,34.64 62.465,35.763 62.465,37.13C62.465,39.474 63.865,41.313 66.664,42.648C68.422,43.494 70.896,44.097 74.086,44.455C77.016,44.813 79.701,44.829 82.143,44.504Z" style="fill-rule:nonzero;"/>
    </g>
</svg>
