<?xml version="1.0" encoding="UTF-8" standalone="no"?>
<!DOCTYPE svg PUBLIC "-//W3C//DTD SVG 1.1//EN" "http://www.w3.org/Graphics/SVG/1.1/DTD/svg11.dtd">
<svg width="100%" height="100%" viewBox="0 0 100 100" version="1.1" xmlns="http://www.w3.org/2000/svg" xmlns:xlink="http://www.w3.org/1999/xlink" xml:space="preserve" style="fill-rule:evenodd;clip-rule:evenodd;stroke-linejoin:round;stroke-miterlimit:1.41421;">
    <g transform="matrix(1,0,0,1,-28.8535,39.8509)">
        <path d="M120.034,15.695C117.592,27.023 113.735,35.535 108.461,41.232C104.099,45.952 99.151,48.312 93.617,48.312C87.628,48.312 83.64,46.278 81.655,42.209C79.799,38.27 78.725,32.899 78.432,26.095C78.139,21.668 77.472,18.625 76.43,16.964C75.616,15.662 74.461,15.011 72.963,15.011C70.392,15.011 67.218,16.851 63.442,20.529C56.703,27.365 51.17,35.991 46.84,46.408C45.961,48.556 44.789,49.63 43.325,49.63C41.469,49.63 40.541,47.97 40.541,44.65C40.541,43.25 41.437,40.841 43.227,37.423C54.62,16.72 63.458,0.916 69.741,-9.989C72.67,-15.23 74.135,-18.794 74.135,-20.682C74.135,-22.44 72.866,-24.165 70.326,-25.858L72.035,-28.104C75.291,-26.834 77.927,-25.239 79.946,-23.319C81.606,-21.756 82.436,-20.34 82.436,-19.071C82.436,-18.713 81.329,-16.857 79.116,-13.504C73.093,-4.813 64.272,9.201 52.651,28.537L52.944,28.83C58.38,21.668 62.888,16.753 66.469,14.084C69.171,12.033 71.726,11.007 74.135,11.007C77.748,11.007 80.336,12.391 81.899,15.158C83.298,17.599 84.112,21.408 84.34,26.584C84.666,33.973 85.561,38.449 87.026,40.011C88.393,41.737 90.46,42.599 93.227,42.599C98.142,42.599 102.813,39.962 107.241,34.689C111.407,29.741 114.776,23.084 117.348,14.718L120.034,15.695Z" style="fill-rule:nonzero;"/>
    </g>
</svg>
