<?xml version="1.0" encoding="UTF-8" standalone="no"?>
<!DOCTYPE svg PUBLIC "-//W3C//DTD SVG 1.1//EN" "http://www.w3.org/Graphics/SVG/1.1/DTD/svg11.dtd">
<svg width="100%" height="100%" viewBox="0 0 100 100" version="1.1" xmlns="http://www.w3.org/2000/svg" xmlns:xlink="http://www.w3.org/1999/xlink" xml:space="preserve" style="fill-rule:evenodd;clip-rule:evenodd;stroke-linejoin:round;stroke-miterlimit:1.41421;">
    <g transform="matrix(1,0,0,1,-28.8535,39.8509)">
        <path d="M40.297,-6.18C42.022,-3.999 43.552,-2.909 44.887,-2.909C47.231,-2.909 49.933,-3.576 52.992,-4.911C69.008,-11.909 81.606,-15.409 90.785,-15.409C98.533,-15.409 104.669,-13.537 109.194,-9.793C114.662,-5.627 117.397,0.005 117.397,7.101C117.397,17.323 112.66,25.428 103.188,31.418C94.138,36.821 81.606,40.011 65.59,40.988L65.2,38.009C95.278,34.038 110.317,23.67 110.317,6.906C110.317,0.623 108.315,-4.113 104.311,-7.303C100.828,-10.103 96.336,-11.502 90.834,-11.502C86.082,-11.502 80.694,-10.379 74.672,-8.133C69.073,-6.05 61.912,-2.632 53.188,2.121C51.918,2.804 50.925,3.423 50.209,3.976C49.363,4.66 48.435,5.002 47.426,5.002C45.864,5.002 44.138,3.992 42.25,1.974C40.655,0.282 39.239,-1.818 38.002,-4.325L40.297,-6.18Z" style="fill-rule:nonzero;"/>
    </g>
</svg>
