<?xml version="1.0" encoding="UTF-8" standalone="no"?>
<!DOCTYPE svg PUBLIC "-//W3C//DTD SVG 1.1//EN" "http://www.w3.org/Graphics/SVG/1.1/DTD/svg11.dtd">
<svg width="100%" height="100%" viewBox="0 0 100 100" version="1.1" xmlns="http://www.w3.org/2000/svg" xmlns:xlink="http://www.w3.org/1999/xlink" xml:space="preserve" style="fill-rule:evenodd;clip-rule:evenodd;stroke-linejoin:round;stroke-miterlimit:1.41421;">
    <g transform="matrix(1,0,0,1,-28.8535,39.8509)">
        <path d="M67.69,-12.821C71.14,-18.68 72.866,-22.505 72.866,-24.295C72.866,-25.37 72.394,-26.135 71.45,-26.59C70.603,-27.013 69.057,-27.323 66.811,-27.518L67.201,-30.204C69.057,-30.399 70.961,-30.496 72.914,-30.496C77.765,-30.496 80.19,-29.325 80.19,-26.981C80.19,-25.451 78.058,-21.089 73.793,-13.895C77.634,-14.709 81.41,-15.978 85.121,-17.704C87.498,-18.843 89.223,-19.413 90.297,-19.413C92.966,-19.413 94.301,-18.517 94.301,-16.727C94.301,-15.392 93.308,-14.351 91.323,-13.602C86.179,-11.616 79.164,-9.989 70.278,-8.719C66.697,-3.413 62.677,1.893 58.217,7.199C63.523,2.544 68.292,0.216 72.524,0.216C79.002,0.216 82.761,4.546 83.803,13.205C90.965,9.787 97.003,6.955 101.918,4.709C104.034,3.699 105.092,2.902 105.092,2.316C105.092,1.177 104.132,-0.093 102.211,-1.493L104.311,-3.202C110.17,-0.109 113.1,2.853 113.1,5.685C113.1,6.694 111.57,7.736 108.51,8.81C97.735,12.684 89.728,15.809 84.487,18.185C84.747,21.571 84.877,25.477 84.877,29.904C84.877,34.364 83.852,36.593 81.801,36.593C79.75,36.593 78.725,34.819 78.725,31.271C78.725,24.923 78.725,21.571 78.725,21.212C72.898,24.468 68.78,27.267 66.371,29.611C63.865,32.052 62.612,34.477 62.612,36.886C62.612,39.914 64.093,42.03 67.055,43.234C69.92,44.406 74.737,44.992 81.508,44.992C90.037,44.992 96.498,44.292 100.893,42.892C102,42.502 102.976,42.306 103.823,42.306C104.962,42.306 105.987,42.599 106.899,43.185C108.364,44.357 109.096,45.529 109.096,46.701C109.096,49.37 101.202,50.705 85.414,50.705C74.802,50.705 67.429,49.403 63.295,46.798C59.975,44.715 58.315,41.476 58.315,37.082C58.315,30.636 65.004,23.605 78.383,15.988C78.383,7.752 76.121,3.634 71.596,3.634C67.657,3.634 62.4,6.824 55.825,13.205C53.806,15.288 51.902,17.648 50.112,20.285C49.037,21.88 47.866,22.677 46.596,22.677C45.847,22.677 45.245,22.124 44.789,21.017C44.464,20.171 44.301,19.259 44.301,18.283C44.301,16.753 45.896,14.393 49.086,11.203C54.197,6.19 59.438,-0.304 64.809,-8.28C64.06,-8.215 61.928,-8.182 58.412,-8.182C54.929,-8.182 52.325,-8.703 50.6,-9.745C49.005,-10.656 47.475,-12.381 46.01,-14.92L48.11,-16.922C49.151,-15.067 50.763,-13.83 52.944,-13.211C54.636,-12.723 57.094,-12.479 60.317,-12.479C63.442,-12.479 65.899,-12.593 67.69,-12.821Z" style="fill-rule:nonzero;"/>
    </g>
</svg>
