<?xml version="1.0" encoding="UTF-8" standalone="no"?>
<!DOCTYPE svg PUBLIC "-//W3C//DTD SVG 1.1//EN" "http://www.w3.org/Graphics/SVG/1.1/DTD/svg11.dtd">
<svg width="100%" height="100%" viewBox="0 0 100 100" version="1.1" xmlns="http://www.w3.org/2000/svg" xmlns:xlink="http://www.w3.org/1999/xlink" xml:space="preserve" style="fill-rule:evenodd;clip-rule:evenodd;stroke-linejoin:round;stroke-miterlimit:1.41421;">
    <g transform="matrix(1,0,0,1,-28.8535,39.8509)">
        <path d="M40.395,-16.385C42.185,-13.293 44.317,-11.746 46.791,-11.746C47.149,-11.746 58.38,-13.944 80.483,-18.338C97.149,-21.626 106.02,-23.27 107.094,-23.27C109.34,-23.27 111.407,-22.7 113.295,-21.561C114.5,-20.78 115.102,-19.787 115.102,-18.582C115.102,-16.987 113.963,-16.19 111.684,-16.19L106.801,-16.288C104.588,-16.288 102.52,-16.19 100.6,-15.995C94.09,-15.278 88.702,-13.081 84.438,-9.403C75.974,-2.013 71.742,7.296 71.742,18.527C71.742,25.461 73.907,30.897 78.237,34.836C81.524,37.83 86.082,39.328 91.909,39.328C92.885,39.328 94.594,39.263 97.035,39.132C98.826,39.002 99.884,38.937 100.209,38.937C102.586,38.937 104.311,39.328 105.385,40.109C106.329,40.76 106.801,41.867 106.801,43.429C106.801,45.285 103.106,46.212 95.717,46.212C85.821,46.212 78.318,43.559 73.207,38.254C68.683,33.566 66.42,27.153 66.42,19.015C66.42,4.432 73.386,-7.092 87.319,-15.555L87.221,-15.848C72.41,-12.43 60.073,-9.077 50.209,-5.789C48.126,-5.041 46.629,-4.666 45.717,-4.666C44.252,-4.666 42.706,-5.692 41.078,-7.743C39.516,-9.728 38.458,-12.137 37.905,-14.969L40.395,-16.385Z" style="fill-rule:nonzero;"/>
    </g>
</svg>
