<?xml version="1.0" encoding="UTF-8" standalone="no"?>
<!DOCTYPE svg PUBLIC "-//W3C//DTD SVG 1.1//EN" "http://www.w3.org/Graphics/SVG/1.1/DTD/svg11.dtd">
<svg width="100%" height="100%" viewBox="0 0 100 100" version="1.1" xmlns="http://www.w3.org/2000/svg" xmlns:xlink="http://www.w3.org/1999/xlink" xml:space="preserve" style="fill-rule:evenodd;clip-rule:evenodd;stroke-linejoin:round;stroke-miterlimit:1.41421;">
    <g transform="matrix(1,0,0,1,-28.8535,39.8509)">
        <path d="M67.104,-15.457C68.471,-16.271 71.417,-17.883 75.942,-20.291C70.05,-22.082 65.574,-25.337 62.514,-30.057L64.614,-32.059C67.804,-28.901 71.303,-26.818 75.112,-25.809C77.846,-25.06 81.313,-24.686 85.512,-24.686C91.046,-24.686 93.813,-23.319 93.813,-20.584C93.813,-18.794 92.787,-17.899 90.737,-17.899L82.826,-18.192C80.776,-18.192 76.104,-16.483 68.813,-13.065L67.104,-15.457ZM53.237,-6.522C53.79,-3.299 55.06,-1.688 57.045,-1.688C59.226,-1.688 65.02,-2.713 74.428,-4.764C82.501,-6.522 87.302,-8.003 88.832,-9.207C89.581,-9.793 90.167,-10.086 90.59,-10.086C91.664,-10.086 93.308,-9.126 95.522,-7.205C97.182,-5.61 98.012,-4.308 98.012,-3.299C98.012,-2.713 97.019,-2.079 95.034,-1.395C93.178,-0.549 85.772,5.913 72.817,17.99L67.104,23.019L67.348,23.312C72.817,19.894 77.276,18.185 80.727,18.185C86.163,18.185 89.402,22.596 90.444,31.418C90.867,35.291 91.502,37.895 92.348,39.23C93.162,40.5 94.317,41.33 95.815,41.72C97.019,42.046 98.956,42.209 101.625,42.209C105.076,42.209 107.745,41.916 109.633,41.33C110.317,41.134 110.919,41.037 111.44,41.037C113.1,41.037 114.516,41.444 115.688,42.257C116.795,43.006 117.348,43.934 117.348,45.041C117.348,46.343 116.616,47.238 115.151,47.726C113.718,48.247 110.414,48.507 105.239,48.507C104.457,48.507 102.862,48.442 100.453,48.312C95.44,48.019 91.795,46.717 89.516,44.406C87.302,42.16 85.951,38.66 85.463,33.908C84.845,28.83 84.21,25.623 83.559,24.289C82.55,22.433 81.15,21.505 79.36,21.505C75.388,21.505 70.278,24.175 64.028,29.513C57.81,35.015 52.407,40.776 47.817,46.798C47.101,47.742 46.433,48.214 45.815,48.214C44.09,48.214 43.227,46.619 43.227,43.429C43.227,41.379 44.024,39.702 45.619,38.4C51.218,33.517 58.006,27.104 65.981,19.162C67.673,17.469 75.486,9.575 89.418,-4.52L89.321,-4.813C78.741,-2.046 68.748,0.884 59.34,3.976C57.224,4.66 55.89,5.002 55.336,5.002C52.472,5.002 50.763,1.339 50.209,-5.985L53.237,-6.522Z" style="fill-rule:nonzero;"/>
    </g>
</svg>
