<?xml version="1.0" encoding="UTF-8" standalone="no"?>
<!DOCTYPE svg PUBLIC "-//W3C//DTD SVG 1.1//EN" "http://www.w3.org/Graphics/SVG/1.1/DTD/svg11.dtd">
<svg width="100%" height="100%" viewBox="0 0 100 100" version="1.1" xmlns="http://www.w3.org/2000/svg" xmlns:xlink="http://www.w3.org/1999/xlink" xml:space="preserve" style="fill-rule:evenodd;clip-rule:evenodd;stroke-linejoin:round;stroke-miterlimit:1.41421;">
    <g transform="matrix(1,0,0,1,-28.8535,39.8509)">
        <path d="M75.405,15.011C71.856,23.605 69.773,28.716 69.155,30.343C67.787,34.054 67.104,36.675 67.104,38.205L68.129,43.332C68.129,44.992 67.234,45.822 65.444,45.822C64.337,45.822 62.823,45.236 60.903,44.064C59.177,43.055 57.582,41.834 56.117,40.402C52.114,36.398 49.216,30.539 47.426,22.824C46.026,17.03 45.294,8.24 45.229,-3.543C45.229,-7.287 44.92,-10.298 44.301,-12.577C43.422,-15.376 41.697,-17.573 39.125,-19.168L40.834,-21.561C48.289,-18.078 52.016,-14.318 52.016,-10.282C52.016,-9.956 51.869,-9.338 51.576,-8.426C51.316,-7.645 51.153,-6.994 51.088,-6.473C50.632,-0.907 50.405,3.992 50.405,8.224C50.405,17.599 52.667,25.867 57.192,33.029C57.94,34.168 58.852,34.738 59.926,34.738C60.642,34.738 61.407,34.103 62.221,32.834C64.5,29.481 68.032,23.117 72.817,13.742L75.405,15.011ZM94.643,-11.991C99.623,-9.517 103.611,-6.831 106.606,-3.934C108.884,-1.72 111.163,1.16 113.442,4.709C116.957,10.21 118.715,15.434 118.715,20.382C118.715,24.191 117.478,26.095 115.004,26.095C113.572,26.095 112.547,24.565 111.928,21.505C109.194,7.638 102.83,-2.664 92.836,-9.403L94.643,-11.991Z" style="fill-rule:nonzero;"/>
    </g>
</svg>
