<?xml version="1.0" encoding="UTF-8" standalone="no"?>
<!DOCTYPE svg PUBLIC "-//W3C//DTD SVG 1.1//EN" "http://www.w3.org/Graphics/SVG/1.1/DTD/svg11.dtd">
<svg width="100%" height="100%" viewBox="0 0 100 100" version="1.1" xmlns="http://www.w3.org/2000/svg" xmlns:xlink="http://www.w3.org/1999/xlink" xml:space="preserve" style="fill-rule:evenodd;clip-rule:evenodd;stroke-linejoin:round;stroke-miterlimit:1.41421;">
    <g transform="matrix(1,0,0,1,-28.8535,39.8509)">
        <path d="M84.047,-32.157C91.306,-29.455 94.936,-26.704 94.936,-23.905C94.936,-22.961 93.797,-21.659 91.518,-19.998C91.127,-19.705 90.525,-19.282 89.711,-18.729C87.205,-16.971 85.252,-15.555 83.852,-14.481C66.437,-1.33 57.729,6.271 57.729,8.322C57.729,9.526 58.966,10.893 61.44,12.423C74.135,20.529 83.933,28.244 90.834,35.568C95.912,40.972 98.451,45.024 98.451,47.726C98.451,50.786 97.28,52.316 94.936,52.316C93.862,52.316 92.429,51.014 90.639,48.41C85.691,40.76 80.125,33.989 73.94,28.097C70.847,25.233 65.118,20.871 56.752,15.011C54.278,13.254 53.041,11.284 53.041,9.103C53.041,6.466 54.604,3.732 57.729,0.9C58.217,0.477 59.763,-0.907 62.367,-3.25C69.301,-9.403 75.16,-14.741 79.946,-19.266C82.745,-21.838 84.43,-23.465 84.999,-24.149C85.569,-24.832 85.854,-25.581 85.854,-26.395C85.854,-27.306 84.747,-28.527 82.534,-30.057L84.047,-32.157Z" style="fill-rule:nonzero;"/>
    </g>
</svg>
