<?xml version="1.0" encoding="UTF-8" standalone="no"?>
<!DOCTYPE svg PUBLIC "-//W3C//DTD SVG 1.1//EN" "http://www.w3.org/Graphics/SVG/1.1/DTD/svg11.dtd">
<svg width="100%" height="100%" viewBox="0 0 100 100" version="1.1" xmlns="http://www.w3.org/2000/svg" xmlns:xlink="http://www.w3.org/1999/xlink" xml:space="preserve" style="fill-rule:evenodd;clip-rule:evenodd;stroke-linejoin:round;stroke-miterlimit:1.41421;">
    <g transform="matrix(1,0,0,1,-28.8535,39.8509)">
        <path d="M64.711,-3.202C70.603,-7.531 76.186,-11.388 81.459,-14.774C78.562,-14.383 75.795,-14.188 73.159,-14.188C65.509,-14.188 59.731,-16.483 55.825,-21.073L57.631,-23.172C61.472,-20.568 65.932,-19.266 71.01,-19.266C75.567,-19.266 81.101,-19.738 87.612,-20.682C91.127,-21.138 93.39,-21.366 94.399,-21.366C96.222,-21.366 97.589,-21.008 98.5,-20.291C99.575,-19.445 100.112,-18.338 100.112,-16.971C100.112,-15.441 98.972,-14.676 96.694,-14.676C92.625,-14.676 89.369,-14.139 86.928,-13.065C83.608,-11.665 76.837,-7.645 66.616,-1.004L64.711,-3.202ZM49.916,20.431C51.349,27.039 54.555,31.727 59.535,34.494C63.637,36.837 69.936,38.009 78.432,38.009C87.905,38.009 95.603,36.968 101.528,34.884C102.862,34.559 103.937,34.396 104.75,34.396C106.801,34.396 108.266,34.933 109.145,36.007C109.666,36.724 109.926,37.456 109.926,38.205C109.926,39.865 108.933,40.939 106.948,41.427C100.665,43.087 91.957,43.918 80.825,43.918C69.594,43.918 61.293,42.046 55.922,38.302C50.812,34.624 47.849,28.927 47.035,21.212L49.916,20.431Z" style="fill-rule:nonzero;"/>
    </g>
</svg>
