<?xml version="1.0" encoding="UTF-8" standalone="no"?>
<!DOCTYPE svg PUBLIC "-//W3C//DTD SVG 1.1//EN" "http://www.w3.org/Graphics/SVG/1.1/DTD/svg11.dtd">
<svg width="100%" height="100%" viewBox="0 0 100 100" version="1.1" xmlns="http://www.w3.org/2000/svg" xmlns:xlink="http://www.w3.org/1999/xlink" xml:space="preserve" style="fill-rule:evenodd;clip-rule:evenodd;stroke-linejoin:round;stroke-miterlimit:1.41421;">
    <g transform="matrix(1,0,0,1,-28.8535,39.8509)">
        <path d="M63.344,4.22C63.051,16.818 62.937,24.386 63.002,26.925C63.1,30.246 63.474,32.948 64.125,35.031C64.939,37.57 67.006,39.344 70.326,40.353C73.191,41.265 77.325,41.72 82.729,41.72C91.03,41.72 97.605,41.053 102.455,39.718C103.92,39.393 104.75,39.23 104.946,39.23C106.736,39.23 108.25,39.604 109.487,40.353C110.593,41.037 111.147,41.867 111.147,42.843C111.147,44.569 110.187,45.627 108.266,46.017C103.188,47.157 95.945,47.726 86.537,47.726C78.367,47.726 72.166,46.831 67.934,45.041C64.321,43.511 61.749,41.199 60.219,38.107C59.015,35.601 58.266,31.532 57.973,25.9C57.713,21.701 57.631,14.865 57.729,5.392C51.609,6.532 46.922,7.703 43.666,8.908C42.397,9.364 41.127,9.591 39.858,9.591C38.621,9.591 37.205,8.631 35.61,6.711C34.047,4.888 32.892,2.723 32.143,0.216L34.242,-1.102C36.163,1.502 38.458,2.804 41.127,2.804C44.61,2.804 50.112,2.202 57.631,0.998C57.957,-7.661 57.696,-13 56.85,-15.018C56.199,-16.678 54.229,-17.931 50.942,-18.778L51.528,-21.61C56.801,-21.121 60.203,-20.422 61.733,-19.51C63.751,-18.436 64.76,-17.232 64.76,-15.897C64.76,-15.278 64.662,-14.416 64.467,-13.309C64.239,-12.202 64.093,-11.307 64.028,-10.623C63.767,-7.629 63.604,-4.048 63.539,0.119C76.593,-1.802 86.668,-3.104 93.764,-3.788C94.024,-10.265 94.155,-15.409 94.155,-19.217C94.155,-22.245 93.65,-24.198 92.641,-25.077C91.404,-26.151 90.037,-26.932 88.539,-27.42L89.565,-30.008C93.276,-29.78 96.287,-28.999 98.598,-27.664C100.486,-26.558 101.43,-25.337 101.43,-24.002C101.43,-23.872 101.072,-22.7 100.356,-20.487C99.867,-19.217 99.298,-13.862 98.647,-4.422C102.618,-4.748 107.517,-5.317 113.344,-6.131C114.744,-6.457 115.916,-6.62 116.86,-6.62C118.585,-6.62 120.115,-6.115 121.45,-5.106C122.914,-3.934 123.647,-2.664 123.647,-1.297C123.647,0.168 122.687,0.9 120.766,0.9C120.44,0.9 119.741,0.835 118.666,0.705C113.751,0.184 108.738,-0.077 103.627,-0.077C101.446,-0.077 99.754,-0.044 98.549,0.021C98.093,8.289 97.524,15.028 96.84,20.236C96.482,22.97 95.685,25.135 94.448,26.73C93.471,28 92.429,28.634 91.323,28.634C90.346,28.634 89.19,27.772 87.856,26.046C86.131,23.865 82.729,21.115 77.651,17.795L78.823,15.597C81.882,17.355 84.715,18.771 87.319,19.845C88.328,20.236 89.207,20.431 89.955,20.431C90.606,20.431 91.095,19.796 91.42,18.527C92.104,15.076 92.771,8.973 93.422,0.216C83.038,1.128 73.012,2.462 63.344,4.22Z" style="fill-rule:nonzero;"/>
    </g>
</svg>
