<?xml version="1.0" encoding="UTF-8" standalone="no"?>
<!DOCTYPE svg PUBLIC "-//W3C//DTD SVG 1.1//EN" "http://www.w3.org/Graphics/SVG/1.1/DTD/svg11.dtd">
<svg width="100%" height="100%" viewBox="0 0 100 100" version="1.1" xmlns="http://www.w3.org/2000/svg" xmlns:xlink="http://www.w3.org/1999/xlink" xml:space="preserve" style="fill-rule:evenodd;clip-rule:evenodd;stroke-linejoin:round;stroke-miterlimit:1.41421;">
    <g transform="matrix(1,0,0,1,-28.8535,39.8509)">
        <path d="M59.926,-12.284C59.926,-18.143 59.926,-21.773 59.926,-23.172C59.926,-24.93 59.535,-26.216 58.754,-27.03C57.94,-27.876 56.557,-28.397 54.604,-28.592L54.799,-31.473C55.613,-31.538 56.687,-31.571 58.022,-31.571C60.886,-31.571 63.165,-31.001 64.858,-29.862C66.29,-28.95 67.006,-27.827 67.006,-26.493C67.006,-25.842 66.843,-25.109 66.518,-24.295C66.095,-23.156 65.655,-19.413 65.2,-13.065C69.464,-13.911 73.272,-15.23 76.625,-17.02C77.439,-17.476 78.627,-17.704 80.19,-17.704C82.794,-17.704 84.096,-16.532 84.096,-14.188C84.096,-13.504 83.364,-12.837 81.899,-12.186C78.644,-10.721 72.882,-9.354 64.614,-8.084C64.158,0.9 63.816,7.329 63.588,11.203C64.011,12.082 64.223,14.116 64.223,17.306C64.223,19.813 63.328,23.117 61.537,27.218C59.584,31.483 58.608,34.884 58.608,37.423C58.608,39.474 59.796,41.102 62.172,42.306C64.516,43.511 67.804,44.113 72.035,44.113C83.982,44.113 92.25,43.039 96.84,40.89C98.565,40.109 99.721,39.246 100.307,38.302C100.86,37.423 101.137,36.186 101.137,34.591C101.137,31.824 100.258,26.063 98.5,17.306L101.43,16.623C103.904,24.989 105.434,29.855 106.02,31.222C107.42,34.738 108.119,37.13 108.119,38.4C108.119,39.67 107.664,40.988 106.752,42.355C105.841,43.69 104.669,44.78 103.237,45.627C100.795,46.994 97.101,48.084 92.153,48.898C87.66,49.647 82.843,50.021 77.7,50.021C62.042,50.021 54.213,46.294 54.213,38.839C54.213,35.421 54.783,32.41 55.922,29.806C54.392,31.336 52.26,32.101 49.526,32.101C46.661,32.101 44.448,31.108 42.885,29.123C41.29,27.137 40.492,24.289 40.492,20.578C40.492,16.183 42.039,12.375 45.131,9.152C47.735,6.45 50.551,5.099 53.578,5.099C55.792,5.099 57.696,5.539 59.291,6.418C59.324,4.888 59.373,2.544 59.438,-0.614C59.438,-3.446 59.454,-5.708 59.487,-7.401C56.687,-6.978 53.66,-6.766 50.405,-6.766C45.326,-6.766 41.795,-9.175 39.809,-13.993L42.006,-15.604C44.382,-12.902 47.312,-11.551 50.795,-11.551C53.757,-11.551 56.801,-11.795 59.926,-12.284ZM58.608,16.037C58.608,13.4 58.25,11.512 57.534,10.373C56.785,9.201 55.564,8.615 53.871,8.615C51.3,8.615 49.135,9.819 47.377,12.228C45.912,14.246 45.18,16.574 45.18,19.211C45.18,22.433 45.685,24.679 46.694,25.949C47.638,27.121 49.103,27.707 51.088,27.707C53.172,27.707 54.962,26.567 56.459,24.289C57.892,22.108 58.608,19.357 58.608,16.037ZM100.307,3.927C104.929,3.83 108.396,3.699 110.707,3.537C112.107,3.407 112.807,2.967 112.807,2.218C112.807,0.265 111.603,-2.209 109.194,-5.204C106.524,-8.491 102.992,-11.388 98.598,-13.895L100.014,-16.288C106.622,-14.107 111.863,-10.705 115.737,-6.082C118.927,-2.241 120.522,1.649 120.522,5.587C120.522,9.396 119.448,11.3 117.299,11.3C116.355,11.3 115.525,10.828 114.809,9.884C114.223,9.103 113.132,8.517 111.537,8.127C108.836,7.508 105.06,7.101 100.209,6.906L100.307,3.927Z" style="fill-rule:nonzero;"/>
    </g>
</svg>
