<?xml version="1.0" encoding="UTF-8" standalone="no"?>
<!DOCTYPE svg PUBLIC "-//W3C//DTD SVG 1.1//EN" "http://www.w3.org/Graphics/SVG/1.1/DTD/svg11.dtd">
<svg width="100%" height="100%" viewBox="0 0 100 100" version="1.1" xmlns="http://www.w3.org/2000/svg" xmlns:xlink="http://www.w3.org/1999/xlink" xml:space="preserve" style="fill-rule:evenodd;clip-rule:evenodd;stroke-linejoin:round;stroke-miterlimit:1.41421;">
    <g transform="matrix(1,0,0,1,-28.8535,39.8509)">
        <path d="M61.049,-7.303C61.049,-10.916 61.049,-14.79 61.049,-18.924C61.049,-21.008 60.545,-22.586 59.535,-23.661C58.689,-24.572 57.289,-25.321 55.336,-25.907L55.825,-28.104C63.897,-27.909 67.934,-26.2 67.934,-22.977C67.934,-22.879 67.771,-21.919 67.446,-20.096C66.762,-16.06 66.323,-12.121 66.127,-8.28C69.448,-9.159 72.752,-10.623 76.039,-12.674C77.341,-13.618 78.497,-14.09 79.506,-14.09C81.785,-14.09 83.298,-13.765 84.047,-13.114C84.698,-12.43 85.024,-11.795 85.024,-11.209C85.024,-10.363 84.259,-9.517 82.729,-8.67C79.571,-6.88 73.972,-5.122 65.932,-3.397C65.867,-1.021 65.834,4.953 65.834,14.523C76.153,10.714 84.552,8.81 91.03,8.81C97.312,8.81 102.602,10.487 106.899,13.839C111.131,17.127 113.246,21.375 113.246,26.584C113.246,32.573 110.675,37.309 105.532,40.793C101.495,43.527 96.791,44.894 91.42,44.894C86.082,44.894 80.955,44.162 76.039,42.697L76.625,39.621C80.271,40.532 84.015,40.988 87.856,40.988C93.487,40.988 97.996,39.67 101.381,37.033C104.767,34.396 106.459,30.75 106.459,26.095C106.459,21.571 104.441,18.12 100.405,15.744C97.41,13.986 93.862,13.107 89.76,13.107C84.356,13.107 76.381,15.076 65.834,19.015L66.225,35.129C66.225,39.328 65.59,42.388 64.321,44.308C63.084,46.457 61.521,47.531 59.633,47.531C58.266,47.531 56.101,46.684 53.139,44.992C50.535,43.494 48.207,41.802 46.157,39.914C43.357,37.375 41.957,35.177 41.957,33.322C41.957,31.629 42.69,29.888 44.155,28.097C47.312,24.386 52.911,20.594 60.951,16.72C61.017,10.828 61.049,4.383 61.049,-2.616C58.054,-2.127 54.783,-1.883 51.235,-1.883C46.58,-1.883 43.08,-4.26 40.737,-9.012L43.032,-10.477C44.952,-7.743 48.191,-6.375 52.748,-6.375C55.483,-6.375 58.25,-6.685 61.049,-7.303ZM60.951,21.115C53.66,24.826 49.103,28 47.28,30.636C46.531,31.743 46.157,32.541 46.157,33.029C46.157,34.494 47.817,36.203 51.137,38.156C53.839,39.816 56.248,40.646 58.364,40.646C59.633,40.646 60.366,39.816 60.561,38.156C60.821,35.617 60.951,29.936 60.951,21.115ZM96.254,-21.561C102.732,-19.771 108.038,-17.28 112.172,-14.09C116.697,-10.64 118.959,-7.173 118.959,-3.69C118.959,-0.89 117.755,0.509 115.346,0.509C113.946,0.509 112.807,-0.483 111.928,-2.469C110.268,-6.441 107.892,-9.81 104.799,-12.577C102.423,-14.725 99.2,-16.857 95.131,-18.973L96.254,-21.561Z" style="fill-rule:nonzero;"/>
    </g>
</svg>
