<?xml version="1.0" encoding="UTF-8" standalone="no"?>
<!DOCTYPE svg PUBLIC "-//W3C//DTD SVG 1.1//EN" "http://www.w3.org/Graphics/SVG/1.1/DTD/svg11.dtd">
<svg width="100%" height="100%" viewBox="0 0 100 100" version="1.1" xmlns="http://www.w3.org/2000/svg" xmlns:xlink="http://www.w3.org/1999/xlink" xml:space="preserve" style="fill-rule:evenodd;clip-rule:evenodd;stroke-linejoin:round;stroke-miterlimit:1.41421;">
    <g transform="matrix(1,0,0,1,-28.8535,39.8509)">
        <path d="M75.795,-18.387C78.074,-15.099 79.213,-12.218 79.213,-9.745C79.213,-5.936 78.285,-0.825 76.43,5.587C74.542,12.065 72.101,18.153 69.106,23.849C66.274,29.383 63.572,33.322 61,35.666C58.494,37.977 55.727,39.132 52.7,39.132C50.584,39.132 48.224,37.765 45.619,35.031C43.829,33.24 42.364,30.474 41.225,26.73C40.151,23.149 39.614,19.357 39.614,15.353C39.614,10.242 40.785,5.262 43.129,0.412C45.213,-3.95 48.077,-7.808 51.723,-11.161C59.731,-18.485 69.562,-22.147 81.215,-22.147C90.2,-22.147 97.866,-19.982 104.213,-15.653C113.295,-9.24 117.836,-0.37 117.836,10.959C117.836,21.896 113.897,30.278 106.02,36.105C98.826,41.541 89.256,45.008 77.309,46.505L76.625,43.625C87.856,41.509 96.547,37.196 102.7,30.685C108.136,24.956 110.854,18.201 110.854,10.421C110.854,1.339 107.68,-6.017 101.332,-11.649C96.222,-16.369 89.451,-18.729 81.02,-18.729C79.229,-18.729 77.488,-18.615 75.795,-18.387ZM72.719,-17.752C66.078,-16.027 60.61,-13.293 56.313,-9.549C52.634,-6.457 49.737,-2.551 47.621,2.17C45.668,6.466 44.692,10.796 44.692,15.158C44.692,20.594 45.929,25.151 48.403,28.83C49.9,31.108 51.43,32.248 52.992,32.248C54.457,32.248 56.101,31.352 57.924,29.562C61.635,25.591 65.069,19.585 68.227,11.545C72.231,1.584 74.233,-5.822 74.233,-10.672C74.233,-13.83 73.728,-16.19 72.719,-17.752Z" style="fill-rule:nonzero;"/>
    </g>
</svg>
