<?xml version="1.0" encoding="UTF-8" standalone="no"?>
<!DOCTYPE svg PUBLIC "-//W3C//DTD SVG 1.1//EN" "http://www.w3.org/Graphics/SVG/1.1/DTD/svg11.dtd">
<svg width="100%" height="100%" viewBox="0 0 100 100" version="1.1" xmlns="http://www.w3.org/2000/svg" xmlns:xlink="http://www.w3.org/1999/xlink" xml:space="preserve" style="fill-rule:evenodd;clip-rule:evenodd;stroke-linejoin:round;stroke-miterlimit:1.41421;">
    <g transform="matrix(1,0,0,1,-28.8535,39.8509)">
        <path d="M60.61,-0.76C57.094,-9.484 55.092,-14.351 54.604,-15.36C53.627,-17.313 52.602,-18.534 51.528,-19.022C50.779,-19.347 49.314,-19.559 47.133,-19.657L47.133,-22.489C49.379,-22.944 51.902,-23.172 54.701,-23.172C57.241,-23.172 58.917,-21.805 59.731,-19.071C61.749,-12.463 63.539,-7.026 65.102,-2.762C80.173,-10.086 91.681,-13.748 99.623,-13.748C105.645,-13.748 110.561,-12.137 114.369,-8.914C117.885,-5.952 119.643,-2.127 119.643,2.56C119.643,8.42 117.364,13.009 112.807,16.33C109.226,18.934 104.994,20.236 100.112,20.236C94.122,20.236 88.263,18.901 82.534,16.232L83.608,13.449C87.84,14.783 92.381,15.451 97.231,15.451C101.886,15.451 105.727,14.181 108.754,11.642C111.684,9.136 113.149,5.832 113.149,1.73C113.149,-2.209 111.586,-5.187 108.461,-7.205C105.922,-8.833 102.618,-9.647 98.549,-9.647C91.257,-9.647 80.678,-5.887 66.811,1.632C69.187,7.752 72.328,15.532 76.235,24.972C79.783,33.501 82.078,39.116 83.119,41.818C83.998,43.771 84.438,45.806 84.438,47.921C84.438,50.721 83.266,52.121 80.922,52.121C79.62,52.121 78.318,49.989 77.016,45.724C72.654,31.89 67.82,17.957 62.514,3.927C57.859,6.629 53.725,9.168 50.112,11.545C49.981,11.61 49.461,11.951 48.549,12.57C47.312,13.351 46.27,13.742 45.424,13.742C44.187,13.742 42.771,13.042 41.176,11.642C39.679,10.34 38.295,8.664 37.026,6.613L38.735,4.513C40.72,6.141 42.446,6.955 43.91,6.955C45.017,6.955 46.515,6.418 48.403,5.343C49.672,4.692 51.821,3.618 54.848,2.121C57.387,0.884 59.308,-0.077 60.61,-0.76ZM71.108,-30.887C77.39,-30.399 82.599,-28.967 86.733,-26.59C89.402,-24.995 90.737,-23.091 90.737,-20.877C90.737,-19.673 90.411,-18.68 89.76,-17.899C89.109,-17.15 88.295,-16.776 87.319,-16.776C86.212,-16.776 84.991,-17.638 83.657,-19.364C80.173,-23.595 75.698,-26.509 70.229,-28.104L71.108,-30.887Z" style="fill-rule:nonzero;"/>
    </g>
</svg>
