<?xml version="1.0" encoding="UTF-8" standalone="no"?>
<!DOCTYPE svg PUBLIC "-//W3C//DTD SVG 1.1//EN" "http://www.w3.org/Graphics/SVG/1.1/DTD/svg11.dtd">
<svg width="100%" height="100%" viewBox="0 0 100 100" version="1.1" xmlns="http://www.w3.org/2000/svg" xmlns:xlink="http://www.w3.org/1999/xlink" xml:space="preserve" style="fill-rule:evenodd;clip-rule:evenodd;stroke-linejoin:round;stroke-miterlimit:1.41421;">
    <g transform="matrix(1,0,0,1,-28.8535,39.8509)">
        <path d="M63.002,-5.692C65.606,-13.114 66.909,-18.42 66.909,-21.61C66.909,-23.302 66.42,-24.572 65.444,-25.418C64.597,-26.167 63.198,-26.802 61.244,-27.323L61.733,-30.008C65.411,-30.008 68.552,-29.308 71.157,-27.909C73.272,-26.769 74.33,-25.565 74.33,-24.295C74.33,-23.156 73.728,-21.04 72.524,-17.948C70.603,-13 69.171,-9.191 68.227,-6.522C71.319,-7.108 74.412,-7.401 77.504,-7.401C81.313,-7.401 84.21,-5.838 86.196,-2.713C88.084,0.184 89.028,4.253 89.028,9.494C89.028,25.9 86.131,37.619 80.336,44.65C77.96,47.645 75.649,49.142 73.403,49.142C72.296,49.142 71.531,48.312 71.108,46.652C70.652,44.406 67.397,40.565 61.342,35.129L62.612,32.931C67.787,36.512 71.254,38.644 73.012,39.328C73.793,39.588 74.526,39.718 75.209,39.718C76.349,39.718 77.455,38.546 78.53,36.203C81.98,28.195 83.705,18.706 83.705,7.736C83.705,2.495 82.826,-0.89 81.069,-2.42C80.125,-3.267 78.546,-3.69 76.332,-3.69C73.598,-3.69 70.424,-3.234 66.811,-2.323C60.431,14.767 55.141,28.146 50.942,37.814C49.444,41.232 48.191,43.592 47.182,44.894C46.14,46.229 45.05,46.896 43.91,46.896C43.292,46.896 42.722,46.554 42.201,45.871C41.616,45.122 41.323,44.129 41.323,42.892C41.323,42.078 41.746,40.939 42.592,39.474C42.69,39.279 43.097,38.579 43.813,37.375C44.203,36.691 44.545,36.105 44.838,35.617C48.81,28.52 54.376,16.248 61.537,-1.2C59.161,-0.451 54.457,1.242 47.426,3.879C45.961,4.627 44.724,5.002 43.715,5.002C42.478,5.002 41.404,4.009 40.492,2.023C39.614,0.07 39.158,-2.371 39.125,-5.301L41.42,-6.082C41.974,-3.218 43.211,-1.786 45.131,-1.786C47.215,-1.786 53.172,-3.088 63.002,-5.692ZM99.526,13.839C104.734,13.612 109.129,13.302 112.709,12.912C113.718,12.814 114.223,12.212 114.223,11.105C114.223,8.11 112.791,4.513 109.926,0.314C107.42,-3.299 103.578,-6.701 98.403,-9.891L99.721,-12.284C103.562,-10.656 106.606,-8.996 108.852,-7.303C110.903,-5.773 112.856,-3.836 114.711,-1.493C119.724,4.692 122.231,10.796 122.231,16.818C122.231,20.431 121.238,22.238 119.252,22.238C118.113,22.238 117.136,21.603 116.323,20.334C115.183,18.641 112.823,17.599 109.242,17.209C106.313,16.883 103.106,16.688 99.623,16.623L99.526,13.839Z" style="fill-rule:nonzero;"/>
    </g>
</svg>
