<?xml version="1.0" encoding="UTF-8" standalone="no"?>
<!DOCTYPE svg PUBLIC "-//W3C//DTD SVG 1.1//EN" "http://www.w3.org/Graphics/SVG/1.1/DTD/svg11.dtd">
<svg width="100%" height="100%" viewBox="0 0 100 100" version="1.1" xmlns="http://www.w3.org/2000/svg" xmlns:xlink="http://www.w3.org/1999/xlink" xml:space="preserve" style="fill-rule:evenodd;clip-rule:evenodd;stroke-linejoin:round;stroke-miterlimit:1.41421;">
    <g transform="matrix(1,0,0,1,-28.8535,39.8509)">
        <path d="M77.016,-16.385C80.076,-19.25 83.071,-20.682 86,-20.682C89.744,-20.682 92.983,-18.615 95.717,-14.481C99.428,-8.752 101.284,-0.223 101.284,11.105C101.284,21.815 98.061,30.848 91.616,38.205C85.984,44.52 77.651,49.126 66.616,52.023L65.59,49.24C76.3,45.073 84.177,39.23 89.223,31.711C92.999,26.112 94.887,18.722 94.887,9.543C94.887,0.298 93.862,-6.603 91.811,-11.161C90.151,-14.839 87.84,-16.678 84.877,-16.678C82.631,-16.678 80.434,-15.409 78.285,-12.87C74.119,-8.28 70.619,-2.29 67.787,5.099C66.062,9.722 65.2,13.384 65.2,16.086L65.688,22.482C65.688,24.891 64.695,26.095 62.709,26.095C61.505,26.095 60.496,25.298 59.682,23.703C58.282,20.968 57.354,16.199 56.899,9.396C56.573,3.862 57.68,-4.097 60.219,-14.481C61.098,-17.736 61.537,-20.373 61.537,-22.391C61.537,-24.539 60.463,-26.737 58.315,-28.983L60.219,-30.985C65.623,-27.762 68.325,-24.328 68.325,-20.682C68.325,-19.543 67.722,-17.769 66.518,-15.36C64.76,-11.909 63.36,-7.808 62.319,-3.055C61.57,0.298 61.196,3.016 61.196,5.099C61.196,8.192 61.228,10.405 61.293,11.74L61.83,11.642C65.997,-1.509 71.059,-10.851 77.016,-16.385Z" style="fill-rule:nonzero;"/>
    </g>
</svg>
