<?xml version="1.0" encoding="UTF-8" standalone="no"?>
<!DOCTYPE svg PUBLIC "-//W3C//DTD SVG 1.1//EN" "http://www.w3.org/Graphics/SVG/1.1/DTD/svg11.dtd">
<svg width="100%" height="100%" viewBox="0 0 100 100" version="1.1" xmlns="http://www.w3.org/2000/svg" xmlns:xlink="http://www.w3.org/1999/xlink" xml:space="preserve" style="fill-rule:evenodd;clip-rule:evenodd;stroke-linejoin:round;stroke-miterlimit:1.41421;">
    <g transform="matrix(1,0,0,1,-28.8535,39.8509)">
        <path d="M80.727,-5.594C81.801,-5.594 82.729,-5.627 83.51,-5.692C89.402,-5.985 94.61,-7.01 99.135,-8.768C101.381,-9.647 102.651,-10.086 102.944,-10.086C104.311,-10.086 105.466,-9.679 106.41,-8.866C107.289,-8.117 107.729,-7.222 107.729,-6.18C107.729,-5.204 106.834,-4.373 105.043,-3.69C98.989,-1.769 92.592,-0.809 85.854,-0.809C84.031,-0.809 82.354,-1.069 80.825,-1.59C80.922,7.85 81.394,17.485 82.241,27.316C92.104,29.725 99.721,32.443 105.092,35.47C109.584,38.009 111.83,40.386 111.83,42.599C111.83,44.813 110.805,45.92 108.754,45.92C107.68,45.92 106.166,45.122 104.213,43.527C99.103,39.328 91.909,35.731 82.631,32.736C82.761,36.252 82.599,38.921 82.143,40.744C81.524,43.12 80.287,45.122 78.432,46.75C76.023,48.735 71.661,49.728 65.346,49.728C59.942,49.728 55.564,48.654 52.211,46.505C48.826,44.324 47.133,41.362 47.133,37.619C47.133,33.354 49.591,30.099 54.506,27.853C57.892,26.356 61.537,25.607 65.444,25.607C68.862,25.607 72.687,25.867 76.918,26.388C76.267,16.297 75.877,6.662 75.746,-2.518C75.551,-14.66 75.209,-21.659 74.721,-23.514C74.037,-25.793 72.149,-27.03 69.057,-27.225L68.91,-30.008C70.831,-30.204 72.345,-30.301 73.451,-30.301C79.246,-30.301 82.143,-28.397 82.143,-24.588C82.143,-24.035 82.045,-23.01 81.85,-21.512C81.101,-16.597 80.727,-11.291 80.727,-5.594ZM77.114,31.515C72.394,30.506 67.966,30.002 63.832,30.002C60.414,30.002 57.485,30.62 55.043,31.857C52.439,33.192 51.137,35.015 51.137,37.326C51.137,40.028 52.651,42.046 55.678,43.38C58.022,44.422 61,44.943 64.614,44.943C69.008,44.943 72.149,44.211 74.037,42.746C75.763,41.476 76.772,39.621 77.065,37.179C77.097,36.789 77.114,34.901 77.114,31.515Z" style="fill-rule:nonzero;"/>
    </g>
</svg>
