<?xml version="1.0" encoding="UTF-8" standalone="no"?>
<!DOCTYPE svg PUBLIC "-//W3C//DTD SVG 1.1//EN" "http://www.w3.org/Graphics/SVG/1.1/DTD/svg11.dtd">
<svg width="100%" height="100%" viewBox="0 0 100 100" version="1.1" xmlns="http://www.w3.org/2000/svg" xmlns:xlink="http://www.w3.org/1999/xlink" xml:space="preserve" style="fill-rule:evenodd;clip-rule:evenodd;stroke-linejoin:round;stroke-miterlimit:1.41421;">
    <g transform="matrix(1,0,0,1,-28.8535,39.8509)">
        <path d="M66.713,45.92C64.304,43.804 63.1,41.444 63.1,38.839C63.1,34.901 65.281,31.857 69.643,29.709C72.768,28.179 76.251,27.414 80.092,27.414C82.696,27.414 85.74,27.576 89.223,27.902C88.539,19.536 88.198,15.142 88.198,14.718C88.198,10.584 89.142,6.645 91.03,2.902L93.52,3.537C92.836,5.685 92.494,8.273 92.494,11.3C92.494,12.602 92.657,14.604 92.983,17.306C93.341,19.715 93.943,23.719 94.789,29.318C101.463,31.466 106.443,33.403 109.731,35.129C114.516,38.026 116.909,40.451 116.909,42.404C116.909,44.813 115.948,46.017 114.028,46.017C113.344,46.017 112.075,45.187 110.219,43.527C107.485,41.086 102.553,38.221 95.424,34.933C95.489,35.78 95.522,37.049 95.522,38.742C95.522,46.522 90.492,50.412 80.434,50.412C74.77,50.412 70.196,48.914 66.713,45.92ZM89.711,32.736C85.577,31.987 82.208,31.613 79.604,31.613C76.414,31.613 73.631,32.166 71.254,33.273C68.552,34.543 67.201,36.333 67.201,38.644C67.201,40.988 68.504,42.746 71.108,43.918C73.191,44.862 75.86,45.334 79.116,45.334C83.901,45.334 86.993,44.145 88.393,41.769C89.435,40.044 89.874,37.033 89.711,32.736ZM62.221,-10.868C64.63,-17.052 65.834,-21.349 65.834,-23.758C65.834,-25.711 64.093,-26.948 60.61,-27.469L61.196,-29.862C63.8,-30.252 66.323,-30.122 68.764,-29.471C71.466,-28.755 72.817,-27.469 72.817,-25.614C72.817,-24.735 72.117,-22.586 70.717,-19.168L67.934,-12.381C71.157,-13.325 73.647,-14.416 75.405,-15.653C76.804,-16.532 78.041,-16.971 79.116,-16.971C82.045,-16.971 83.51,-16.011 83.51,-14.09C83.51,-13.114 82.713,-12.267 81.117,-11.551C77.732,-10.119 72.589,-8.654 65.688,-7.157C60.545,5.246 54.425,18.039 47.328,31.222C46.352,33.078 45.294,34.005 44.155,34.005C41.941,34.005 40.834,32.541 40.834,29.611C40.834,28.895 41.664,27.218 43.325,24.582C50.291,14.132 55.922,3.911 60.219,-6.082C56.248,-5.334 52.976,-4.959 50.405,-4.959C46.01,-4.959 42.446,-7.205 39.711,-11.698L41.616,-13.602C44.155,-10.835 47.247,-9.452 50.893,-9.452C54.181,-9.452 57.957,-9.924 62.221,-10.868ZM97.035,-1.2C98.24,-1.623 99.916,-2.144 102.065,-2.762C104.083,-3.348 105.466,-3.755 106.215,-3.983C107.289,-4.341 107.826,-4.65 107.826,-4.911C107.826,-5.236 107.387,-5.692 106.508,-6.278C104.067,-8.101 100.128,-9.745 94.692,-11.209L95.717,-13.895C104.181,-12.593 110.414,-10.103 114.418,-6.424C116.827,-4.113 118.032,-1.672 118.032,0.9C118.032,2.821 117.169,3.781 115.444,3.781C114.597,3.781 113.425,2.983 111.928,1.388C110.984,0.249 109.21,-0.321 106.606,-0.321C104.164,-0.321 101.235,0.184 97.817,1.193L97.035,-1.2Z" style="fill-rule:nonzero;"/>
    </g>
</svg>
