<?xml version="1.0" encoding="UTF-8" standalone="no"?>
<!DOCTYPE svg PUBLIC "-//W3C//DTD SVG 1.1//EN" "http://www.w3.org/Graphics/SVG/1.1/DTD/svg11.dtd">
<svg width="100%" height="100%" viewBox="0 0 100 100" version="1.1" xmlns="http://www.w3.org/2000/svg" xmlns:xlink="http://www.w3.org/1999/xlink" xml:space="preserve" style="fill-rule:evenodd;clip-rule:evenodd;stroke-linejoin:round;stroke-miterlimit:1.41421;">
    <g transform="matrix(1,0,0,1,-28.8535,39.8509)">
        <path d="M63.637,-8.817C66.144,-16.043 67.397,-21.235 67.397,-24.393C67.397,-26.346 65.769,-28.055 62.514,-29.52L63.735,-32.01C71.319,-30.61 75.112,-28.608 75.112,-26.004C75.112,-25.093 74.819,-24.165 74.233,-23.221C73.582,-22.277 72.784,-20.405 71.84,-17.606C70.701,-14.351 69.757,-11.779 69.008,-9.891C73.338,-10.77 76.609,-11.974 78.823,-13.504C80.45,-14.448 81.785,-14.92 82.826,-14.92C84.682,-14.92 86.049,-14.513 86.928,-13.7C87.449,-13.244 87.709,-12.479 87.709,-11.405C87.709,-10.265 86.082,-9.191 82.826,-8.182C79.832,-7.238 74.672,-6.082 67.348,-4.715C60.805,13.319 54.864,28.976 49.526,42.257C48.321,45.448 47.166,47.043 46.059,47.043C45.082,47.043 44.285,46.668 43.666,45.92C42.918,45.106 42.543,44.015 42.543,42.648C42.543,41.639 43.373,39.539 45.034,36.349C50.73,24.728 56.329,11.349 61.83,-3.788C57.826,-3.202 54.164,-2.909 50.844,-2.909C48.468,-2.909 46.222,-3.592 44.106,-4.959C42.022,-6.294 40.362,-8.133 39.125,-10.477L41.323,-12.284C43.894,-9.159 47.101,-7.596 50.942,-7.596C55.011,-7.596 59.242,-8.003 63.637,-8.817ZM88.93,14.084C91.599,11.512 94.562,8.745 97.817,5.783C92.413,5.88 86.31,6.857 79.506,8.712L78.627,5.88C87.221,2.3 95.278,0.509 102.797,0.509C109.405,0.509 112.709,1.714 112.709,4.123C112.709,5.587 111.472,6.32 108.998,6.32C105.711,6.32 103.285,6.776 101.723,7.687C99.412,9.119 95.815,11.919 90.932,16.086L88.93,14.084ZM76.528,29.806C77.96,34.071 80.418,37.147 83.901,39.035C87.123,40.76 91.469,41.623 96.938,41.623C100.746,41.623 104.376,41.313 107.826,40.695C110.756,40.239 112.286,40.011 112.416,40.011C114.142,40.011 115.346,40.272 116.03,40.793C117.039,41.639 117.543,42.746 117.543,44.113C117.543,45.35 116.371,46.212 114.028,46.701C111.619,47.189 107.55,47.433 101.821,47.433C91.925,47.433 84.845,45.854 80.58,42.697C77.26,40.223 75.014,36.3 73.842,30.929L76.528,29.806Z" style="fill-rule:nonzero;"/>
    </g>
</svg>
