<?xml version="1.0" encoding="UTF-8" standalone="no"?>
<!DOCTYPE svg PUBLIC "-//W3C//DTD SVG 1.1//EN" "http://www.w3.org/Graphics/SVG/1.1/DTD/svg11.dtd">
<svg width="100%" height="100%" viewBox="0 0 100 100" version="1.1" xmlns="http://www.w3.org/2000/svg" xmlns:xlink="http://www.w3.org/1999/xlink" xml:space="preserve" style="fill-rule:evenodd;clip-rule:evenodd;stroke-linejoin:round;stroke-miterlimit:1.41421;">
    <g transform="matrix(1,0,0,1,-28.8535,39.8509)">
        <path d="M55.629,32.541C55.629,36.284 58.217,39.198 63.393,41.281C67.787,43.039 73.37,43.918 80.141,43.918C83.884,43.918 87.905,43.527 92.201,42.746C93.308,42.55 94.187,42.453 94.838,42.453C96.596,42.453 97.784,42.648 98.403,43.039C99.477,43.722 100.014,44.813 100.014,46.31C100.014,47.808 98.517,48.833 95.522,49.386C92.885,49.875 88.491,50.119 82.338,50.119C71.629,50.119 63.491,48.312 57.924,44.699C53.399,41.769 51.137,38.009 51.137,33.42C51.137,28.341 54.034,24.614 59.828,22.238C63.832,20.578 68.666,19.748 74.33,19.748C82.241,19.748 89.272,20.382 95.424,21.652C94.187,19.634 92.608,16.916 90.688,13.498C88.539,9.689 87.123,7.199 86.44,6.027C78.074,8.175 71.303,9.25 66.127,9.25C58.054,9.25 51.69,6.548 47.035,1.144L48.94,-0.955C53.074,2.983 58.543,4.953 65.346,4.953C70.847,4.953 77.179,3.911 84.34,1.828C83.136,-0.353 81.134,-4.455 78.334,-10.477C72.507,-9.142 67.478,-8.475 63.246,-8.475C57.485,-8.475 53.009,-10.103 49.819,-13.358L51.528,-15.555C54.75,-13.504 58.185,-12.479 61.83,-12.479C66.225,-12.479 71.124,-13.146 76.528,-14.481L72.719,-22.635C71.026,-26.444 68.601,-28.348 65.444,-28.348C65.151,-28.348 64.451,-28.283 63.344,-28.153L62.953,-31.18C66.697,-31.766 69.659,-32.059 71.84,-32.059C74.347,-32.059 75.974,-30.789 76.723,-28.25C78.058,-23.628 79.392,-19.559 80.727,-16.043C87.367,-18.68 91.599,-20.649 93.422,-21.952C94.659,-22.83 96.091,-23.27 97.719,-23.27C100.323,-23.27 101.625,-22.538 101.625,-21.073C101.625,-19.998 99.77,-18.664 96.059,-17.069C93.715,-16.027 89.207,-14.334 82.534,-11.991C84.715,-7.043 86.749,-2.876 88.637,0.509C96.742,-2.453 101.951,-4.976 104.262,-7.059C105.401,-8.003 106.671,-8.475 108.071,-8.475C111.326,-8.475 112.953,-7.743 112.953,-6.278C112.953,-3.576 105.548,0.054 90.737,4.611C92.69,8.061 95.522,12.537 99.233,18.039C101.088,20.74 102.016,22.938 102.016,24.63C102.016,27.951 101.284,29.611 99.819,29.611C99.005,29.611 97.931,29.139 96.596,28.195C94.578,26.73 90.948,25.509 85.707,24.533C81.345,23.752 77.016,23.361 72.719,23.361C67.381,23.361 63.084,24.37 59.828,26.388C57.029,28.081 55.629,30.132 55.629,32.541Z" style="fill-rule:nonzero;"/>
    </g>
</svg>
