<?xml version="1.0" encoding="UTF-8" standalone="no"?>
<!DOCTYPE svg PUBLIC "-//W3C//DTD SVG 1.1//EN" "http://www.w3.org/Graphics/SVG/1.1/DTD/svg11.dtd">
<svg width="100%" height="100%" viewBox="0 0 100 100" version="1.1" xmlns="http://www.w3.org/2000/svg" xmlns:xlink="http://www.w3.org/1999/xlink" xml:space="preserve" style="fill-rule:evenodd;clip-rule:evenodd;stroke-linejoin:round;stroke-miterlimit:1.41421;">
    <g transform="matrix(1,0,0,1,-28.8535,39.8509)">
        <path d="M40.346,-19.071C41.909,-15.913 43.78,-14.334 45.961,-14.334C48.989,-14.334 53.351,-15.278 59.047,-17.166C63.181,-18.501 65.851,-19.933 67.055,-21.463C67.804,-22.407 68.569,-22.879 69.35,-22.879C70.294,-22.879 71.433,-22.342 72.768,-21.268C74.168,-20.226 74.867,-19.136 74.867,-17.996C74.867,-17.345 74.33,-16.776 73.256,-16.288C71.531,-15.343 70.131,-14.269 69.057,-13.065C57.468,-0.923 51.674,11.284 51.674,23.556C51.674,30.49 53.465,35.796 57.045,39.474C60.268,42.729 64.646,44.357 70.18,44.357C78.253,44.357 84.649,41.46 89.369,35.666C94.09,29.741 96.45,21.473 96.45,10.861C96.45,1.193 95.18,-8.491 92.641,-18.192C92.218,-19.722 91.518,-21.382 90.541,-23.172C90.02,-24.246 89.76,-25.174 89.76,-25.955C89.76,-26.965 90.932,-27.469 93.276,-27.469C95.847,-27.469 97.133,-26.167 97.133,-23.563C97.133,-20.308 98.94,-15.604 102.553,-9.452C105.678,-4.308 110.138,1.323 115.932,7.443C117.853,9.494 118.845,10.552 118.91,10.617C119.789,11.756 120.229,12.895 120.229,14.035C120.229,16.964 119.269,18.429 117.348,18.429C115.981,18.429 114.011,16.59 111.44,12.912C105.743,4.839 101.186,-3.283 97.768,-11.454L97.231,-11.161C99.575,-1.004 100.746,7.834 100.746,15.353C100.746,25.737 98.24,34.005 93.227,40.158C87.791,47.091 80.206,50.558 70.473,50.558C62.237,50.558 55.971,47.775 51.674,42.209C48.061,37.554 46.254,31.401 46.254,23.752C46.254,16.558 48.012,9.673 51.528,3.097C54.034,-1.623 58.136,-7.385 63.832,-14.188L63.539,-14.481C53.644,-10.672 48.582,-8.703 48.354,-8.573C47.149,-7.824 46.108,-7.45 45.229,-7.45C44.057,-7.45 42.869,-8.215 41.664,-9.745C40.134,-11.665 38.995,-14.334 38.246,-17.752L40.346,-19.071Z" style="fill-rule:nonzero;"/>
    </g>
</svg>
