<?xml version="1.0" encoding="UTF-8" standalone="no"?>
<!DOCTYPE svg PUBLIC "-//W3C//DTD SVG 1.1//EN" "http://www.w3.org/Graphics/SVG/1.1/DTD/svg11.dtd">
<svg width="100%" height="100%" viewBox="0 0 100 100" version="1.1" xmlns="http://www.w3.org/2000/svg" xmlns:xlink="http://www.w3.org/1999/xlink" xml:space="preserve" style="fill-rule:evenodd;clip-rule:evenodd;stroke-linejoin:round;stroke-miterlimit:1.41421;">
    <g transform="matrix(1,0,0,1,-28.8535,39.8509)">
        <path d="M82.729,30.099C84.715,24.565 85.707,16.167 85.707,4.904C85.707,0.021 85.512,-5.513 85.121,-11.698C72.035,-8.442 62.205,1.16 55.629,17.111C53.611,21.636 52.569,25.298 52.504,28.097C52.504,28.781 52.651,30.392 52.944,32.931C53.302,36.121 52.667,37.716 51.039,37.716C49.509,37.716 48.061,36.479 46.694,34.005C43.764,28.927 42.299,21.766 42.299,12.521C42.299,6.694 43.064,-0.304 44.594,-8.475C45.213,-11.502 45.522,-13.765 45.522,-15.262C45.522,-17.638 44.122,-19.771 41.323,-21.659L42.739,-24.002C45.766,-22.83 48.175,-21.382 49.965,-19.657C51.528,-18.192 52.309,-16.792 52.309,-15.457C52.309,-14.871 51.739,-12.707 50.6,-8.963C48.191,-1.216 46.987,5.946 46.987,12.521C46.987,16.688 47.394,20.122 48.207,22.824C52.96,9.901 58.836,0.33 65.834,-5.887C70.88,-10.379 77.244,-13.683 84.926,-15.799C84.34,-20.812 83.64,-24.23 82.826,-26.053C81.948,-27.843 79.409,-28.527 75.209,-28.104L75.014,-31.082C77.423,-31.603 79.767,-31.864 82.045,-31.864C85.789,-31.864 88.084,-30.529 88.93,-27.86C89.418,-26.395 89.923,-22.7 90.444,-16.776C91.941,-16.906 92.934,-16.971 93.422,-16.971C100.779,-16.971 106.85,-14.513 111.635,-9.598C115.899,-5.204 118.032,0.168 118.032,6.515C118.032,15.011 115.672,21.88 110.951,27.121C105.515,32.85 98.565,35.714 90.102,35.714C88.116,35.714 86.716,35.617 85.903,35.421C82.257,42.355 76.869,48.019 69.741,52.414L67.641,50.314C74.151,44.813 78.611,39.474 81.02,34.298C77.341,32.866 74.412,31.108 72.231,29.025C70.408,27.267 68.731,24.94 67.201,22.043L69.399,20.138C73.338,25.379 77.781,28.699 82.729,30.099ZM87.807,30.929C88.425,30.929 88.897,30.913 89.223,30.88C96.417,30.88 102.146,28.227 106.41,22.921C110.024,18.462 111.83,13.026 111.83,6.613C111.83,0.526 109.828,-4.308 105.825,-7.889C102.276,-11.079 97.735,-12.674 92.201,-12.674C91.616,-12.674 91.127,-12.642 90.737,-12.577C91.062,-7.238 91.225,-1.672 91.225,4.123C91.225,15.614 90.086,24.549 87.807,30.929Z" style="fill-rule:nonzero;"/>
    </g>
</svg>
