<?xml version="1.0" encoding="UTF-8" standalone="no"?>
<!DOCTYPE svg PUBLIC "-//W3C//DTD SVG 1.1//EN" "http://www.w3.org/Graphics/SVG/1.1/DTD/svg11.dtd">
<svg width="100%" height="100%" viewBox="0 0 100 100" version="1.1" xmlns="http://www.w3.org/2000/svg" xmlns:xlink="http://www.w3.org/1999/xlink" xml:space="preserve" style="fill-rule:evenodd;clip-rule:evenodd;stroke-linejoin:round;stroke-miterlimit:1.41421;">
    <g transform="matrix(1,0,0,1,-28.8535,39.8509)">
        <path d="M54.213,29.611C54.213,33.322 56.834,36.479 62.075,39.084C67.283,41.655 73.989,42.941 82.192,42.941C86.228,42.941 89.662,42.599 92.494,41.916C93.406,41.72 94.106,41.623 94.594,41.623C95.896,41.623 97.035,41.916 98.012,42.502C99.282,43.25 99.916,44.422 99.916,46.017C99.916,47.319 98.81,48.214 96.596,48.703C94.675,49.126 91.583,49.337 87.319,49.337C74.233,49.337 64.386,47.205 57.778,42.941C52.407,39.49 49.721,35.015 49.721,29.513C49.721,24.696 52.065,20.952 56.752,18.283C60.626,16.102 65.509,15.011 71.401,15.011C79.897,15.011 87.97,15.972 95.619,17.892C91.095,11.512 86.7,4.188 82.436,-4.08C74.819,-2.03 68.178,-1.004 62.514,-1.004C55.027,-1.004 49.461,-3.364 45.815,-8.084L47.621,-10.184C51.821,-7.059 56.492,-5.496 61.635,-5.496C66.648,-5.496 72.882,-6.538 80.336,-8.621C79.164,-11.03 77.895,-13.895 76.528,-17.215C75.453,-19.819 74.623,-21.74 74.037,-22.977C73.061,-24.995 71.515,-26.004 69.399,-26.004C68.617,-26.004 67.494,-25.842 66.03,-25.516L65.2,-28.397C68.39,-29.732 71.563,-30.399 74.721,-30.399C76.544,-30.399 77.846,-29.927 78.627,-28.983C78.92,-28.592 79.457,-26.834 80.239,-23.709C81.345,-19.25 82.908,-14.644 84.926,-9.891C93.162,-13.016 98.598,-15.75 101.235,-18.094C102.179,-18.843 103.465,-19.217 105.092,-19.217C108.575,-19.217 110.317,-18.322 110.317,-16.532C110.317,-14.383 102.52,-10.64 86.928,-5.301C91.485,3.651 95.636,10.291 99.379,14.621C100.877,16.346 101.853,17.697 102.309,18.673C102.765,19.65 102.992,20.806 102.992,22.14C102.992,25.265 102.032,26.828 100.112,26.828C99.07,26.828 97.735,26.063 96.108,24.533C94.871,23.393 92.543,22.287 89.125,21.212C83.461,19.487 77.895,18.625 72.426,18.625C60.284,18.625 54.213,22.287 54.213,29.611Z" style="fill-rule:nonzero;"/>
    </g>
</svg>
