<?xml version="1.0" encoding="UTF-8" standalone="no"?>
<!DOCTYPE svg PUBLIC "-//W3C//DTD SVG 1.1//EN" "http://www.w3.org/Graphics/SVG/1.1/DTD/svg11.dtd">
<svg width="100%" height="100%" viewBox="0 0 100 100" version="1.1" xmlns="http://www.w3.org/2000/svg" xmlns:xlink="http://www.w3.org/1999/xlink" xml:space="preserve" style="fill-rule:evenodd;clip-rule:evenodd;stroke-linejoin:round;stroke-miterlimit:1.41421;">
    <g transform="matrix(1,0,0,1,-28.8535,39.8509)">
        <path d="M66.518,-15.799C67.885,-16.646 69.692,-17.736 71.938,-19.071C74.542,-20.633 76.104,-21.577 76.625,-21.903C71.58,-23.595 67.511,-26.655 64.418,-31.082L66.518,-33.084C69.936,-29.666 73.468,-27.567 77.114,-26.786C79.62,-26.265 82.859,-25.825 86.83,-25.467C92.494,-24.946 95.326,-23.384 95.326,-20.78C95.326,-18.989 94.155,-18.094 91.811,-18.094C91.778,-18.094 91.29,-18.159 90.346,-18.289C87.937,-18.68 85.935,-18.875 84.34,-18.875C80.108,-18.875 74.672,-17.118 68.032,-13.602L66.518,-15.799ZM53.92,-3.983C54.343,-0.532 55.515,1.193 57.436,1.193C57.957,1.193 59.552,0.623 62.221,-0.516C73.777,-5.106 81.752,-7.401 86.147,-7.401C91.55,-7.401 96.01,-5.269 99.526,-1.004C103.009,3.293 104.75,8.371 104.75,14.23C104.75,25.102 100.112,34.038 90.834,41.037C84.291,46.05 75.421,49.614 64.223,51.73L63.344,48.898C73.5,46.294 81.41,42.469 87.075,37.423C94.334,30.848 97.963,23.068 97.963,14.084C97.963,8.778 96.791,4.448 94.448,1.095C92.267,-1.899 89.662,-3.397 86.635,-3.397C83.738,-3.397 79.815,-2.355 74.867,-0.272C70.571,1.486 65.525,4.253 59.731,8.029C58.722,8.615 57.826,8.908 57.045,8.908C55.483,8.908 54.132,7.996 52.992,6.173C51.886,4.416 51.332,2.17 51.332,-0.565C51.332,-1.769 51.365,-2.713 51.43,-3.397L53.92,-3.983Z" style="fill-rule:nonzero;"/>
    </g>
</svg>
