<?xml version="1.0" encoding="UTF-8" standalone="no"?>
<!DOCTYPE svg PUBLIC "-//W3C//DTD SVG 1.1//EN" "http://www.w3.org/Graphics/SVG/1.1/DTD/svg11.dtd">
<svg width="100%" height="100%" viewBox="0 0 100 100" version="1.1" xmlns="http://www.w3.org/2000/svg" xmlns:xlink="http://www.w3.org/1999/xlink" xml:space="preserve" style="fill-rule:evenodd;clip-rule:evenodd;stroke-linejoin:round;stroke-miterlimit:1.41421;">
    <g transform="matrix(1,0,0,1,-28.8535,39.8509)">
        <path d="M114.321,14.816C111.261,25.037 107.062,32.866 101.723,38.302C94.496,45.431 85.903,48.996 75.942,48.996C68.194,48.996 62.693,47.026 59.438,43.087C56.378,39.377 54.848,33.517 54.848,25.509C54.848,15.711 55.206,4.806 55.922,-7.205C56.183,-11.307 56.313,-14.904 56.313,-17.996C56.313,-20.894 55.987,-22.944 55.336,-24.149C54.653,-25.418 53.318,-26.493 51.332,-27.371L52.211,-29.764C55.662,-29.373 58.689,-28.169 61.293,-26.151C63.377,-24.556 64.418,-23.075 64.418,-21.707C64.418,-21.317 64.19,-20.031 63.735,-17.85C63.246,-15.669 62.888,-13.553 62.66,-11.502C61,2.56 60.17,14.686 60.17,24.875C60.17,32.557 61.489,37.635 64.125,40.109C66.404,42.225 70.489,43.283 76.381,43.283C83.966,43.283 90.948,40.467 97.328,34.836C103.22,29.627 107.957,22.515 111.537,13.498L114.321,14.816Z" style="fill-rule:nonzero;"/>
    </g>
</svg>
