<?xml version="1.0" encoding="UTF-8" standalone="no"?>
<!DOCTYPE svg PUBLIC "-//W3C//DTD SVG 1.1//EN" "http://www.w3.org/Graphics/SVG/1.1/DTD/svg11.dtd">
<svg width="100%" height="100%" viewBox="0 0 100 100" version="1.1" xmlns="http://www.w3.org/2000/svg" xmlns:xlink="http://www.w3.org/1999/xlink" xml:space="preserve" style="fill-rule:evenodd;clip-rule:evenodd;stroke-linejoin:round;stroke-miterlimit:1.41421;">
    <g transform="matrix(1,0,0,1,-28.8535,39.8509)">
        <path d="M86.44,0.314C85.789,-1.737 84.649,-3.364 83.022,-4.569L84.633,-6.375C87.563,-5.138 89.955,-2.876 91.811,0.412C99.363,1.291 105.385,3.667 109.877,7.541C114.565,11.61 116.909,16.932 116.909,23.507C116.909,32.459 112.335,39.458 103.188,44.504C97.003,47.921 89.353,50.168 80.239,51.242L79.409,48.41C90.444,45.806 98.451,42.257 103.432,37.765C108.022,33.631 110.317,28.52 110.317,22.433C110.317,17.095 108.217,12.668 104.018,9.152C100.795,6.45 96.791,4.676 92.006,3.83C91.42,7.117 89.402,11.414 85.951,16.72C81.72,22.645 77.341,27.544 72.817,31.418C73.142,33.045 73.614,34.51 74.233,35.812C75.014,37.895 75.405,39.23 75.405,39.816C75.405,42.681 74.444,44.113 72.524,44.113C70.961,44.113 69.496,41.216 68.129,35.421C60.447,41.541 54.083,44.601 49.037,44.601C43.764,44.601 41.127,41.606 41.127,35.617C41.127,28.879 43.976,22.466 49.672,16.379C54.164,11.593 59.682,7.736 66.225,4.806C66.388,1.942 66.681,-2.388 67.104,-8.182C65.053,-8.052 62.823,-7.987 60.414,-7.987C56.215,-7.987 53.025,-8.638 50.844,-9.94C48.956,-11.047 47.41,-12.853 46.205,-15.36L48.549,-17.069C50.567,-13.944 54.197,-12.381 59.438,-12.381C62.009,-12.381 64.744,-12.544 67.641,-12.87C68.325,-18.534 68.666,-22.098 68.666,-23.563C68.666,-24.735 68.227,-25.679 67.348,-26.395C66.599,-27.046 65.167,-27.843 63.051,-28.788L64.125,-31.082C71.938,-30.041 75.844,-28.136 75.844,-25.37C75.844,-24.588 75.649,-23.726 75.258,-22.782C74.705,-21.48 74.363,-20.649 74.233,-20.291C73.777,-19.022 73.272,-16.76 72.719,-13.504C76.821,-14.188 81.492,-15.441 86.733,-17.264C87.677,-17.557 88.751,-18.094 89.955,-18.875C91.192,-19.754 92.918,-20.194 95.131,-20.194C97.735,-20.194 99.037,-19.364 99.037,-17.704C99.037,-16.434 98.403,-15.523 97.133,-14.969C90.818,-12.625 82.452,-10.623 72.035,-8.963C71.515,-5.513 71.14,-1.493 70.912,3.097C75.47,1.502 80.645,0.574 86.44,0.314ZM86.635,3.634C81.459,3.927 76.153,5.05 70.717,7.004C70.359,13.579 70.701,20.252 71.742,27.023C75.486,23.117 79.246,18.153 83.022,12.13C85.04,9.168 86.244,6.336 86.635,3.634ZM67.25,30.832C66.404,24.679 66.03,17.371 66.127,8.908C60.756,11.642 56.166,15.467 52.358,20.382C48.614,25.2 46.742,29.953 46.742,34.64C46.742,37.83 48.272,39.425 51.332,39.425C52.83,39.425 55.141,38.579 58.266,36.886C61.293,35.259 64.288,33.24 67.25,30.832Z" style="fill-rule:nonzero;"/>
    </g>
</svg>
