<?xml version="1.0" encoding="UTF-8" standalone="no"?>
<!DOCTYPE svg PUBLIC "-//W3C//DTD SVG 1.1//EN" "http://www.w3.org/Graphics/SVG/1.1/DTD/svg11.dtd">
<svg width="100%" height="100%" viewBox="0 0 100 100" version="1.1" xmlns="http://www.w3.org/2000/svg" xmlns:xlink="http://www.w3.org/1999/xlink" xml:space="preserve" style="fill-rule:evenodd;clip-rule:evenodd;stroke-linejoin:round;stroke-miterlimit:1.41421;">
    <g transform="matrix(1,0,0,1,-28.8535,39.8509)">
        <path d="M61.293,7.98C74.542,4.985 87.254,2.495 99.428,0.509C101.088,0.249 103.334,-0.174 106.166,-0.76C107.664,-1.053 108.754,-1.2 109.438,-1.2C114.093,-1.2 116.42,0.33 116.42,3.39C116.42,5.05 115.362,5.88 113.246,5.88C112.726,5.88 111.879,5.815 110.707,5.685C110.056,5.62 109.259,5.587 108.315,5.587C104.962,5.587 101.869,5.75 99.037,6.076C93.927,6.694 89.809,7.915 86.684,9.738C83.591,11.561 80.841,14.246 78.432,17.795C76.023,21.245 74.819,25.086 74.819,29.318C74.819,34.624 76.658,38.53 80.336,41.037C83.201,43.022 86.765,44.015 91.03,44.015L98.012,44.015C99.379,44.015 100.437,44.308 101.186,44.894C102.26,45.643 102.797,46.619 102.797,47.824C102.797,49.061 102.325,49.891 101.381,50.314C100.47,50.705 98.842,50.9 96.498,50.9C86.57,50.9 79.311,48.361 74.721,43.283C71.466,39.93 69.838,35.503 69.838,30.002C69.838,21.408 74.737,13.839 84.535,7.296L84.535,7.004C69.203,10.845 57.566,14.116 49.623,16.818C48.419,17.209 47.556,17.404 47.035,17.404C44.106,17.404 41.599,14.735 39.516,9.396L41.909,7.98C43.243,9.803 44.675,10.714 46.205,10.714C47.605,10.714 50.681,10.08 55.434,8.81C65.818,0.347 77.309,-10.184 89.907,-22.782L89.711,-23.075C77.732,-20.536 69.073,-18.436 63.735,-16.776C62.237,-16.32 61.261,-16.092 60.805,-16.092C59.275,-16.092 57.761,-17.183 56.264,-19.364C54.929,-21.284 54.083,-23.449 53.725,-25.858L56.313,-26.883C57.647,-23.954 59.389,-22.489 61.537,-22.489C62.319,-22.489 64.044,-22.651 66.713,-22.977C68.829,-23.27 74.835,-24.263 84.731,-25.955C86.879,-26.314 88.67,-26.948 90.102,-27.86C90.688,-28.25 91.29,-28.446 91.909,-28.446C92.69,-28.446 94.122,-27.42 96.205,-25.37C97.67,-23.807 98.403,-22.505 98.403,-21.463C98.403,-20.324 97.638,-19.526 96.108,-19.071C94.448,-18.582 92.055,-16.987 88.93,-14.286C80.369,-6.799 71.157,0.623 61.293,7.98Z" style="fill-rule:nonzero;"/>
    </g>
</svg>
