<?xml version="1.0" encoding="UTF-8" standalone="no"?>
<!DOCTYPE svg PUBLIC "-//W3C//DTD SVG 1.1//EN" "http://www.w3.org/Graphics/SVG/1.1/DTD/svg11.dtd">
<svg width="100%" height="100%" viewBox="0 0 100 100" version="1.1" xmlns="http://www.w3.org/2000/svg" xmlns:xlink="http://www.w3.org/1999/xlink" xml:space="preserve" style="fill-rule:evenodd;clip-rule:evenodd;stroke-linejoin:round;stroke-miterlimit:1.41421;">
    <g transform="matrix(1,0,0,1,-28.8535,39.8509)">
        <path d="M78.725,-10.965C79.669,-15.881 80.141,-19.787 80.141,-22.684C80.141,-24.084 79.734,-25.207 78.92,-26.053C78.237,-26.737 77.081,-27.42 75.453,-28.104L76.332,-30.887C83.461,-29.911 87.026,-27.437 87.026,-23.465C87.026,-21.707 86.261,-17.687 84.731,-11.405C85.252,-11.47 86.391,-11.502 88.149,-11.502C97.068,-11.502 104.343,-8.768 109.975,-3.299C115.216,1.746 117.836,8.24 117.836,16.183C117.836,27.446 113.198,35.893 103.92,41.525C96.987,45.724 87.726,48.182 76.137,48.898L75.649,46.017C87.563,43.869 96.319,40.483 101.918,35.861C108.006,30.848 111.049,23.996 111.049,15.304C111.049,7.85 108.331,1.925 102.895,-2.469C98.533,-5.952 93.438,-7.694 87.612,-7.694C85.951,-7.694 84.698,-7.694 83.852,-7.694C80.694,4.709 76.056,15.548 69.936,24.826L73.012,27.804C75.226,29.953 76.332,31.418 76.332,32.199C76.332,33.078 76.104,33.835 75.649,34.469C75.193,35.104 74.656,35.421 74.037,35.421C72.345,35.421 69.806,33.452 66.42,29.513C63.067,33.42 59.747,36.496 56.459,38.742C53.399,40.793 50.763,41.818 48.549,41.818C45.131,41.818 42.527,40.109 40.737,36.691C39.467,34.25 38.832,31.466 38.832,28.341C38.832,22.873 40.444,17.388 43.666,11.886C46.27,7.524 49.558,3.667 53.53,0.314C52.846,-5.741 52.13,-10.151 51.381,-12.918C50.6,-15.881 49.444,-18.468 47.914,-20.682L50.356,-22.293C52.732,-20.177 54.506,-17.215 55.678,-13.407C56.362,-11.161 57.078,-7.612 57.826,-2.762C64.435,-6.961 71.401,-9.696 78.725,-10.965ZM77.944,-6.961C70.489,-5.204 64.011,-2.241 58.51,1.925C60.138,9.152 62.986,15.548 67.055,21.115C72.231,11.87 75.86,2.511 77.944,-6.961ZM63.637,25.607C59.373,19.813 56.345,12.977 54.555,5.099C50.551,9.787 47.849,13.872 46.45,17.355C45.18,20.513 44.545,24.126 44.545,28.195C44.545,33.729 46.205,36.496 49.526,36.496C52.813,36.496 57.517,32.866 63.637,25.607Z" style="fill-rule:nonzero;"/>
    </g>
</svg>
