<?xml version="1.0" encoding="UTF-8" standalone="no"?>
<!DOCTYPE svg PUBLIC "-//W3C//DTD SVG 1.1//EN" "http://www.w3.org/Graphics/SVG/1.1/DTD/svg11.dtd">
<svg width="100%" height="100%" viewBox="0 0 100 100" version="1.1" xmlns="http://www.w3.org/2000/svg" xmlns:xlink="http://www.w3.org/1999/xlink" xml:space="preserve" style="fill-rule:evenodd;clip-rule:evenodd;stroke-linejoin:round;stroke-miterlimit:1.41421;">
    <g transform="matrix(1,0,0,1,-28.8535,39.8509)">
        <path d="M38.051,11.105C40.102,13.644 41.795,14.914 43.129,14.914C43.91,14.914 44.822,14.344 45.864,13.205C46.547,12.456 49.884,8.712 55.873,1.974C59.91,-2.551 63.23,-6.213 65.834,-9.012C67.364,-10.607 69.041,-11.405 70.864,-11.405C72.687,-11.405 75.616,-9.338 79.653,-5.204C85.74,0.884 92.983,7.117 101.381,13.498C107.534,18.315 112.221,21.554 115.444,23.214C119.122,25.168 120.961,27.332 120.961,29.709C120.961,32.248 120.099,33.517 118.373,33.517C116.843,33.517 114.435,32.41 111.147,30.197C107.371,27.593 101.772,22.856 94.35,15.988C87.384,9.836 80.857,3.374 74.77,-3.397C73.012,-5.35 71.71,-6.327 70.864,-6.327C70.213,-6.327 69.106,-5.399 67.543,-3.543C62.563,2.088 57.371,8.81 51.967,16.623C51.544,17.209 50.877,18.201 49.965,19.601C49.444,20.382 49.07,20.92 48.842,21.212C47.768,22.808 46.808,23.605 45.961,23.605C44.496,23.605 42.739,22.482 40.688,20.236C38.8,18.12 37.319,15.646 36.244,12.814L38.051,11.105Z" style="fill-rule:nonzero;"/>
    </g>
</svg>
