<?xml version="1.0" encoding="UTF-8" standalone="no"?>
<!DOCTYPE svg PUBLIC "-//W3C//DTD SVG 1.1//EN" "http://www.w3.org/Graphics/SVG/1.1/DTD/svg11.dtd">
<svg width="100%" height="100%" viewBox="0 0 100 100" version="1.1" xmlns="http://www.w3.org/2000/svg" xmlns:xlink="http://www.w3.org/1999/xlink" xml:space="preserve" style="fill-rule:evenodd;clip-rule:evenodd;stroke-linejoin:round;stroke-miterlimit:1.41421;">
    <g transform="matrix(1,0,0,1,-28.8535,39.8509)">
        <path d="M71.547,11.447C65.46,22.449 60.675,29.936 57.192,33.908C53.611,37.977 50.128,40.011 46.742,40.011C43.943,40.011 41.762,38.953 40.2,36.837C38.897,35.112 38.246,32.98 38.246,30.441C38.246,26.372 39.304,22.645 41.42,19.259C43.373,16.134 46.043,13.595 49.428,11.642C54.734,8.647 60.903,7.15 67.934,7.15C71.352,0.021 75.063,-9.386 79.067,-21.073C76.56,-20.389 73.045,-19.494 68.52,-18.387C64.907,-17.476 62.286,-16.792 60.659,-16.336C59.552,-16.011 58.722,-15.848 58.168,-15.848C54.588,-15.848 52.439,-18.957 51.723,-25.174L54.457,-25.858C55.597,-22.928 57.322,-21.463 59.633,-21.463C62.888,-21.463 67.966,-22.293 74.867,-23.954C77.146,-24.409 78.709,-24.914 79.555,-25.467C80.466,-26.053 81.166,-26.346 81.655,-26.346C82.468,-26.346 83.51,-25.711 84.78,-24.442C86.505,-22.944 87.367,-21.545 87.367,-20.243C87.367,-19.624 87.026,-19.087 86.342,-18.631C85.333,-18.045 84.405,-16.825 83.559,-14.969C78.22,-3.153 74.786,4.383 73.256,7.638C82.143,8.94 91.371,11.87 100.942,16.427C101.886,11.87 102.358,7.736 102.358,4.025C102.358,2.17 101.983,0.754 101.235,-0.223C100.453,-1.232 99.151,-1.981 97.328,-2.469L98.159,-5.35C101.121,-5.22 103.79,-4.487 106.166,-3.153C107.761,-2.209 108.559,-0.418 108.559,2.218C108.559,7.264 107.761,12.863 106.166,19.015C112.058,22.173 116.697,25.054 120.082,27.658C122.068,29.416 123.061,31.239 123.061,33.127C123.061,35.34 122.019,36.447 119.936,36.447C119.22,36.447 117.853,35.552 115.834,33.761C112.612,30.832 108.754,27.853 104.262,24.826C99.151,37.977 89.418,46.847 75.063,51.437L73.842,48.849C86.537,43.348 95.001,34.412 99.233,22.043C90.313,16.509 81.085,12.977 71.547,11.447ZM66.03,11.154C60.366,11.154 55.629,12.342 51.821,14.718C46.026,18.592 43.129,23.491 43.129,29.416C43.129,33.094 44.627,34.933 47.621,34.933C51.593,34.933 57.729,27.007 66.03,11.154Z" style="fill-rule:nonzero;"/>
    </g>
</svg>
