<?xml version="1.0" encoding="UTF-8" standalone="no"?>
<!DOCTYPE svg PUBLIC "-//W3C//DTD SVG 1.1//EN" "http://www.w3.org/Graphics/SVG/1.1/DTD/svg11.dtd">
<svg width="100%" height="100%" viewBox="0 0 100 100" version="1.1" xmlns="http://www.w3.org/2000/svg" xmlns:xlink="http://www.w3.org/1999/xlink" xml:space="preserve" style="fill-rule:evenodd;clip-rule:evenodd;stroke-linejoin:round;stroke-miterlimit:1.41421;">
    <g transform="matrix(1,0,0,1,-28.8535,39.8509)">
        <path d="M50.405,35.91C57.241,22.27 63.067,9.38 67.885,-2.762C71.563,-12.105 73.403,-17.671 73.403,-19.461C73.403,-21.707 72.003,-23.579 69.203,-25.077L70.815,-27.664C78.399,-24.898 82.192,-22.131 82.192,-19.364C82.192,-18.387 81.687,-17.02 80.678,-15.262C80.157,-14.351 79.181,-12.332 77.748,-9.207C76.153,-5.822 74.933,-3.283 74.086,-1.59C68.259,10.324 61.928,22.661 55.092,35.421C65.574,33.989 81.345,31.222 102.407,27.121C99.542,21.392 95.147,15.19 89.223,8.517L91.518,6.613C98.321,11.984 103.888,17.99 108.217,24.63C112.416,30.946 114.516,35.975 114.516,39.718C114.516,43.332 113.214,45.138 110.61,45.138C108.982,45.138 107.908,44.097 107.387,42.013C106.248,36.935 105.06,32.996 103.823,30.197C90.118,33.81 75.112,37.391 58.803,40.939C55.548,41.623 53.09,42.355 51.43,43.136C50.16,43.657 49.119,43.918 48.305,43.918C45.798,43.918 42.999,40.711 39.907,34.298L42.201,32.736C43.764,34.982 45.701,36.105 48.012,36.105C48.728,36.105 49.526,36.04 50.405,35.91Z" style="fill-rule:nonzero;"/>
    </g>
</svg>
