<?xml version="1.0" encoding="UTF-8" standalone="no"?>
<!DOCTYPE svg PUBLIC "-//W3C//DTD SVG 1.1//EN" "http://www.w3.org/Graphics/SVG/1.1/DTD/svg11.dtd">
<svg width="100%" height="100%" viewBox="0 0 100 100" version="1.1" xmlns="http://www.w3.org/2000/svg" xmlns:xlink="http://www.w3.org/1999/xlink" xml:space="preserve" style="fill-rule:evenodd;clip-rule:evenodd;stroke-linejoin:round;stroke-miterlimit:1.41421;">
    <g transform="matrix(1,0,0,1,-28.8535,39.8509)">
        <path d="M39.125,11.203C41.274,13.221 42.739,14.23 43.52,14.23C44.627,14.23 46.726,12.505 49.819,9.054C56.036,1.893 61.472,-4.015 66.127,-8.67C67.853,-10.396 69.513,-11.258 71.108,-11.258C72.833,-11.258 75.665,-9.419 79.604,-5.741C93.569,6.824 105.613,16.037 115.737,21.896C118.797,23.589 120.326,25.688 120.326,28.195C120.326,29.464 119.985,30.457 119.301,31.173C118.715,31.792 118.015,32.101 117.201,32.101C115.802,32.101 112.237,29.839 106.508,25.314C97.328,17.99 86.57,8.159 74.233,-4.178C72.963,-5.448 72.019,-6.082 71.401,-6.082C70.489,-6.082 68.992,-4.845 66.909,-2.371C59.812,6.19 55.173,11.886 52.992,14.718C51.951,16.118 50.551,18.185 48.793,20.92C48.142,21.929 47.28,22.433 46.205,22.433C45.164,22.433 43.731,21.473 41.909,19.552C40.183,17.664 38.751,15.483 37.612,13.009L39.125,11.203Z" style="fill-rule:nonzero;"/>
    </g>
</svg>
