<?xml version="1.0" encoding="UTF-8" standalone="no"?>
<!DOCTYPE svg PUBLIC "-//W3C//DTD SVG 1.1//EN" "http://www.w3.org/Graphics/SVG/1.1/DTD/svg11.dtd">
<svg width="100%" height="100%" viewBox="0 0 100 100" version="1.1" xmlns="http://www.w3.org/2000/svg" xmlns:xlink="http://www.w3.org/1999/xlink" xml:space="preserve" style="fill-rule:evenodd;clip-rule:evenodd;stroke-linejoin:round;stroke-miterlimit:1.41421;">
    <g transform="matrix(1,0,0,1,-28.8535,39.8509)">
        <path d="M83.852,12.228C96.612,17.567 105.873,23.166 111.635,29.025C114.63,31.922 116.127,34.396 116.127,36.447C116.127,39.637 114.923,41.232 112.514,41.232C111.537,41.232 110.512,40.402 109.438,38.742C103.058,29.367 93.894,21.392 81.948,14.816C75.925,21.88 69.464,27.788 62.563,32.541C56.085,37 48.614,40.89 40.151,44.211L39.028,41.427C53.22,33.973 64.597,25.477 73.159,15.939C81.101,7.052 87.498,-3.657 92.348,-16.19C80.076,-14.562 70.766,-13.26 64.418,-12.284C62.758,-11.991 61.635,-11.714 61.049,-11.454C60.138,-11.128 59.194,-10.965 58.217,-10.965C57.143,-10.965 55.759,-12.023 54.067,-14.139C52.569,-15.995 51.397,-17.996 50.551,-20.145L52.944,-21.561C54.409,-19.901 55.58,-18.843 56.459,-18.387C57.501,-17.834 58.852,-17.557 60.512,-17.557C67.673,-17.557 77.341,-18.322 89.516,-19.852C91.046,-20.047 92.413,-20.552 93.617,-21.366C94.627,-21.952 95.326,-22.245 95.717,-22.245C96.368,-22.245 97.605,-21.349 99.428,-19.559C101.218,-17.736 102.114,-16.401 102.114,-15.555C102.114,-14.806 101.674,-14.237 100.795,-13.846C99.428,-13.228 98.24,-11.893 97.231,-9.842C93.129,-1.509 88.67,5.848 83.852,12.228Z" style="fill-rule:nonzero;"/>
    </g>
</svg>
