<?xml version="1.0" encoding="UTF-8" standalone="no"?>
<!DOCTYPE svg PUBLIC "-//W3C//DTD SVG 1.1//EN" "http://www.w3.org/Graphics/SVG/1.1/DTD/svg11.dtd">
<svg width="100%" height="100%" viewBox="0 0 100 100" version="1.1" xmlns="http://www.w3.org/2000/svg" xmlns:xlink="http://www.w3.org/1999/xlink" xml:space="preserve" style="fill-rule:evenodd;clip-rule:evenodd;stroke-linejoin:round;stroke-miterlimit:1.41421;">
    <g transform="matrix(1,0,0,1,-28.8535,39.8509)">
        <path d="M57.143,-17.459C69.09,-18.013 82.843,-18.973 98.403,-20.34C100.03,-20.503 101.56,-21.284 102.992,-22.684C103.741,-23.4 104.376,-23.758 104.897,-23.758C105.906,-23.758 107.338,-22.83 109.194,-20.975C111.407,-18.696 112.514,-16.955 112.514,-15.75C112.514,-15.295 112.042,-14.692 111.098,-13.944C109.894,-13.097 108.966,-11.437 108.315,-8.963C104.571,6.401 98.858,18.755 91.176,28.097C84.34,36.398 75.063,43.511 63.344,49.435L61.733,47.043C85.561,32.622 99.086,11.691 102.309,-15.75C90.916,-15.164 75.958,-14.172 57.436,-12.772C57.436,-5.448 57.566,0.916 57.826,6.32C57.892,7.134 57.924,8.306 57.924,9.836C57.924,13.709 56.622,15.646 54.018,15.646C52.162,15.646 51.235,14.409 51.235,11.935C51.235,11.61 51.3,10.454 51.43,8.468C51.56,4.92 51.625,-0.483 51.625,-7.743C51.625,-12.495 51.088,-15.441 50.014,-16.58C48.842,-17.915 47.28,-19.038 45.326,-19.95L46.303,-22.586C49.07,-22.098 51.511,-21.317 53.627,-20.243C55.385,-19.331 56.557,-18.403 57.143,-17.459Z" style="fill-rule:nonzero;"/>
    </g>
</svg>
