<?xml version="1.0" encoding="UTF-8" standalone="no"?>
<!DOCTYPE svg PUBLIC "-//W3C//DTD SVG 1.1//EN" "http://www.w3.org/Graphics/SVG/1.1/DTD/svg11.dtd">
<svg width="100%" height="100%" viewBox="0 0 100 100" version="1.1" xmlns="http://www.w3.org/2000/svg" xmlns:xlink="http://www.w3.org/1999/xlink" xml:space="preserve" style="fill-rule:evenodd;clip-rule:evenodd;stroke-linejoin:round;stroke-miterlimit:1.41421;">
    <g transform="matrix(1,0,0,1,-28.8535,39.8509)">
        <path d="M91.518,-5.887C90.834,8.533 87.693,20.171 82.094,29.025C76.886,37.326 68.52,43.918 56.996,48.8L55.287,46.408C66.909,40.288 74.916,32.02 79.311,21.603C82.566,13.726 84.324,4.757 84.584,-5.301C81.72,-5.106 77.276,-4.813 71.254,-4.422C67.088,-4.129 63.832,-3.918 61.489,-3.788C56.866,3.602 50.372,10.47 42.006,16.818L39.907,14.621C49.347,5.701 56.378,-4.227 61,-15.164C62.335,-18.387 63.002,-20.894 63.002,-22.684C63.002,-24.474 61.407,-26.037 58.217,-27.371L59.096,-29.862C66.909,-28.788 70.815,-26.46 70.815,-22.879C70.815,-21.935 70.147,-20.194 68.813,-17.655C68.65,-17.329 67.804,-15.75 66.274,-12.918C65.33,-11.193 64.467,-9.582 63.686,-8.084C83.38,-9.419 96.108,-10.444 101.869,-11.161C103.627,-11.258 105.401,-11.763 107.192,-12.674C108.201,-13.13 109.096,-13.358 109.877,-13.358C111.244,-13.358 113.019,-12.788 115.2,-11.649C117.055,-10.672 117.983,-9.549 117.983,-8.28C117.983,-6.685 117.185,-5.887 115.59,-5.887C114.581,-5.887 113.816,-5.92 113.295,-5.985C107.794,-6.571 100.535,-6.538 91.518,-5.887Z" style="fill-rule:nonzero;"/>
    </g>
</svg>
