<?xml version="1.0" encoding="UTF-8" standalone="no"?>
<!DOCTYPE svg PUBLIC "-//W3C//DTD SVG 1.1//EN" "http://www.w3.org/Graphics/SVG/1.1/DTD/svg11.dtd">
<svg width="100%" height="100%" viewBox="0 0 100 100" version="1.1" xmlns="http://www.w3.org/2000/svg" xmlns:xlink="http://www.w3.org/1999/xlink" xml:space="preserve" style="fill-rule:evenodd;clip-rule:evenodd;stroke-linejoin:round;stroke-miterlimit:1.41421;">
    <g transform="matrix(1,0,0,1,-28.8535,39.8509)">
        <path d="M77.114,-5.399C77.114,-8.719 77.048,-12.593 76.918,-17.02C76.788,-19.787 76.414,-21.642 75.795,-22.586C74.819,-24.214 72.752,-25.451 69.594,-26.297L70.424,-28.983C74.884,-28.885 78.351,-28.364 80.825,-27.42C82.615,-26.672 83.51,-25.532 83.51,-24.002C83.51,-23.416 83.412,-22.505 83.217,-21.268C83.054,-20.129 82.957,-19.38 82.924,-19.022C82.566,-15.571 82.387,-11.193 82.387,-5.887C88.963,-6.408 94.513,-6.913 99.037,-7.401C100.86,-7.596 102.618,-8.003 104.311,-8.621C105.548,-9.142 106.59,-9.403 107.436,-9.403C110.366,-9.403 112.612,-8.882 114.174,-7.84C115.476,-7.026 116.127,-5.985 116.127,-4.715C116.127,-3.12 114.923,-2.323 112.514,-2.323L99.819,-2.713C96.563,-2.713 90.753,-2.437 82.387,-1.883C82.387,8.24 82.566,19.097 82.924,30.685C82.957,31.597 83.038,32.964 83.168,34.787C83.266,36.056 83.315,36.968 83.315,37.521C83.315,41.623 82.81,44.52 81.801,46.212C80.89,47.742 79.767,48.507 78.432,48.507C77.358,48.507 76.479,47.515 75.795,45.529C75.112,43.543 74.314,42.209 73.403,41.525C70.278,39.149 66.241,36.772 61.293,34.396L62.026,32.101C67.592,33.892 72.654,35.324 77.211,36.398C77.276,32.231 77.309,25.168 77.309,15.207C77.309,10.421 77.276,4.855 77.211,-1.493C70.864,-0.874 64.63,-0.174 58.51,0.607C56.557,0.835 55.06,1.112 54.018,1.437C52.879,1.763 52.114,1.925 51.723,1.925C50.193,1.925 48.517,1.112 46.694,-0.516C45.034,-1.981 43.569,-3.869 42.299,-6.18L44.399,-7.791C47.459,-5.122 50.421,-3.788 53.285,-3.788C55.532,-3.788 63.474,-4.325 77.114,-5.399ZM56.313,10.812L59.389,11.398C58.25,21.033 55.385,28.732 50.795,34.494C48.679,37.098 46.71,38.4 44.887,38.4C42.901,38.4 41.909,36.87 41.909,33.81C41.909,31.987 43.08,30.213 45.424,28.488C51.153,24.289 54.783,18.397 56.313,10.812ZM98.793,8.322C104.848,12.163 109.649,16.558 113.198,21.505C115.867,25.216 117.201,28.634 117.201,31.759C117.201,35.08 115.834,36.74 113.1,36.74C111.31,36.74 110.138,35.568 109.584,33.224C107.468,23.947 103.172,16.346 96.694,10.421L98.793,8.322Z" style="fill-rule:nonzero;"/>
    </g>
</svg>
