<?xml version="1.0" encoding="UTF-8" standalone="no"?>
<!DOCTYPE svg PUBLIC "-//W3C//DTD SVG 1.1//EN" "http://www.w3.org/Graphics/SVG/1.1/DTD/svg11.dtd">
<svg width="100%" height="100%" viewBox="0 0 100 100" version="1.1" xmlns="http://www.w3.org/2000/svg" xmlns:xlink="http://www.w3.org/1999/xlink" xml:space="preserve" style="fill-rule:evenodd;clip-rule:evenodd;stroke-linejoin:round;stroke-miterlimit:1.41421;">
    <g transform="matrix(1,0,0,1,-28.8535,39.8509)">
        <path d="M75.356,-6.766C76.723,-13.635 77.407,-18.778 77.407,-22.196C77.407,-23.726 76.837,-24.963 75.698,-25.907C75.014,-26.493 73.696,-27.225 71.742,-28.104L72.768,-30.789C76.674,-30.366 79.799,-29.406 82.143,-27.909C83.998,-26.737 84.926,-25.532 84.926,-24.295C84.926,-23.774 84.763,-22.944 84.438,-21.805C83.917,-19.787 83.412,-17.541 82.924,-15.067C82.403,-12.365 81.882,-9.777 81.362,-7.303C91.29,-8.28 97.947,-8.98 101.332,-9.403C102.7,-9.566 103.725,-9.989 104.409,-10.672C105.287,-11.551 105.955,-11.991 106.41,-11.991C107.582,-11.991 109.226,-10.998 111.342,-9.012C113.263,-7.059 114.223,-5.545 114.223,-4.471C114.223,-3.69 113.621,-2.86 112.416,-1.981C111.407,-1.395 110.772,-0.304 110.512,1.291C109.275,10.47 107.452,18.82 105.043,26.339C102.927,33.045 100.616,38.172 98.11,41.72C95.961,44.976 93.731,46.603 91.42,46.603C89.695,46.603 88.832,45.773 88.832,44.113C88.832,43.429 88.36,42.323 87.416,40.793C86.212,38.872 83.38,35.975 78.92,32.101L80.629,29.513C83.201,31.401 86.31,33.533 89.955,35.91C91.355,36.854 92.478,37.326 93.325,37.326C93.976,37.326 94.578,36.756 95.131,35.617C100.535,24.842 103.937,11.203 105.336,-5.301C99.477,-4.976 91.176,-4.243 80.434,-3.104C77.667,7.768 73.777,17.111 68.764,24.923C62.905,33.94 54.067,41.606 42.25,47.921L40.444,45.529C57.826,34.233 69.122,18.234 74.33,-2.469C68.927,-1.72 64.337,-1.086 60.561,-0.565C58.38,-0.337 56.915,0.005 56.166,0.461C55.19,0.981 54.116,1.242 52.944,1.242C51.739,1.242 50.274,0.2 48.549,-1.883C47.019,-3.706 45.685,-5.903 44.545,-8.475L46.84,-10.086C48.858,-8.036 50.502,-6.75 51.772,-6.229C52.944,-5.773 54.669,-5.545 56.948,-5.545C61.114,-5.545 67.25,-5.952 75.356,-6.766Z" style="fill-rule:nonzero;"/>
    </g>
</svg>
