<?xml version="1.0" encoding="UTF-8" standalone="no"?>
<!DOCTYPE svg PUBLIC "-//W3C//DTD SVG 1.1//EN" "http://www.w3.org/Graphics/SVG/1.1/DTD/svg11.dtd">
<svg width="100%" height="100%" viewBox="0 0 100 100" version="1.1" xmlns="http://www.w3.org/2000/svg" xmlns:xlink="http://www.w3.org/1999/xlink" xml:space="preserve" style="fill-rule:evenodd;clip-rule:evenodd;stroke-linejoin:round;stroke-miterlimit:1.41421;">
    <g transform="matrix(1,0,0,1,-28.8535,39.8509)">
        <path d="M74.135,-7.791C72.28,-16.58 70.847,-21.805 69.838,-23.465C68.797,-25.353 66.323,-26.265 62.416,-26.2L62.221,-29.178C64.923,-29.634 67.429,-29.862 69.741,-29.862C74.265,-29.862 76.593,-28.429 76.723,-25.565C76.886,-21.593 77.618,-16.027 78.92,-8.866C84.519,-10.038 89.353,-11.274 93.422,-12.577C94.106,-12.837 95.001,-13.358 96.108,-14.139C97.28,-14.953 98.386,-15.36 99.428,-15.36C101.642,-15.36 103.383,-15.23 104.653,-14.969C106.378,-14.546 107.241,-13.683 107.241,-12.381C107.241,-10.851 105.841,-9.842 103.041,-9.354C96.498,-8.377 88.718,-6.847 79.701,-4.764C80.776,0.672 82.013,6.466 83.412,12.619C86.668,11.935 92.478,10.633 100.844,8.712C103.448,8.061 105.336,7.329 106.508,6.515C107.875,5.571 109.08,5.099 110.121,5.099C111.912,5.099 113.816,5.425 115.834,6.076C117.429,6.597 118.227,7.671 118.227,9.298C118.227,10.828 116.453,11.74 112.905,12.033C105.743,12.586 96.173,14.051 84.194,16.427C87.384,28.504 89.597,36.707 90.834,41.037C91.55,43.478 91.909,45.578 91.909,47.336C91.909,50.135 90.672,51.535 88.198,51.535C86.244,51.535 84.877,49.093 84.096,44.211C83.054,37.44 81.459,28.504 79.311,17.404C75.6,18.25 67.739,20.513 55.727,24.191C54.62,24.517 53.823,24.826 53.334,25.119C52.879,25.379 52.374,25.509 51.821,25.509C48.338,25.509 44.903,22.954 41.518,17.843L43.617,16.037C46.319,18.087 48.679,19.113 50.698,19.113C52.325,19.113 54.295,18.885 56.606,18.429C63.279,17.03 70.587,15.418 78.53,13.595C77.228,6.824 76.056,1.03 75.014,-3.788C67.267,-2.127 61.765,-0.825 58.51,0.119C56.752,0.672 55.694,1.046 55.336,1.242C54.262,1.698 53.188,1.925 52.114,1.925C51.072,1.925 49.688,1.291 47.963,0.021C46.401,-1.086 44.92,-2.485 43.52,-4.178L45.326,-6.278C47.442,-4.748 49.575,-3.983 51.723,-3.983C53.253,-3.983 55.418,-4.211 58.217,-4.666C63.263,-5.545 68.569,-6.587 74.135,-7.791Z" style="fill-rule:nonzero;"/>
    </g>
</svg>
