<?xml version="1.0" encoding="UTF-8" standalone="no"?>
<!DOCTYPE svg PUBLIC "-//W3C//DTD SVG 1.1//EN" "http://www.w3.org/Graphics/SVG/1.1/DTD/svg11.dtd">
<svg width="100%" height="100%" viewBox="0 0 100 100" version="1.1" xmlns="http://www.w3.org/2000/svg" xmlns:xlink="http://www.w3.org/1999/xlink" xml:space="preserve" style="fill-rule:evenodd;clip-rule:evenodd;stroke-linejoin:round;stroke-miterlimit:1.41421;">
    <g transform="matrix(1,0,0,1,-28.8535,39.8509)">
        <path d="M81.996,23.019C85.252,25.884 87.791,28.716 89.614,31.515C91.013,33.664 91.713,35.324 91.713,36.496C91.713,39.816 90.606,41.476 88.393,41.476C87.221,41.476 85.659,39.816 83.705,36.496C80.515,31.092 76.788,26.356 72.524,22.287C68.683,18.576 63.767,14.783 57.778,10.91L59.389,8.517C67.625,12.456 74.298,16.476 79.409,20.578C88.328,12.375 97.084,2.283 105.678,-9.696C88.295,-8.329 71.629,-6.603 55.678,-4.52C54.474,-4.39 53.416,-4.146 52.504,-3.788C51.104,-3.332 50.177,-3.104 49.721,-3.104C48.289,-3.104 46.629,-4.097 44.741,-6.082C43.08,-7.873 41.567,-10.151 40.2,-12.918L42.299,-14.481C44.545,-12.593 46.336,-11.388 47.67,-10.868C48.907,-10.347 50.453,-10.086 52.309,-10.086C56.931,-10.086 64.76,-10.526 75.795,-11.405C86.765,-12.251 95.066,-12.886 100.698,-13.309C103.595,-13.472 105.792,-14.139 107.289,-15.311C108.364,-16.027 109.096,-16.385 109.487,-16.385C110.431,-16.385 111.912,-15.392 113.93,-13.407C115.916,-11.388 116.909,-9.907 116.909,-8.963C116.909,-7.922 116.176,-7.124 114.711,-6.571C112.921,-5.887 110.984,-4.422 108.901,-2.176C100.079,7.394 91.111,15.793 81.996,23.019Z" style="fill-rule:nonzero;"/>
    </g>
</svg>
