<?xml version="1.0" encoding="UTF-8" standalone="no"?>
<!DOCTYPE svg PUBLIC "-//W3C//DTD SVG 1.1//EN" "http://www.w3.org/Graphics/SVG/1.1/DTD/svg11.dtd">
<svg width="100%" height="100%" viewBox="0 0 100 100" version="1.1" xmlns="http://www.w3.org/2000/svg" xmlns:xlink="http://www.w3.org/1999/xlink" xml:space="preserve" style="fill-rule:evenodd;clip-rule:evenodd;stroke-linejoin:round;stroke-miterlimit:1.41421;">
    <g transform="matrix(1,0,0,1,-28.8535,39.8509)">
        <path d="M91.811,16.818C99.558,23.296 103.432,28.065 103.432,31.125C103.432,33.794 102.39,35.129 100.307,35.129C99.168,35.129 98.11,34.201 97.133,32.345C95.278,28.96 92.413,25.216 88.539,21.115C76.756,34.038 62.953,43.104 47.133,48.312L45.717,45.822C59.519,40.386 72.426,30.88 84.438,17.306C80.662,13.726 75.698,9.933 69.545,5.929L71.254,3.537C75.681,5.718 81.036,9.005 87.319,13.4C93.471,4.188 98.11,-4.845 101.235,-13.7L74.623,-11.063C67.136,0.102 57.875,9.396 46.84,16.818L45.131,14.523C53.757,7.557 61.131,-0.549 67.25,-9.793C71.84,-16.792 74.135,-21.447 74.135,-23.758C74.135,-25.223 72.605,-26.558 69.545,-27.762L70.912,-30.204C74.363,-29.813 77.146,-28.934 79.262,-27.567C80.987,-26.427 81.85,-25.239 81.85,-24.002C81.85,-23.221 80.141,-20.275 76.723,-15.164C80.336,-15.457 87.075,-16.206 96.938,-17.411C99.054,-17.638 100.584,-18.224 101.528,-19.168C102.276,-19.917 102.911,-20.291 103.432,-20.291C104.181,-20.291 105.58,-19.461 107.631,-17.801C109.291,-16.239 110.121,-15.067 110.121,-14.286C110.121,-13.602 109.617,-12.804 108.608,-11.893C107.664,-11.047 106.671,-9.484 105.629,-7.205C101.528,1.714 96.922,9.722 91.811,16.818Z" style="fill-rule:nonzero;"/>
    </g>
</svg>
