<?xml version="1.0" encoding="UTF-8" standalone="no"?>
<!DOCTYPE svg PUBLIC "-//W3C//DTD SVG 1.1//EN" "http://www.w3.org/Graphics/SVG/1.1/DTD/svg11.dtd">
<svg width="100%" height="100%" viewBox="0 0 100 100" version="1.1" xmlns="http://www.w3.org/2000/svg" xmlns:xlink="http://www.w3.org/1999/xlink" xml:space="preserve" style="fill-rule:evenodd;clip-rule:evenodd;stroke-linejoin:round;stroke-miterlimit:1.41421;">
    <g transform="matrix(1,0,0,1,-28.8535,39.8509)">
        <path d="M60.805,-24.051C66.827,-23.954 72.882,-23.368 78.969,-22.293C84.47,-21.349 89.044,-20.177 92.69,-18.778C96.759,-17.15 98.793,-14.823 98.793,-11.795C98.793,-9.582 97.687,-8.475 95.473,-8.475C95.05,-8.475 94.187,-8.914 92.885,-9.793C84.454,-15.099 73.5,-18.957 60.024,-21.366L60.805,-24.051ZM59.78,-1.786C71.14,-0.907 79.783,0.916 85.707,3.683C88.67,5.115 90.688,6.401 91.762,7.541C92.869,8.745 93.422,10.161 93.422,11.789C93.422,14.067 92.625,15.207 91.03,15.207C90.281,15.207 88.67,14.279 86.196,12.423C82.322,9.429 78.269,7.085 74.037,5.392C70.261,3.862 65.281,2.397 59.096,0.998L59.78,-1.786ZM53.285,23.117C70.31,24.907 84.259,29.009 95.131,35.421C99.916,38.188 102.309,41.053 102.309,44.015C102.309,46.554 101.202,47.824 98.989,47.824C98.24,47.824 96.873,46.994 94.887,45.334C83.819,35.698 69.724,29.22 52.602,25.9L53.285,23.117Z" style="fill-rule:nonzero;"/>
    </g>
</svg>
