<?xml version="1.0" encoding="UTF-8" standalone="no"?>
<!DOCTYPE svg PUBLIC "-//W3C//DTD SVG 1.1//EN" "http://www.w3.org/Graphics/SVG/1.1/DTD/svg11.dtd">
<svg width="100%" height="100%" viewBox="0 0 100 100" version="1.1" xmlns="http://www.w3.org/2000/svg" xmlns:xlink="http://www.w3.org/1999/xlink" xml:space="preserve" style="fill-rule:evenodd;clip-rule:evenodd;stroke-linejoin:round;stroke-miterlimit:1.41421;">
    <g transform="matrix(1,0,0,1,-28.8535,39.8509)">
        <path d="M103.09,28.341C104.522,28.96 105.645,29.741 106.459,30.685C107.013,31.336 107.289,31.922 107.289,32.443C107.289,33.354 106.817,33.957 105.873,34.25C105.222,34.445 104.067,34.543 102.407,34.543C89.548,34.445 75.144,34.901 59.194,35.91C59.194,39.035 58.95,41.134 58.461,42.209C57.973,43.283 57.127,43.82 55.922,43.82C53.969,43.82 52.927,42.046 52.797,38.498C52.602,33.061 52.211,24.061 51.625,11.496C51.137,0.949 50.6,-5.806 50.014,-8.768C49.493,-11.047 47.556,-13.39 44.203,-15.799L45.815,-18.289C50.86,-16.141 54.653,-13.797 57.192,-11.258C60.284,-11.421 67.104,-11.812 77.651,-12.43C84.454,-12.821 89.874,-13.097 93.91,-13.26C96.938,-13.423 99.103,-13.993 100.405,-14.969C101.772,-15.978 102.781,-16.483 103.432,-16.483C104.278,-16.483 105.678,-15.653 107.631,-13.993C109.682,-12.202 110.707,-10.705 110.707,-9.5C110.707,-8.784 110.105,-7.938 108.901,-6.961C107.989,-6.213 107.387,-4.927 107.094,-3.104C105.629,7.996 104.295,18.478 103.09,28.341ZM97.28,29.318C98.875,13.14 99.949,0.233 100.502,-9.403C82.761,-8.459 68.194,-7.547 56.801,-6.668C57.42,5.799 58.087,18.429 58.803,31.222C76.707,30.083 89.532,29.448 97.28,29.318Z" style="fill-rule:nonzero;"/>
    </g>
</svg>
