<?xml version="1.0" encoding="UTF-8" standalone="no"?>
<!DOCTYPE svg PUBLIC "-//W3C//DTD SVG 1.1//EN" "http://www.w3.org/Graphics/SVG/1.1/DTD/svg11.dtd">
<svg width="100%" height="100%" viewBox="0 0 100 100" version="1.1" xmlns="http://www.w3.org/2000/svg" xmlns:xlink="http://www.w3.org/1999/xlink" xml:space="preserve" style="fill-rule:evenodd;clip-rule:evenodd;stroke-linejoin:round;stroke-miterlimit:1.41421;">
    <g transform="matrix(1,0,0,1,-28.8535,39.8509)">
        <path d="M81.508,-7.889L81.41,28C85.154,27.837 89.923,27.609 95.717,27.316C99.33,27.153 101.593,27.056 102.504,27.023C104.75,26.925 106.508,26.584 107.778,25.998C108.852,25.542 109.682,25.314 110.268,25.314C112.481,25.314 114.955,26.112 117.69,27.707C119.09,28.586 119.789,29.627 119.789,30.832C119.789,32.362 118.927,33.127 117.201,33.127C116.583,33.127 116.078,33.094 115.688,33.029C109.112,32.41 103.285,32.101 98.207,32.101C84.08,32.101 69.61,32.964 54.799,34.689C52.618,34.949 51.056,35.291 50.112,35.714C49.103,36.105 48.142,36.3 47.231,36.3C45.636,36.3 43.894,35.389 42.006,33.566C40.313,31.906 38.849,29.823 37.612,27.316L39.711,25.412C41.697,27.202 43.569,28.374 45.326,28.927C46.922,29.448 49.086,29.709 51.821,29.709C55.759,29.709 63.653,29.204 75.502,28.195L75.405,-7.157C73.419,-6.994 70.733,-6.75 67.348,-6.424C63.409,-6.034 61.196,-5.822 60.707,-5.789C60.414,-5.757 59.731,-5.692 58.657,-5.594C58.006,-5.529 57.517,-5.496 57.192,-5.496C54.946,-5.496 53.139,-6.099 51.772,-7.303C50.632,-8.312 49.249,-10.233 47.621,-13.065L49.916,-14.871C51.707,-13.211 53.367,-12.121 54.897,-11.6C56.231,-11.144 58.071,-10.916 60.414,-10.916C62.237,-10.916 66.013,-11.144 71.742,-11.6C74.216,-11.795 79.946,-12.365 88.93,-13.309C92.869,-13.83 95.701,-14.432 97.426,-15.116C99.249,-15.832 100.877,-16.19 102.309,-16.19C104.099,-16.19 105.792,-15.799 107.387,-15.018C109.08,-14.172 109.926,-13.097 109.926,-11.795C109.926,-10.786 109.552,-10.103 108.803,-9.745C108.217,-9.517 107.257,-9.403 105.922,-9.403C102.374,-9.403 98.744,-9.256 95.034,-8.963C94.252,-8.931 92.169,-8.768 88.784,-8.475C85.854,-8.215 83.429,-8.019 81.508,-7.889Z" style="fill-rule:nonzero;"/>
    </g>
</svg>
