<?xml version="1.0" encoding="UTF-8" standalone="no"?>
<!DOCTYPE svg PUBLIC "-//W3C//DTD SVG 1.1//EN" "http://www.w3.org/Graphics/SVG/1.1/DTD/svg11.dtd">
<svg width="100%" height="100%" viewBox="0 0 100 100" version="1.1" xmlns="http://www.w3.org/2000/svg" xmlns:xlink="http://www.w3.org/1999/xlink" xml:space="preserve" style="fill-rule:evenodd;clip-rule:evenodd;stroke-linejoin:round;stroke-miterlimit:1.41421;">
    <g transform="matrix(1,0,0,1,-28.8535,39.8509)">
        <path d="M82.826,10.812C82.826,22.303 83.071,32.362 83.559,40.988C83.591,41.867 83.64,43.12 83.705,44.748C83.738,45.561 83.754,46.278 83.754,46.896C83.754,50.64 82.42,52.511 79.75,52.511C77.667,52.511 76.625,51.177 76.625,48.507C76.625,47.824 76.756,45.35 77.016,41.086C77.504,31.19 77.748,22.531 77.748,15.109C65.151,24.451 52.488,31.743 39.76,36.984L38.442,34.396C63.995,20.789 81.801,6.857 91.86,-7.401C81.15,-5.968 72.442,-4.406 65.737,-2.713C63.816,-2.192 62.547,-1.818 61.928,-1.59C61.017,-1.33 60.252,-1.2 59.633,-1.2C57.257,-1.2 54.49,-3.999 51.332,-9.598L53.725,-11.112C55.222,-9.745 56.41,-8.849 57.289,-8.426C58.396,-7.873 59.715,-7.596 61.244,-7.596C65.444,-7.596 74.379,-8.638 88.051,-10.721C89.776,-10.982 90.997,-11.437 91.713,-12.088C92.527,-12.902 93.259,-13.309 93.91,-13.309C94.854,-13.309 95.961,-12.772 97.231,-11.698C100.095,-9.354 101.528,-7.564 101.528,-6.327C101.528,-5.317 100.893,-4.65 99.623,-4.325C98.028,-3.836 96.629,-2.99 95.424,-1.786C90.997,2.869 86.798,7.069 82.826,10.812ZM67.836,-32.498C74.314,-31.522 79.295,-30.073 82.778,-28.153C86.098,-26.297 87.758,-24.133 87.758,-21.659C87.758,-18.794 86.619,-17.362 84.34,-17.362C83.526,-17.362 82.566,-18.127 81.459,-19.657C78.237,-23.954 73.37,-27.388 66.86,-29.959L67.836,-32.498ZM90.444,11.74C98.614,14.279 104.685,17.127 108.657,20.285C111.977,22.921 113.637,25.607 113.637,28.341C113.637,31.336 112.595,32.834 110.512,32.834C109.373,32.834 108.022,31.629 106.459,29.22C102.586,23.524 96.84,18.494 89.223,14.132L90.444,11.74Z" style="fill-rule:nonzero;"/>
    </g>
</svg>
