<?xml version="1.0" encoding="UTF-8" standalone="no"?>
<!DOCTYPE svg PUBLIC "-//W3C//DTD SVG 1.1//EN" "http://www.w3.org/Graphics/SVG/1.1/DTD/svg11.dtd">
<svg width="100%" height="100%" viewBox="0 0 100 100" version="1.1" xmlns="http://www.w3.org/2000/svg" xmlns:xlink="http://www.w3.org/1999/xlink" xml:space="preserve" style="fill-rule:evenodd;clip-rule:evenodd;stroke-linejoin:round;stroke-miterlimit:1.41421;">
    <g transform="matrix(1,0,0,1,-28.8535,39.8509)">
        <path d="M64.809,2.707C64.679,-6.766 64.581,-12.332 64.516,-13.993C64.418,-16.987 64.256,-18.81 64.028,-19.461C63.507,-21.349 61.505,-22.717 58.022,-23.563L58.51,-26.493C62.807,-26.427 66.209,-25.809 68.715,-24.637C70.831,-23.628 71.889,-22.407 71.889,-20.975C71.889,-20.454 71.824,-19.787 71.694,-18.973C71.596,-18.192 71.498,-17.59 71.401,-17.166C70.847,-14.107 70.522,-7.97 70.424,1.242C88.816,-3.967 99.054,-6.896 101.137,-7.547C102.895,-8.166 104.181,-8.947 104.994,-9.891C105.613,-10.607 106.248,-10.965 106.899,-10.965C107.81,-10.965 109.21,-10.103 111.098,-8.377C113.246,-6.424 114.321,-4.65 114.321,-3.055C114.321,-2.371 113.751,-1.769 112.612,-1.248C110.268,-0.304 108.543,0.851 107.436,2.218C101.869,8.957 95.261,15.353 87.612,21.408L85.61,19.406C92.185,13.058 98.354,5.132 104.116,-4.373C101.349,-3.429 90.053,0.102 70.229,6.222L70.034,26.486C70.034,29.318 70.18,31.304 70.473,32.443C70.831,33.712 71.515,34.868 72.524,35.91C74.249,37.635 79.018,38.498 86.83,38.498C92.918,38.498 98.045,37.733 102.211,36.203C103.318,35.812 104.522,35.617 105.825,35.617C109.959,35.617 112.026,37.017 112.026,39.816C112.026,41.086 111.098,41.916 109.242,42.306C104.946,43.315 97.833,43.82 87.905,43.82C82.826,43.82 78.969,43.543 76.332,42.99C73.5,42.436 71.222,41.444 69.496,40.011C67.022,37.993 65.525,35.535 65.004,32.638C64.646,30.913 64.548,22.547 64.711,7.541C63.377,7.899 61.147,8.582 58.022,9.591C55.19,10.503 53.578,11.007 53.188,11.105C52.309,11.365 50.942,11.886 49.086,12.668C48.012,13.091 47.28,13.302 46.889,13.302C45.424,13.302 43.764,12.358 41.909,10.47C40.313,8.875 38.881,6.89 37.612,4.513L39.614,2.511C41.241,4.139 42.56,5.181 43.569,5.636C44.448,6.027 45.603,6.222 47.035,6.222C49.216,6.222 55.141,5.05 64.809,2.707Z" style="fill-rule:nonzero;"/>
    </g>
</svg>
