<?xml version="1.0" encoding="UTF-8" standalone="no"?>
<!DOCTYPE svg PUBLIC "-//W3C//DTD SVG 1.1//EN" "http://www.w3.org/Graphics/SVG/1.1/DTD/svg11.dtd">
<svg width="100%" height="100%" viewBox="0 0 100 100" version="1.1" xmlns="http://www.w3.org/2000/svg" xmlns:xlink="http://www.w3.org/1999/xlink" xml:space="preserve" style="fill-rule:evenodd;clip-rule:evenodd;stroke-linejoin:round;stroke-miterlimit:1.41421;">
    <g transform="matrix(1,0,0,1,-28.8535,39.8509)">
        <path d="M35.024,34.543C41.241,29.66 46.254,24.94 50.063,20.382C53.806,15.923 57.159,10.763 60.121,4.904C62.335,0.607 63.442,-2.551 63.442,-4.569C63.442,-6.164 61.7,-7.531 58.217,-8.67L59.242,-11.161C63.116,-10.933 66.404,-10.054 69.106,-8.524C71.059,-7.385 72.035,-6.375 72.035,-5.496C72.035,-4.715 71.84,-4.048 71.45,-3.495C70.864,-2.746 70.196,-1.476 69.448,0.314C65.932,8.615 61.277,15.874 55.483,22.091C50.535,27.365 44.415,32.313 37.123,36.935L35.024,34.543ZM88.246,-12.088C96.417,-6.75 103.383,-0.011 109.145,8.127C114.874,16.134 117.739,22.433 117.739,27.023C117.739,30.539 116.567,32.296 114.223,32.296C112.433,32.296 111.131,30.701 110.317,27.511C106.769,13.319 98.777,0.851 86.342,-9.891L88.246,-12.088Z" style="fill-rule:nonzero;"/>
    </g>
</svg>
