<?xml version="1.0" encoding="UTF-8" standalone="no"?>
<!DOCTYPE svg PUBLIC "-//W3C//DTD SVG 1.1//EN" "http://www.w3.org/Graphics/SVG/1.1/DTD/svg11.dtd">
<svg width="100%" height="100%" viewBox="0 0 100 100" version="1.1" xmlns="http://www.w3.org/2000/svg" xmlns:xlink="http://www.w3.org/1999/xlink" xml:space="preserve" style="fill-rule:evenodd;clip-rule:evenodd;stroke-linejoin:round;stroke-miterlimit:1.41421;">
    <g transform="matrix(1,0,0,1,-28.8535,39.8509)">
        <path d="M90.639,-5.008C90.639,-11.388 90.639,-16.157 90.639,-19.315C90.639,-22.31 90.444,-24.198 90.053,-24.979C89.5,-26.151 87.66,-27.192 84.535,-28.104L85.219,-30.789C88.995,-30.789 92.136,-30.204 94.643,-29.032C96.759,-28.023 97.817,-26.851 97.817,-25.516C97.817,-25.06 97.719,-24.409 97.524,-23.563C97.296,-22.651 97.166,-22.098 97.133,-21.903C96.612,-18.55 96.303,-13.016 96.205,-5.301C102.716,-5.855 106.882,-6.554 108.705,-7.401C109.78,-7.922 110.854,-8.182 111.928,-8.182C113.165,-8.182 114.89,-7.645 117.104,-6.571C118.634,-5.887 119.399,-4.894 119.399,-3.592C119.399,-1.607 118.064,-0.614 115.395,-0.614C115.134,-0.614 113.409,-0.679 110.219,-0.809C105.401,-1.004 100.73,-1.069 96.205,-1.004C96.205,10.519 95.082,19.227 92.836,25.119C88.214,37.228 78.106,45.724 62.514,50.607L61.244,47.921C69.317,44.406 75.453,40.516 79.653,36.252C83.201,32.638 85.854,28.26 87.612,23.117C89.467,17.908 90.444,9.933 90.541,-0.809C84.747,-0.581 76.739,-0.077 66.518,0.705C66.518,4.025 66.518,6.32 66.518,7.589C66.518,9.738 66.583,12.212 66.713,15.011C66.778,15.955 66.811,16.916 66.811,17.892C66.811,21.701 65.541,23.605 63.002,23.605C62.091,23.605 61.342,23.247 60.756,22.531C60.268,21.912 60.024,21.131 60.024,20.187C60.024,19.471 60.089,18.38 60.219,16.916C60.675,10.535 60.903,5.36 60.903,1.388C56.703,1.811 53.383,2.381 50.942,3.097C48.989,3.618 47.475,3.879 46.401,3.879C44.838,3.879 43.113,3.032 41.225,1.339C39.565,-0.125 38.132,-1.932 36.928,-4.08L38.832,-5.985C41.599,-3.608 44.496,-2.42 47.524,-2.42C49.249,-2.42 53.741,-2.648 61,-3.104C61,-7.564 60.968,-11.356 60.903,-14.481C60.805,-17.15 60.61,-19.054 60.317,-20.194C59.959,-21.691 58.201,-22.961 55.043,-24.002L55.727,-26.688C63.246,-26.427 67.006,-24.67 67.006,-21.414C67.006,-20.959 66.957,-20.47 66.86,-19.95C66.762,-19.331 66.713,-18.989 66.713,-18.924C66.518,-17.427 66.42,-15.49 66.42,-13.114L66.42,-3.397C77.879,-4.243 85.951,-4.78 90.639,-5.008Z" style="fill-rule:nonzero;"/>
    </g>
</svg>
