<?xml version="1.0" encoding="UTF-8" standalone="no"?>
<!DOCTYPE svg PUBLIC "-//W3C//DTD SVG 1.1//EN" "http://www.w3.org/Graphics/SVG/1.1/DTD/svg11.dtd">
<svg width="100%" height="100%" viewBox="0 0 100 100" version="1.1" xmlns="http://www.w3.org/2000/svg" xmlns:xlink="http://www.w3.org/1999/xlink" xml:space="preserve" style="fill-rule:evenodd;clip-rule:evenodd;stroke-linejoin:round;stroke-miterlimit:1.41421;">
    <g transform="matrix(1,0,0,1,-28.8535,39.8509)">
        <path d="M54.994,-24.881C58.64,-24.653 61.586,-23.872 63.832,-22.538C65.623,-21.431 66.518,-20.243 66.518,-18.973C66.518,-18.355 66.388,-17.459 66.127,-16.288C65.769,-14.53 65.59,-10.965 65.59,-5.594L65.59,8.712L65.737,14.23C65.737,17.485 64.402,19.113 61.733,19.113C59.649,19.113 58.608,17.485 58.608,14.23C58.608,13.937 58.657,13.302 58.754,12.326C58.852,11.219 58.933,10.177 58.998,9.201C59.519,2.886 59.78,-3.934 59.78,-11.258C59.78,-15.392 59.454,-18.029 58.803,-19.168C57.924,-20.536 56.394,-21.561 54.213,-22.245L54.994,-24.881ZM63.393,47.824C74.298,42.55 81.996,36.284 86.489,29.025C90.851,21.929 93.032,12.765 93.032,1.535L93.032,-16.288C93.032,-20.519 92.657,-23.254 91.909,-24.491C91.225,-25.793 89.353,-26.851 86.293,-27.664L86.928,-30.399C92.169,-30.269 95.831,-29.39 97.914,-27.762C99.249,-26.72 99.916,-25.663 99.916,-24.588C99.916,-24.198 99.851,-23.4 99.721,-22.196C99.526,-20.177 99.428,-17.98 99.428,-15.604C99.428,0.509 99.054,10.617 98.305,14.718C96.742,24.126 92.95,31.727 86.928,37.521C81.817,42.436 74.477,46.701 64.907,50.314L63.393,47.824Z" style="fill-rule:nonzero;"/>
    </g>
</svg>
