<?xml version="1.0" encoding="UTF-8" standalone="no"?>
<!DOCTYPE svg PUBLIC "-//W3C//DTD SVG 1.1//EN" "http://www.w3.org/Graphics/SVG/1.1/DTD/svg11.dtd">
<svg width="100%" height="100%" viewBox="0 0 100 100" version="1.1" xmlns="http://www.w3.org/2000/svg" xmlns:xlink="http://www.w3.org/1999/xlink" xml:space="preserve" style="fill-rule:evenodd;clip-rule:evenodd;stroke-linejoin:round;stroke-miterlimit:1.41421;">
    <g transform="matrix(1,0,0,1,-28.8535,39.8509)">
        <path d="M79.457,10.129C73.305,5.799 65.574,1.665 56.264,-2.274L57.436,-5.057C66.681,-1.899 74.981,1.632 82.338,5.539C85.659,0.428 88.832,-5.773 91.86,-13.065C93.129,-16.222 93.764,-18.468 93.764,-19.803C93.764,-21.333 92.153,-22.961 88.93,-24.686L90.248,-27.274C94.09,-26.362 97.101,-25.256 99.282,-23.954C101.137,-22.847 102.065,-21.756 102.065,-20.682C102.065,-19.673 101.593,-18.241 100.649,-16.385C99.64,-14.074 98.94,-12.544 98.549,-11.795C94.024,-2.485 90.362,4.285 87.563,8.517C92.641,11.642 96.759,14.93 99.916,18.38C102.748,21.505 104.164,24.093 104.164,26.144C104.164,29.139 103.058,30.636 100.844,30.636C99.672,30.636 98.451,29.595 97.182,27.511C94.155,22.791 89.874,18.087 84.34,13.4C73.435,28.472 60.007,39.751 44.057,47.238L42.446,44.943C50.909,39.767 58.185,34.217 64.272,28.293C69.48,23.214 74.542,17.16 79.457,10.129Z" style="fill-rule:nonzero;"/>
    </g>
</svg>
