<?xml version="1.0" encoding="UTF-8" standalone="no"?>
<!DOCTYPE svg PUBLIC "-//W3C//DTD SVG 1.1//EN" "http://www.w3.org/Graphics/SVG/1.1/DTD/svg11.dtd">
<svg width="100%" height="100%" viewBox="0 0 100 100" version="1.1" xmlns="http://www.w3.org/2000/svg" xmlns:xlink="http://www.w3.org/1999/xlink" xml:space="preserve" style="fill-rule:evenodd;clip-rule:evenodd;stroke-linejoin:round;stroke-miterlimit:1.41421;">
    <g transform="matrix(1,0,0,1,-28.8535,39.8509)">
        <path d="M84.34,-3.397L84.34,7.638C84.34,22.808 84.568,33.403 85.024,39.425C85.089,40.076 85.121,40.907 85.121,41.916C85.121,44.943 84.649,47.043 83.705,48.214C82.794,49.224 81.769,49.728 80.629,49.728C79.783,49.728 79.067,49.354 78.481,48.605C77.96,47.987 77.7,47.287 77.7,46.505C77.7,43.966 77.732,42.176 77.797,41.134C78.416,32.117 78.725,18.511 78.725,0.314C67.494,7.443 55.125,13.546 41.616,18.625L40.346,15.939C57.273,8.094 72.149,-1.086 84.975,-11.6C92.364,-17.59 96.059,-21.414 96.059,-23.075C96.059,-24.116 94.952,-25.353 92.739,-26.786L93.862,-28.983C101.381,-27.03 105.141,-24.8 105.141,-22.293C105.141,-21.577 104.799,-20.942 104.116,-20.389C103.269,-19.64 102.179,-18.599 100.844,-17.264C98.793,-15.246 93.292,-10.623 84.34,-3.397Z" style="fill-rule:nonzero;"/>
    </g>
</svg>
