<?xml version="1.0" encoding="UTF-8" standalone="no"?>
<!DOCTYPE svg PUBLIC "-//W3C//DTD SVG 1.1//EN" "http://www.w3.org/Graphics/SVG/1.1/DTD/svg11.dtd">
<svg width="100%" height="100%" viewBox="0 0 100 100" version="1.1" xmlns="http://www.w3.org/2000/svg" xmlns:xlink="http://www.w3.org/1999/xlink" xml:space="preserve" style="fill-rule:evenodd;clip-rule:evenodd;stroke-linejoin:round;stroke-miterlimit:1.41421;">
    <g transform="matrix(1,0,0,1,-28.8535,39.8509)">
        <path d="M50.307,-10.916L52.7,-12.577C54.457,-10.949 56.117,-9.891 57.68,-9.403C58.95,-9.012 60.789,-8.817 63.198,-8.817C65.606,-8.817 69.952,-9.175 76.235,-9.891C80.369,-10.314 85.463,-11.177 91.518,-12.479C95.652,-13.423 97.914,-13.895 98.305,-13.895C100.193,-13.895 101.935,-13.455 103.53,-12.577C105.125,-11.73 105.922,-10.64 105.922,-9.305C105.922,-7.645 104.588,-6.815 101.918,-6.815C98.403,-6.815 94.773,-6.685 91.03,-6.424C88.784,-6.261 82.68,-5.594 72.719,-4.422C67.511,-3.771 64.272,-3.299 63.002,-3.006C61.7,-2.681 60.74,-2.518 60.121,-2.518C56.801,-2.518 53.53,-5.317 50.307,-10.916ZM81.41,25.998C90.102,25.542 97.133,25.216 102.504,25.021C104.75,24.923 106.508,24.582 107.778,23.996C108.852,23.54 109.698,23.312 110.317,23.312C112.172,23.312 114.63,24.207 117.69,25.998C119.09,26.877 119.789,27.918 119.789,29.123C119.789,30.718 118.927,31.515 117.201,31.515C116.583,31.515 116.078,31.483 115.688,31.418C109.112,30.832 103.285,30.539 98.207,30.539C83.494,30.539 69.024,31.369 54.799,33.029C52.618,33.289 51.056,33.631 50.112,34.054C49.103,34.445 48.142,34.64 47.231,34.64C45.668,34.64 43.943,33.631 42.055,31.613C40.427,29.855 38.979,27.69 37.709,25.119L39.907,23.312C42.218,25.33 44.122,26.584 45.619,27.072C46.954,27.528 49.021,27.755 51.821,27.755C53.806,27.755 57.94,27.544 64.223,27.121C72.621,26.567 78.351,26.193 81.41,25.998Z" style="fill-rule:nonzero;"/>
    </g>
</svg>
