<?xml version="1.0" encoding="UTF-8" standalone="no"?>
<!DOCTYPE svg PUBLIC "-//W3C//DTD SVG 1.1//EN" "http://www.w3.org/Graphics/SVG/1.1/DTD/svg11.dtd">
<svg width="100%" height="100%" viewBox="0 0 100 100" version="1.1" xmlns="http://www.w3.org/2000/svg" xmlns:xlink="http://www.w3.org/1999/xlink" xml:space="preserve" style="fill-rule:evenodd;clip-rule:evenodd;stroke-linejoin:round;stroke-miterlimit:1.41421;">
    <g transform="matrix(1,0,0,1,-28.8535,39.8509)">
        <path d="M41.225,42.843L39.809,40.304C49.575,33.892 57.761,27.104 64.369,19.943C70.457,13.335 75.909,5.718 80.727,-2.909C68.292,-1.802 60.789,-0.972 58.217,-0.418C57.013,-0.158 56.117,0.086 55.532,0.314C54.815,0.574 54.213,0.705 53.725,0.705C52.228,0.705 50.486,-0.207 48.5,-2.03C46.71,-3.657 45.18,-5.643 43.91,-7.987L46.108,-9.793C47.996,-8.166 49.802,-7.059 51.528,-6.473C52.992,-5.952 54.783,-5.692 56.899,-5.692C58.298,-5.692 61.798,-5.822 67.397,-6.082C71.987,-6.375 78.497,-6.88 86.928,-7.596C86.798,-11.86 86.619,-15.929 86.391,-19.803C86.293,-21.626 85.968,-23.156 85.414,-24.393C84.568,-26.053 82.599,-27.16 79.506,-27.713L79.897,-30.496C84.747,-30.464 88.344,-29.894 90.688,-28.788C92.446,-27.941 93.325,-26.883 93.325,-25.614C93.325,-24.735 93.194,-23.823 92.934,-22.879C92.673,-21.87 92.494,-21.04 92.397,-20.389C92.201,-18.143 92.104,-14.009 92.104,-7.987C97.052,-8.377 101.056,-8.849 104.116,-9.403C105.027,-9.566 106.264,-10.005 107.826,-10.721C109.031,-11.307 110.187,-11.6 111.293,-11.6C112.693,-11.6 114.5,-11.063 116.713,-9.989C118.308,-9.24 119.106,-8.166 119.106,-6.766C119.106,-5.106 117.543,-4.276 114.418,-4.276L106.41,-4.422C102.114,-4.422 97.41,-4.243 92.299,-3.885C92.755,12.196 93.455,26.405 94.399,38.742C94.464,39.588 94.496,40.679 94.496,42.013C94.496,43.999 94.122,45.773 93.373,47.336C92.56,49.061 91.567,49.923 90.395,49.923C89.353,49.923 88.491,49.028 87.807,47.238C86.863,44.764 85.561,43.022 83.901,42.013C82.175,40.972 78.676,39.23 73.403,36.789L74.33,33.908C83.51,36.512 88.23,37.847 88.491,37.912C88.328,32.183 87.84,18.885 87.026,-1.981C80.45,9.51 73.142,18.95 65.102,26.339C58.461,32.459 50.502,37.961 41.225,42.843Z" style="fill-rule:nonzero;"/>
    </g>
</svg>
