<?xml version="1.0" encoding="UTF-8" standalone="no"?>
<!DOCTYPE svg PUBLIC "-//W3C//DTD SVG 1.1//EN" "http://www.w3.org/Graphics/SVG/1.1/DTD/svg11.dtd">
<svg width="100%" height="100%" viewBox="0 0 100 100" version="1.1" xmlns="http://www.w3.org/2000/svg" xmlns:xlink="http://www.w3.org/1999/xlink" xml:space="preserve" style="fill-rule:evenodd;clip-rule:evenodd;stroke-linejoin:round;stroke-miterlimit:1.41421;">
    <g transform="matrix(1,0,0,1,-28.8535,39.8509)">
        <path d="M60.61,11.545C72.589,7.052 83.396,1.681 93.032,-4.569C95.831,-6.327 97.231,-7.791 97.231,-8.963C97.231,-10.038 96.319,-11.307 94.496,-12.772L96.108,-14.871C102.651,-11.649 105.922,-8.719 105.922,-6.082C105.922,-4.618 103.953,-2.876 100.014,-0.858C87.872,5.49 74.705,10.747 60.512,14.914C60.512,22.661 60.61,27.837 60.805,30.441C61.033,33.013 61.472,34.836 62.123,35.91C63.393,38.188 67.787,39.328 75.307,39.328C84.975,39.328 93.308,38.563 100.307,37.033C101.479,36.805 102.211,36.642 102.504,36.545C103.22,36.349 104.018,36.252 104.897,36.252C106.524,36.252 107.892,36.772 108.998,37.814C109.942,38.693 110.414,39.735 110.414,40.939C110.414,42.339 108.95,43.234 106.02,43.625C100.063,44.504 91.225,44.943 79.506,44.943C73.94,44.943 69.789,44.683 67.055,44.162C64.06,43.608 61.765,42.599 60.17,41.134C58.087,39.246 56.671,36.903 55.922,34.103C55.336,31.922 55.027,28.895 54.994,25.021C54.962,24.11 54.962,11.121 54.994,-13.944C54.994,-16.125 54.49,-17.736 53.481,-18.778C52.569,-19.722 50.844,-20.682 48.305,-21.659L48.989,-24.344C53.481,-24.116 57.192,-23.189 60.121,-21.561C61.651,-20.812 62.416,-19.575 62.416,-17.85C62.416,-17.687 62.221,-16.385 61.83,-13.944C61.57,-12.609 61.358,-10.721 61.196,-8.28C60.935,-2.681 60.74,3.927 60.61,11.545Z" style="fill-rule:nonzero;"/>
    </g>
</svg>
