<?xml version="1.0" encoding="UTF-8" standalone="no"?>
<!DOCTYPE svg PUBLIC "-//W3C//DTD SVG 1.1//EN" "http://www.w3.org/Graphics/SVG/1.1/DTD/svg11.dtd">
<svg width="100%" height="100%" viewBox="0 0 100 100" version="1.1" xmlns="http://www.w3.org/2000/svg" xmlns:xlink="http://www.w3.org/1999/xlink" xml:space="preserve" style="fill-rule:evenodd;clip-rule:evenodd;stroke-linejoin:round;stroke-miterlimit:1.41421;">
    <g transform="matrix(1,0,0,1,-28.8535,39.8509)">
        <path d="M73.94,-1.004C84.389,1.665 92.592,4.839 98.549,8.517C103.953,11.837 106.655,15.011 106.655,18.039C106.655,20.838 105.58,22.238 103.432,22.238C102.195,22.238 100.828,21.229 99.33,19.211C96.824,16.053 93.39,12.993 89.028,10.031C85.024,7.231 79.994,4.725 73.94,2.511C73.94,7.72 74.037,14.523 74.233,22.921C74.428,31.678 74.558,37.944 74.623,41.72L74.721,45.724C74.721,49.598 73.321,51.535 70.522,51.535C68.471,51.535 67.446,50.07 67.446,47.14C67.446,46.75 67.494,45.854 67.592,44.455C67.657,43.055 67.706,41.981 67.739,41.232C68.194,30.425 68.422,17.86 68.422,3.537C68.422,-11.73 68.227,-20.405 67.836,-22.489C67.348,-24.735 65.248,-26.46 61.537,-27.664L62.416,-30.204C66.29,-30.041 69.562,-29.146 72.231,-27.518C74.249,-26.314 75.258,-25.174 75.258,-24.1C75.258,-23.254 75.063,-22.375 74.672,-21.463C74.184,-20.291 73.94,-18.338 73.94,-15.604L73.94,-1.004Z" style="fill-rule:nonzero;"/>
    </g>
</svg>
