<?xml version="1.0" encoding="UTF-8" standalone="no"?>
<!DOCTYPE svg PUBLIC "-//W3C//DTD SVG 1.1//EN" "http://www.w3.org/Graphics/SVG/1.1/DTD/svg11.dtd">
<svg width="100%" height="100%" viewBox="0 0 100 100" version="1.1" xmlns="http://www.w3.org/2000/svg" xmlns:xlink="http://www.w3.org/1999/xlink" xml:space="preserve" style="fill-rule:evenodd;clip-rule:evenodd;stroke-linejoin:round;stroke-miterlimit:1.41421;">
    <g transform="matrix(1,0,0,1,-28.8535,39.8509)">
        <path d="M75.991,-12.186C75.991,-17.687 75.828,-21.659 75.502,-24.1C75.209,-25.76 73.451,-27.046 70.229,-27.957L70.717,-30.985C78.79,-30.659 82.826,-28.95 82.826,-25.858C82.826,-25.239 82.696,-24.312 82.436,-23.075C81.85,-19.689 81.508,-16.157 81.41,-12.479C83.429,-12.609 86.651,-12.772 91.078,-12.967C93.683,-13.097 95.554,-13.228 96.694,-13.358C99.428,-13.748 101.397,-14.497 102.602,-15.604C103.155,-16.125 103.692,-16.385 104.213,-16.385C105.157,-16.385 106.752,-15.246 108.998,-12.967C111.147,-10.949 112.221,-9.256 112.221,-7.889C112.221,-7.173 111.847,-6.603 111.098,-6.18C109.763,-5.529 108.705,-3.592 107.924,-0.37C104.734,12.423 99.998,22.612 93.715,30.197C86.847,38.27 77.309,44.845 65.102,49.923L63.686,47.238C76.511,40.5 86.065,32.134 92.348,22.14C97.947,13.254 101.137,2.772 101.918,-9.305C89.548,-8.719 74.949,-7.775 58.119,-6.473C58.119,-1.069 58.185,3.96 58.315,8.615C58.38,10.145 58.412,11.349 58.412,12.228C58.412,13.921 58.022,15.353 57.241,16.525C56.557,17.599 55.711,18.136 54.701,18.136C52.586,18.136 51.528,16.867 51.528,14.328C51.528,14.198 51.593,12.993 51.723,10.714C51.983,6.45 52.114,2.853 52.114,-0.077C52.114,-4.341 51.886,-7.173 51.43,-8.573C50.681,-10.298 48.94,-11.763 46.205,-12.967L47.328,-15.604C52.081,-15.018 55.434,-13.504 57.387,-11.063C64.386,-11.323 70.587,-11.698 75.991,-12.186Z" style="fill-rule:nonzero;"/>
    </g>
</svg>
