<?xml version="1.0" encoding="UTF-8" standalone="no"?>
<!DOCTYPE svg PUBLIC "-//W3C//DTD SVG 1.1//EN" "http://www.w3.org/Graphics/SVG/1.1/DTD/svg11.dtd">
<svg width="100%" height="100%" viewBox="0 0 100 100" version="1.1" xmlns="http://www.w3.org/2000/svg" xmlns:xlink="http://www.w3.org/1999/xlink" xml:space="preserve" style="fill-rule:evenodd;clip-rule:evenodd;stroke-linejoin:round;stroke-miterlimit:1.41421;">
    <g transform="matrix(1,0,0,1,-28.8535,39.8509)">
        <path d="M96.059,4.123C81.378,5.815 69.936,7.28 61.733,8.517C61.44,8.55 61.017,8.631 60.463,8.761C59.975,8.826 59.633,8.875 59.438,8.908C58.819,9.136 58.282,9.25 57.826,9.25C56.72,9.25 55.239,8.403 53.383,6.711C51.723,5.181 50.242,3.358 48.94,1.242L51.039,-0.565C52.96,1.063 54.701,2.088 56.264,2.511C57.436,2.804 59.259,2.951 61.733,2.951C62.612,2.951 66.681,2.642 73.94,2.023C75.014,1.958 82.875,1.193 97.524,-0.272C98.989,-4.341 100.388,-9.712 101.723,-16.385C91.729,-15.734 79.832,-14.692 66.03,-13.26C64.272,-13.097 62.612,-12.772 61.049,-12.284C60.431,-12.088 59.894,-11.991 59.438,-11.991C56.736,-11.991 53.302,-14.953 49.135,-20.877L51.43,-22.684C53.839,-20.829 56.004,-19.624 57.924,-19.071C59.194,-18.68 60.838,-18.485 62.856,-18.485C65.525,-18.485 68.992,-18.582 73.256,-18.778C77.52,-19.006 85.545,-19.543 97.328,-20.389C99.607,-20.519 101.381,-21.121 102.651,-22.196C103.334,-22.782 104.034,-23.075 104.75,-23.075C105.662,-23.075 106.85,-22.342 108.315,-20.877C110.593,-18.599 111.733,-16.76 111.733,-15.36C111.733,-14.709 111.228,-14.074 110.219,-13.455C108.754,-12.739 107.696,-11.209 107.045,-8.866C102.26,7.41 96.157,19.992 88.735,28.879C82.029,36.854 72.8,43.706 61.049,49.435L59.34,47.043C69.008,41.541 76.853,35.047 82.875,27.56C87.953,21.212 92.348,13.4 96.059,4.123Z" style="fill-rule:nonzero;"/>
    </g>
</svg>
