<?xml version="1.0" encoding="UTF-8" standalone="no"?>
<!DOCTYPE svg PUBLIC "-//W3C//DTD SVG 1.1//EN" "http://www.w3.org/Graphics/SVG/1.1/DTD/svg11.dtd">
<svg width="100%" height="100%" viewBox="0 0 100 100" version="1.1" xmlns="http://www.w3.org/2000/svg" xmlns:xlink="http://www.w3.org/1999/xlink" xml:space="preserve" style="fill-rule:evenodd;clip-rule:evenodd;stroke-linejoin:round;stroke-miterlimit:1.41421;">
    <g transform="matrix(1,0,0,1,-28.8535,39.8509)">
        <path d="M77.309,-12.87C83.168,-13.358 89.972,-14.107 97.719,-15.116C99.607,-15.376 101.072,-15.897 102.114,-16.678C102.927,-17.362 103.692,-17.704 104.409,-17.704C105.06,-17.704 106.313,-16.776 108.168,-14.92C110.252,-12.837 111.293,-11.291 111.293,-10.282C111.293,-9.533 110.789,-8.833 109.78,-8.182C108.478,-7.401 107.175,-5.708 105.873,-3.104C98.907,11.056 90.802,22.205 81.557,30.343C72.768,38.091 61.847,44.211 48.793,48.703L47.524,46.115C61.977,39.409 73.451,31.466 81.948,22.287C89.988,13.595 96.808,2.446 102.407,-11.161L74.428,-8.573C70.294,-2.876 66.111,1.909 61.879,5.783C57.257,10.047 51.902,13.921 45.815,17.404L44.106,14.914C54.913,6.841 63.881,-2.583 71.01,-13.358C73.94,-17.817 75.405,-20.926 75.405,-22.684C75.405,-24.181 73.907,-25.516 70.912,-26.688L71.791,-29.373C75.567,-28.853 78.595,-27.957 80.873,-26.688C82.826,-25.581 83.803,-24.442 83.803,-23.27C83.803,-22.586 83.51,-21.756 82.924,-20.78C80.906,-17.98 79.034,-15.343 77.309,-12.87Z" style="fill-rule:nonzero;"/>
    </g>
</svg>
