<?xml version="1.0" encoding="UTF-8" standalone="no"?>
<!DOCTYPE svg PUBLIC "-//W3C//DTD SVG 1.1//EN" "http://www.w3.org/Graphics/SVG/1.1/DTD/svg11.dtd">
<svg width="100%" height="100%" viewBox="0 0 100 100" version="1.1" xmlns="http://www.w3.org/2000/svg" xmlns:xlink="http://www.w3.org/1999/xlink" xml:space="preserve" style="fill-rule:evenodd;clip-rule:evenodd;stroke-linejoin:round;stroke-miterlimit:1.41421;">
    <g transform="matrix(1,0,0,1,-28.8535,39.8509)">
        <path d="M74.623,-12.088L74.33,8.029C85.659,7.085 93.064,6.45 96.547,6.125C99.77,5.799 102,5.327 103.237,4.709C104.343,4.058 105.808,3.732 107.631,3.732C109.715,3.732 111.521,4.155 113.051,5.002C114.516,5.783 115.248,6.792 115.248,8.029C115.248,9.754 114.044,10.617 111.635,10.617C104.376,10.617 100.047,10.649 98.647,10.714C91.388,11.007 83.25,11.512 74.233,12.228C74.233,19.813 74.233,24.777 74.233,27.121C74.233,31.157 74.77,33.989 75.844,35.617C76.625,36.756 77.944,37.521 79.799,37.912C81.752,38.302 84.894,38.498 89.223,38.498C93.097,38.498 96.531,38.205 99.526,37.619C102.488,37.033 103.985,36.74 104.018,36.74C108.282,36.74 110.414,38.074 110.414,40.744C110.414,41.916 109.649,42.713 108.119,43.136C105.45,43.918 100.144,44.308 92.201,44.308C86.31,44.308 81.866,43.95 78.871,43.234C76.039,42.55 73.826,41.411 72.231,39.816C69.887,37.472 68.715,33.908 68.715,29.123C68.715,22.254 68.715,16.753 68.715,12.619C62.27,13.302 56.882,14.002 52.553,14.718C51.446,14.946 50.6,15.19 50.014,15.451C49.135,15.776 48.338,15.939 47.621,15.939C44.822,15.939 41.827,13.205 38.637,7.736L40.834,6.027C43.699,8.566 46.336,9.836 48.744,9.836C52.325,9.836 58.982,9.396 68.715,8.517L68.715,-11.502C64.581,-11.112 60.691,-10.672 57.045,-10.184C55.906,-9.989 55.206,-9.858 54.946,-9.793C54.229,-9.598 53.562,-9.5 52.944,-9.5C50.73,-9.5 48.093,-11.958 45.034,-16.873L47.328,-18.68C50.063,-16.304 52.7,-15.116 55.239,-15.116C57.647,-15.116 61.944,-15.343 68.129,-15.799C72.784,-16.19 78.416,-16.792 85.024,-17.606C88.832,-18.094 91.664,-18.696 93.52,-19.413C95.147,-20.064 96.726,-20.389 98.256,-20.389C100.274,-20.389 101.951,-19.95 103.285,-19.071C104.522,-18.257 105.141,-17.232 105.141,-15.995C105.141,-14.399 103.969,-13.602 101.625,-13.602C98.826,-13.602 95.229,-13.488 90.834,-13.26C87.807,-13.13 82.403,-12.739 74.623,-12.088Z" style="fill-rule:nonzero;"/>
    </g>
</svg>
