<?xml version="1.0" encoding="UTF-8" standalone="no"?>
<!DOCTYPE svg PUBLIC "-//W3C//DTD SVG 1.1//EN" "http://www.w3.org/Graphics/SVG/1.1/DTD/svg11.dtd">
<svg width="100%" height="100%" viewBox="0 0 100 100" version="1.1" xmlns="http://www.w3.org/2000/svg" xmlns:xlink="http://www.w3.org/1999/xlink" xml:space="preserve" style="fill-rule:evenodd;clip-rule:evenodd;stroke-linejoin:round;stroke-miterlimit:1.41421;">
    <g transform="matrix(1,0,0,1,-28.8535,39.8509)">
        <path d="M84.926,-15.604C84.926,-9.093 84.763,-2.892 84.438,3L100.698,1.877C103.334,1.714 105.58,1.177 107.436,0.265C108.478,-0.256 109.568,-0.516 110.707,-0.516C112.335,-0.516 114.207,0.086 116.323,1.291C117.853,2.104 118.617,3.244 118.617,4.709C118.617,6.108 117.315,6.808 114.711,6.808C113.572,6.808 112.514,6.776 111.537,6.711C110.007,6.645 107.371,6.613 103.627,6.613C98.907,6.613 92.397,6.841 84.096,7.296C83.412,18.592 80.483,27.528 75.307,34.103C70.619,40.418 63.051,45.757 52.602,50.119L51.137,47.482C62.107,41.883 69.627,35.015 73.696,26.877C75.909,22.482 77.39,16.086 78.139,7.687C68.211,8.599 60.138,9.575 53.92,10.617L50.795,11.3C49.656,11.561 48.793,11.691 48.207,11.691C45.701,11.691 42.771,8.989 39.418,3.586L41.323,1.681C43.406,3.309 45.131,4.367 46.498,4.855C47.703,5.278 49.184,5.49 50.942,5.49C51.69,5.49 60.821,4.855 78.334,3.586C78.53,-0.06 78.627,-6.05 78.627,-14.383C66.55,-12.039 56.443,-10.51 48.305,-9.793L47.914,-12.821C66.892,-15.685 81.134,-19.038 90.639,-22.879C93.438,-24.051 94.838,-25.028 94.838,-25.809C94.838,-26.688 93.927,-27.746 92.104,-28.983L94.594,-30.301C100.128,-27.306 102.895,-24.735 102.895,-22.586C102.895,-21.512 101.69,-20.584 99.282,-19.803C95.831,-18.566 91.046,-17.166 84.926,-15.604Z" style="fill-rule:nonzero;"/>
    </g>
</svg>
