<?xml version="1.0" encoding="UTF-8" standalone="no"?>
<!DOCTYPE svg PUBLIC "-//W3C//DTD SVG 1.1//EN" "http://www.w3.org/Graphics/SVG/1.1/DTD/svg11.dtd">
<svg width="100%" height="100%" viewBox="0 0 100 100" version="1.1" xmlns="http://www.w3.org/2000/svg" xmlns:xlink="http://www.w3.org/1999/xlink" xml:space="preserve" style="fill-rule:evenodd;clip-rule:evenodd;stroke-linejoin:round;stroke-miterlimit:1.41421;">
    <g transform="matrix(1,0,0,1,-28.8535,39.8509)">
        <path d="M48.11,-20.194C50.16,-18.306 51.902,-17.052 53.334,-16.434C54.636,-15.848 56.199,-15.555 58.022,-15.555C60.561,-15.555 66.095,-15.848 74.623,-16.434C83.998,-17.118 92.12,-17.899 98.989,-18.778C100.844,-19.006 102.39,-19.608 103.627,-20.584C104.278,-21.04 104.897,-21.268 105.483,-21.268C106.427,-21.268 107.973,-20.194 110.121,-18.045C111.977,-16.19 112.905,-14.758 112.905,-13.748C112.905,-13.13 112.237,-12.332 110.903,-11.356C110.024,-10.737 109.096,-9.142 108.119,-6.571C102.846,6.938 96.808,17.306 90.004,24.533C81.248,33.94 70.017,41.444 56.313,47.043L54.701,44.504C69.122,37.342 80.418,28.146 88.588,16.916C95.034,8.224 99.835,-2.339 102.992,-14.774C90.232,-13.602 77.569,-12.202 65.004,-10.575C62.14,-10.184 60.04,-9.647 58.705,-8.963C57.924,-8.573 56.899,-8.377 55.629,-8.377C54.164,-8.377 52.472,-9.435 50.551,-11.551C48.858,-13.407 47.312,-15.718 45.912,-18.485L48.11,-20.194Z" style="fill-rule:nonzero;"/>
    </g>
</svg>
