<?xml version="1.0" encoding="UTF-8" standalone="no"?>
<!DOCTYPE svg PUBLIC "-//W3C//DTD SVG 1.1//EN" "http://www.w3.org/Graphics/SVG/1.1/DTD/svg11.dtd">
<svg width="100%" height="100%" viewBox="0 0 100 100" version="1.1" xmlns="http://www.w3.org/2000/svg" xmlns:xlink="http://www.w3.org/1999/xlink" xml:space="preserve" style="fill-rule:evenodd;clip-rule:evenodd;stroke-linejoin:round;stroke-miterlimit:1.41421;">
    <g transform="matrix(1,0,0,1,-28.8535,39.8509)">
        <path d="M97.914,28.341C98.728,19.78 99.64,7.069 100.649,-9.793C82.81,-8.426 71.043,-7.401 65.346,-6.717C63.556,-6.489 62.009,-6.213 60.707,-5.887C60.414,-5.822 59.91,-5.708 59.194,-5.545C58.77,-5.448 58.478,-5.399 58.315,-5.399C56.915,-5.399 55.32,-6.213 53.53,-7.84C51.837,-9.338 50.274,-11.323 48.842,-13.797L50.746,-15.604C52.765,-14.041 54.571,-13.032 56.166,-12.577C57.501,-12.186 59.356,-11.991 61.733,-11.991C64.76,-11.991 68.894,-12.153 74.135,-12.479C78.465,-12.739 85.691,-13.276 95.815,-14.09C97.442,-14.188 99.249,-14.79 101.235,-15.897C102.081,-16.353 102.781,-16.58 103.334,-16.58C104.05,-16.58 105.255,-15.75 106.948,-14.09C108.868,-12.039 109.828,-10.444 109.828,-9.305C109.828,-8.687 109.356,-8.019 108.412,-7.303C107.436,-6.587 106.834,-5.073 106.606,-2.762L103.823,27.218C106.297,28.065 107.534,29.464 107.534,31.418C107.534,32.948 106.508,33.712 104.457,33.712C89.679,33.712 75.372,34.689 61.537,36.642C60.073,36.837 59.031,37.065 58.412,37.326C57.761,37.586 57.159,37.716 56.606,37.716C55.466,37.716 53.937,36.74 52.016,34.787C50.388,33.127 48.826,31.076 47.328,28.634L49.33,26.828C51.804,28.455 53.66,29.513 54.897,30.002C56.264,30.555 57.68,30.832 59.145,30.832C62.628,30.832 67.153,30.604 72.719,30.148C74.216,30.05 76.381,29.904 79.213,29.709C81.687,29.513 83.461,29.383 84.535,29.318C86.293,29.22 88.702,29.041 91.762,28.781C94.431,28.553 96.482,28.407 97.914,28.341Z" style="fill-rule:nonzero;"/>
    </g>
</svg>
