<?xml version="1.0" encoding="UTF-8" standalone="no"?>
<!DOCTYPE svg PUBLIC "-//W3C//DTD SVG 1.1//EN" "http://www.w3.org/Graphics/SVG/1.1/DTD/svg11.dtd">
<svg width="100%" height="100%" viewBox="0 0 100 100" version="1.1" xmlns="http://www.w3.org/2000/svg" xmlns:xlink="http://www.w3.org/1999/xlink" xml:space="preserve" style="fill-rule:evenodd;clip-rule:evenodd;stroke-linejoin:round;stroke-miterlimit:1.41421;">
    <g transform="matrix(1,0,0,1,-28.8535,39.8509)">
        <path d="M84.926,4.025C84.438,16.004 82.403,25.33 78.823,32.004C74.428,40.369 67.397,46.815 57.729,51.339L56.02,48.898C64.516,43.559 70.506,36.772 73.989,28.537C76.593,22.287 77.927,14.311 77.992,4.611C68.194,5.62 60.431,6.564 54.701,7.443C53.497,7.638 52.569,7.866 51.918,8.127C50.844,8.387 50.177,8.517 49.916,8.517C48.191,8.517 46.303,7.524 44.252,5.539C42.527,3.911 41.046,1.942 39.809,-0.37L41.909,-2.176C44.122,-0.418 45.815,0.705 46.987,1.193C48.191,1.681 49.705,1.925 51.528,1.925C56.345,1.925 66.502,1.258 81.996,-0.077C95.733,-1.281 103.302,-2.144 104.701,-2.664C106.655,-3.413 108.364,-3.788 109.828,-3.788C112.433,-3.788 114.532,-3.283 116.127,-2.274C117.592,-1.362 118.325,-0.191 118.325,1.242C118.325,2.707 116.99,3.439 114.321,3.439L104.409,3.195C100.437,3.195 93.943,3.472 84.926,4.025ZM55.19,-24.344C58.217,-21.773 61.114,-20.487 63.881,-20.487C69.61,-20.487 77.048,-21.024 86.196,-22.098C88.8,-22.424 90.965,-22.993 92.69,-23.807C93.894,-24.393 94.854,-24.686 95.571,-24.686C97.556,-24.686 99.363,-24.263 100.991,-23.416C102.52,-22.603 103.285,-21.626 103.285,-20.487C103.285,-18.957 102.146,-18.159 99.867,-18.094C87.888,-17.606 76.43,-16.76 65.492,-15.555C65.2,-15.523 64.825,-15.457 64.369,-15.36C63.946,-15.262 63.653,-15.197 63.491,-15.164C62.709,-15.034 62.107,-14.969 61.684,-14.969C59.112,-14.969 56.248,-17.541 53.09,-22.684L55.19,-24.344Z" style="fill-rule:nonzero;"/>
    </g>
</svg>
