<?xml version="1.0" encoding="UTF-8" standalone="no"?>
<!DOCTYPE svg PUBLIC "-//W3C//DTD SVG 1.1//EN" "http://www.w3.org/Graphics/SVG/1.1/DTD/svg11.dtd">
<svg width="100%" height="100%" viewBox="0 0 100 100" version="1.1" xmlns="http://www.w3.org/2000/svg" xmlns:xlink="http://www.w3.org/1999/xlink" xml:space="preserve" style="fill-rule:evenodd;clip-rule:evenodd;stroke-linejoin:round;stroke-miterlimit:1.41421;">
    <g transform="matrix(1,0,0,1,-28.8535,39.8509)">
        <path d="M49.037,-22.391C55.32,-19.201 60.105,-15.311 63.393,-10.721C65.802,-7.368 67.006,-4.26 67.006,-1.395C67.006,2.414 65.541,4.318 62.612,4.318C60.854,4.318 59.649,2.918 58.998,0.119C57.11,-8.182 53.22,-14.904 47.328,-20.047L49.037,-22.391ZM56.606,47.433C68.032,40.337 77.748,31.255 85.756,20.187C92.755,10.552 98.045,-0.044 101.625,-11.6C102.504,-14.334 102.944,-16.597 102.944,-18.387C102.944,-20.438 101.235,-22.277 97.817,-23.905L98.94,-26.395C102.846,-25.711 106.004,-24.605 108.412,-23.075C110.431,-21.805 111.44,-20.536 111.44,-19.266C111.44,-18.485 111.244,-17.687 110.854,-16.873C110.138,-15.441 109.698,-14.481 109.535,-13.993C104.457,1.893 97.573,15.06 88.881,25.509C80.776,35.275 70.587,43.348 58.315,49.728L56.606,47.433Z" style="fill-rule:nonzero;"/>
    </g>
</svg>
