<?xml version="1.0" encoding="UTF-8" standalone="no"?>
<!DOCTYPE svg PUBLIC "-//W3C//DTD SVG 1.1//EN" "http://www.w3.org/Graphics/SVG/1.1/DTD/svg11.dtd">
<svg width="100%" height="100%" viewBox="0 0 100 100" version="1.1" xmlns="http://www.w3.org/2000/svg" xmlns:xlink="http://www.w3.org/1999/xlink" xml:space="preserve" style="fill-rule:evenodd;clip-rule:evenodd;stroke-linejoin:round;stroke-miterlimit:1.41421;">
    <g transform="matrix(1,0,0,1,-28.8535,39.8509)">
        <path d="M46.205,44.113C57.013,37.668 66.469,29.676 74.575,20.138C81.899,11.512 87.693,2.039 91.957,-8.28C93.813,-12.804 94.741,-15.897 94.741,-17.557C94.741,-19.25 92.934,-21.056 89.321,-22.977L90.395,-25.565C94.301,-24.718 97.556,-23.514 100.16,-21.952C102.407,-20.617 103.53,-19.364 103.53,-18.192C103.53,-17.313 103.269,-16.483 102.748,-15.702C102.26,-15.018 101.69,-13.814 101.039,-12.088C90.297,14.93 72.524,34.494 47.719,46.603L46.205,44.113Z" style="fill-rule:nonzero;"/>
    </g>
</svg>
