<?xml version="1.0" encoding="UTF-8" standalone="no"?>
<!DOCTYPE svg PUBLIC "-//W3C//DTD SVG 1.1//EN" "http://www.w3.org/Graphics/SVG/1.1/DTD/svg11.dtd">
<svg width="100%" height="100%" viewBox="0 0 100 100" version="1.1" xmlns="http://www.w3.org/2000/svg" xmlns:xlink="http://www.w3.org/1999/xlink" xml:space="preserve" style="fill-rule:evenodd;clip-rule:evenodd;stroke-linejoin:round;stroke-miterlimit:1.41421;">
    <g transform="matrix(1,0,0,1,-28.8535,39.8509)">
        <path d="M89.028,12.326C101.17,19.259 107.241,25.119 107.241,29.904C107.241,32.703 106.166,34.103 104.018,34.103C103.009,34.103 101.886,33.175 100.649,31.32C97.394,26.567 92.478,21.668 85.903,16.623C75.616,30.392 61.83,40.483 44.545,46.896L43.325,44.308C58.722,36.886 71.287,26.665 81.02,13.644C73.696,9.315 65.802,5.311 57.338,1.632L58.705,-0.955C68.601,2.397 77,5.832 83.901,9.347C89.174,0.656 93.422,-8.41 96.645,-17.85C81.573,-16.353 71.14,-15.067 65.346,-13.993C64.142,-13.765 63.198,-13.455 62.514,-13.065C61.961,-12.739 61.358,-12.577 60.707,-12.577C57.485,-12.577 54.229,-15.441 50.942,-21.17L53.041,-22.879C55.711,-20.34 58.608,-19.071 61.733,-19.071C66.616,-19.071 76.886,-19.901 92.543,-21.561C95.05,-21.854 96.856,-22.489 97.963,-23.465C98.744,-24.279 99.379,-24.686 99.867,-24.686C100.649,-24.686 102,-23.823 103.92,-22.098C105.938,-20.21 106.948,-18.81 106.948,-17.899C106.948,-17.02 106.215,-16.255 104.75,-15.604C103.709,-15.051 102.504,-13.374 101.137,-10.575C95.929,0.493 91.892,8.127 89.028,12.326Z" style="fill-rule:nonzero;"/>
    </g>
</svg>
