<?xml version="1.0" encoding="UTF-8" standalone="no"?>
<!DOCTYPE svg PUBLIC "-//W3C//DTD SVG 1.1//EN" "http://www.w3.org/Graphics/SVG/1.1/DTD/svg11.dtd">
<svg width="100%" height="100%" viewBox="0 0 100 100" version="1.1" xmlns="http://www.w3.org/2000/svg" xmlns:xlink="http://www.w3.org/1999/xlink" xml:space="preserve" style="fill-rule:evenodd;clip-rule:evenodd;stroke-linejoin:round;stroke-miterlimit:1.41421;">
    <g transform="matrix(1,0,0,1,-28.8535,39.8509)">
        <path d="M57.485,-25.955C60.284,-23.84 63.784,-22.782 67.983,-22.782C70.554,-22.782 73.386,-22.879 76.479,-23.075C80.287,-23.302 83.364,-23.563 85.707,-23.856C88.344,-24.214 90.167,-24.686 91.176,-25.272C92.153,-25.858 93.162,-26.151 94.203,-26.151C96.091,-26.151 97.768,-25.663 99.233,-24.686C100.47,-23.905 101.088,-23.058 101.088,-22.147C101.088,-20.291 100.095,-19.364 98.11,-19.364C96.71,-19.364 94.545,-19.299 91.616,-19.168C86.017,-18.941 78.237,-18.403 68.276,-17.557C68.08,-17.524 67.739,-17.492 67.25,-17.459C66.795,-17.427 66.437,-17.394 66.176,-17.362C66.013,-17.329 65.753,-17.297 65.395,-17.264C64.679,-17.134 64.142,-17.069 63.784,-17.069C61.212,-17.069 58.445,-19.396 55.483,-24.051L57.485,-25.955ZM48.403,-5.106C50.226,-3.478 51.853,-2.404 53.285,-1.883C54.522,-1.427 56.069,-1.2 57.924,-1.2C60.789,-1.2 65.281,-1.427 71.401,-1.883C84.617,-2.892 93.048,-3.56 96.694,-3.885C99.037,-4.08 100.812,-4.585 102.016,-5.399C102.765,-5.92 103.399,-6.18 103.92,-6.18C104.897,-6.18 106.231,-5.285 107.924,-3.495C109.519,-1.802 110.317,-0.402 110.317,0.705C110.317,1.518 109.715,2.218 108.51,2.804C107.631,3.293 106.801,4.497 106.02,6.418C100.877,18.169 94.529,27.495 86.977,34.396C79.848,40.939 70.864,46.115 60.024,49.923L58.608,47.336C80.19,37.57 94.187,21.864 100.6,0.216C90.118,0.965 78.546,2.056 65.883,3.488C62.628,3.813 60.203,4.285 58.608,4.904C57.403,5.295 56.443,5.49 55.727,5.49C54.164,5.49 52.39,4.497 50.405,2.511C48.614,0.786 47.215,-1.216 46.205,-3.495L48.403,-5.106Z" style="fill-rule:nonzero;"/>
    </g>
</svg>
