<?xml version="1.0" encoding="UTF-8" standalone="no"?>
<!DOCTYPE svg PUBLIC "-//W3C//DTD SVG 1.1//EN" "http://www.w3.org/Graphics/SVG/1.1/DTD/svg11.dtd">
<svg width="100%" height="100%" viewBox="0 0 100 100" version="1.1" xmlns="http://www.w3.org/2000/svg" xmlns:xlink="http://www.w3.org/1999/xlink" xml:space="preserve" style="fill-rule:evenodd;clip-rule:evenodd;stroke-linejoin:round;stroke-miterlimit:1.41421;">
    <g transform="matrix(1,0,0,1,-28.8535,39.8509)">
        <path d="M57.631,-25.565C63.914,-24.393 68.976,-22.342 72.817,-19.413C75.877,-17.069 77.407,-14.758 77.407,-12.479C77.407,-11.307 77.065,-10.33 76.381,-9.549C75.698,-8.768 74.802,-8.377 73.696,-8.377C72.394,-8.377 71.303,-9.175 70.424,-10.77C67.462,-15.913 62.823,-19.982 56.508,-22.977L57.631,-25.565ZM44.594,-6.571C51.365,-5.236 56.573,-3.136 60.219,-0.272C63.149,2.072 64.614,4.53 64.614,7.101C64.614,9.575 63.377,10.812 60.903,10.812C59.763,10.812 58.608,9.917 57.436,8.127C53.888,2.69 49.282,-1.346 43.617,-3.983L44.594,-6.571ZM51.137,33.322C53.806,36.252 55.841,37.716 57.241,37.716C58.933,37.716 61.961,36.642 66.323,34.494C70.294,32.508 74.656,29.953 79.409,26.828C93.015,17.811 105.711,5.311 117.494,-10.672L119.936,-8.768C112.644,3.504 104.229,13.921 94.692,22.482C86.716,29.611 77.065,36.284 65.737,42.502C63.328,43.836 61.489,44.748 60.219,45.236C59.34,45.561 58.608,45.724 58.022,45.724C56.59,45.724 54.978,44.601 53.188,42.355C51.593,40.369 50.209,37.895 49.037,34.933L51.137,33.322Z" style="fill-rule:nonzero;"/>
    </g>
</svg>
