<?xml version="1.0" encoding="UTF-8" standalone="no"?>
<!DOCTYPE svg PUBLIC "-//W3C//DTD SVG 1.1//EN" "http://www.w3.org/Graphics/SVG/1.1/DTD/svg11.dtd">
<svg width="100%" height="100%" viewBox="0 0 100 100" version="1.1" xmlns="http://www.w3.org/2000/svg" xmlns:xlink="http://www.w3.org/1999/xlink" xml:space="preserve" style="fill-rule:evenodd;clip-rule:evenodd;stroke-linejoin:round;stroke-miterlimit:1.41421;">
    <g transform="matrix(1,0,0,1,-28.8535,39.8509)">
        <path d="M45.131,-17.704C49.721,-14.709 53.351,-11.291 56.02,-7.45C58.233,-4.227 59.34,-1.314 59.34,1.291C59.34,4.904 57.973,6.711 55.239,6.711C53.416,6.711 52.114,4.741 51.332,0.802C50.258,-4.666 47.491,-10.168 43.032,-15.702L45.131,-17.704ZM67.739,-23.465C76.463,-16.564 80.825,-10.103 80.825,-4.08C80.825,-0.272 79.36,1.632 76.43,1.632C75.421,1.632 74.64,1.063 74.086,-0.077C73.631,-0.988 73.207,-2.518 72.817,-4.666C71.775,-10.786 69.317,-16.45 65.444,-21.659L67.739,-23.465ZM55.434,46.408C80.955,31.239 97.215,12.277 104.213,-10.477C105.092,-13.276 105.532,-15.213 105.532,-16.288C105.532,-17.98 103.969,-19.608 100.844,-21.17L102.114,-23.856C105.89,-23.205 109.015,-21.903 111.489,-19.95C113.442,-18.387 114.418,-16.922 114.418,-15.555C114.418,-14.709 114.093,-13.781 113.442,-12.772C112.921,-12.056 112.14,-10.396 111.098,-7.791C104.848,7.41 96.922,19.683 87.319,29.025C79.213,36.903 69.122,43.494 57.045,48.8L55.434,46.408Z" style="fill-rule:nonzero;"/>
    </g>
</svg>
