<?xml version="1.0" encoding="UTF-8" standalone="no"?>
<!DOCTYPE svg PUBLIC "-//W3C//DTD SVG 1.1//EN" "http://www.w3.org/Graphics/SVG/1.1/DTD/svg11.dtd">
<svg width="100%" height="100%" viewBox="0 0 100 100" version="1.1" xmlns="http://www.w3.org/2000/svg" xmlns:xlink="http://www.w3.org/1999/xlink" xml:space="preserve" style="fill-rule:evenodd;clip-rule:evenodd;stroke-linejoin:round;stroke-miterlimit:1.41421;">
    <g transform="matrix(1,0,0,1,-28.8535,39.8509)">
        <path d="M79.311,-2.225C79.441,-6.489 79.506,-11.746 79.506,-17.996C79.506,-21.154 79.067,-23.351 78.188,-24.588C77.439,-25.76 75.681,-26.704 72.914,-27.42L73.5,-30.106C77.667,-30.041 81.085,-29.357 83.754,-28.055C85.87,-26.981 86.928,-25.825 86.928,-24.588C86.928,-23.872 86.765,-23.075 86.44,-22.196C86.017,-21.024 85.805,-19.494 85.805,-17.606C85.707,-11.779 85.577,-6.847 85.414,-2.811C95.603,-3.527 101.332,-3.95 102.602,-4.08C104.653,-4.341 106.427,-4.78 107.924,-5.399C108.868,-5.789 109.828,-5.985 110.805,-5.985C112.595,-5.985 114.402,-5.431 116.225,-4.325C117.885,-3.283 118.715,-2.176 118.715,-1.004C118.715,0.656 117.446,1.486 114.907,1.486L105.092,0.998C101.902,0.998 95.31,1.128 85.317,1.388C85.024,10.242 83.526,17.908 80.825,24.386C75.779,36.431 66.843,45.366 54.018,51.193L52.504,48.703C64.451,41.476 72.328,32.069 76.137,20.48C77.96,14.816 78.953,8.615 79.116,1.877C69.741,2.658 61.847,3.504 55.434,4.416C53.546,4.643 52.211,5.018 51.43,5.539C50.714,5.929 49.884,6.125 48.94,6.125C47.41,6.125 45.701,5.197 43.813,3.341C42.12,1.681 40.59,-0.467 39.223,-3.104L41.42,-4.813C43.243,-3.088 44.806,-1.932 46.108,-1.346C47.28,-0.825 48.679,-0.565 50.307,-0.565C55.808,-0.565 65.476,-1.118 79.311,-2.225Z" style="fill-rule:nonzero;"/>
    </g>
</svg>
