<?xml version="1.0" encoding="UTF-8" standalone="no"?>
<!DOCTYPE svg PUBLIC "-//W3C//DTD SVG 1.1//EN" "http://www.w3.org/Graphics/SVG/1.1/DTD/svg11.dtd">
<svg width="100%" height="100%" viewBox="0 0 100 100" version="1.1" xmlns="http://www.w3.org/2000/svg" xmlns:xlink="http://www.w3.org/1999/xlink" xml:space="preserve" style="fill-rule:evenodd;clip-rule:evenodd;stroke-linejoin:round;stroke-miterlimit:1.41421;">
    <g transform="matrix(1,0,0,1,-28.8535,39.8509)">
        <path d="M83.901,4.855C83.77,5.474 83.543,7.069 83.217,9.64C80.32,30.115 70.945,44.113 55.092,51.632L53.53,49.24C67.364,40.19 75.095,26.551 76.723,8.322C76.983,5.587 76.625,3.618 75.649,2.414C74.867,1.405 73.289,0.444 70.912,-0.467L71.694,-3.25C74.493,-2.957 77.081,-2.306 79.457,-1.297C81.41,-0.451 82.794,0.428 83.608,1.339C90.02,-3.511 96.954,-9.907 104.409,-17.85C76.609,-14.855 60.838,-13.13 57.094,-12.674C56.117,-12.544 55.222,-12.3 54.409,-11.942C53.627,-11.616 52.797,-11.454 51.918,-11.454C50.226,-11.454 48.37,-12.495 46.352,-14.579C44.562,-16.401 43.113,-18.566 42.006,-21.073L44.399,-22.684C46.157,-20.763 47.882,-19.543 49.575,-19.022C50.974,-18.631 53.285,-18.436 56.508,-18.436C64.093,-18.436 79.132,-19.575 101.625,-21.854C103.351,-22.017 105.19,-22.619 107.143,-23.661C107.989,-24.181 108.591,-24.442 108.95,-24.442C110.284,-24.442 111.879,-23.351 113.735,-21.17C115.33,-19.38 116.127,-17.98 116.127,-16.971C116.127,-16.092 115.427,-15.49 114.028,-15.164C112.302,-14.871 110.463,-13.96 108.51,-12.43C101.088,-6.538 92.885,-0.776 83.901,4.855Z" style="fill-rule:nonzero;"/>
    </g>
</svg>
