<?xml version="1.0" encoding="UTF-8" standalone="no"?>
<!DOCTYPE svg PUBLIC "-//W3C//DTD SVG 1.1//EN" "http://www.w3.org/Graphics/SVG/1.1/DTD/svg11.dtd">
<svg width="100%" height="100%" viewBox="0 0 100 100" version="1.1" xmlns="http://www.w3.org/2000/svg" xmlns:xlink="http://www.w3.org/1999/xlink" xml:space="preserve" style="fill-rule:evenodd;clip-rule:evenodd;stroke-linejoin:round;stroke-miterlimit:1.41421;">
    <g transform="matrix(1,0,0,1,-28.8535,39.8509)">
        <path d="M90.932,27.609C92.039,17.16 93.129,5.067 94.203,-8.67C81.052,-7.498 72.524,-6.668 68.617,-6.18C65.525,-5.822 63.458,-5.513 62.416,-5.252C60.398,-4.797 59.161,-4.569 58.705,-4.569C55.743,-4.569 52.748,-7.303 49.721,-12.772L51.821,-14.579C53.644,-12.918 55.222,-11.844 56.557,-11.356C57.729,-10.965 59.373,-10.77 61.489,-10.77C63.312,-10.77 67.153,-10.9 73.012,-11.161C81.378,-11.746 86.619,-12.186 88.735,-12.479C91.111,-12.739 92.836,-13.276 93.91,-14.09C95.017,-14.871 95.815,-15.262 96.303,-15.262C97.573,-15.262 99.249,-14.22 101.332,-12.137C103.058,-10.412 103.92,-9.159 103.92,-8.377C103.92,-7.759 103.416,-7.059 102.407,-6.278C101.202,-5.301 100.502,-3.869 100.307,-1.981C99.591,3.553 98.289,13.319 96.401,27.316C100.014,27.186 102.52,27.121 103.92,27.121C105.548,27.121 107.387,26.649 109.438,25.705C110.61,25.119 111.635,24.826 112.514,24.826C113.946,24.826 115.606,25.33 117.494,26.339C119.578,27.414 120.619,28.651 120.619,30.05C120.619,31.841 119.545,32.736 117.397,32.736C114.89,32.736 112.335,32.638 109.731,32.443C106.313,32.215 102.683,32.101 98.842,32.101C86.993,32.101 72.377,33.24 54.994,35.519C52.813,35.845 51.381,36.154 50.698,36.447C49.786,36.837 48.923,37.033 48.11,37.033C46.612,37.033 44.773,36.04 42.592,34.054C40.639,32.264 38.979,30.115 37.612,27.609L39.711,25.802C41.99,27.495 43.862,28.634 45.326,29.22C46.791,29.774 48.419,30.05 50.209,30.05C51.869,30.05 57.843,29.709 68.129,29.025C70.961,28.83 74.949,28.586 80.092,28.293C85.17,27.967 88.784,27.739 90.932,27.609Z" style="fill-rule:nonzero;"/>
    </g>
</svg>
