<?xml version="1.0" encoding="UTF-8" standalone="no"?>
<!DOCTYPE svg PUBLIC "-//W3C//DTD SVG 1.1//EN" "http://www.w3.org/Graphics/SVG/1.1/DTD/svg11.dtd">
<svg width="100%" height="100%" viewBox="0 0 100 100" version="1.1" xmlns="http://www.w3.org/2000/svg" xmlns:xlink="http://www.w3.org/1999/xlink" xml:space="preserve" style="fill-rule:evenodd;clip-rule:evenodd;stroke-linejoin:round;stroke-miterlimit:1.41421;">
    <g transform="matrix(1,0,0,1,-28.8535,39.8509)">
        <path d="M36.44,43.332C44.968,36.951 51.072,29.562 54.75,21.164C57.94,13.872 59.535,5.327 59.535,-4.471C59.535,-7.238 59.031,-9.077 58.022,-9.989C56.622,-11.193 55.255,-12.023 53.92,-12.479L54.946,-15.067C58.494,-14.676 61.358,-13.879 63.539,-12.674C65.883,-11.405 67.055,-10.038 67.055,-8.573C67.055,-7.726 66.925,-6.831 66.664,-5.887C66.404,-4.748 66.062,-2.485 65.639,0.9C64.142,12.586 61.131,21.896 56.606,28.83C52.472,35.21 46.352,40.841 38.246,45.724L36.44,43.332ZM123.061,3.927C118.731,10.926 113.36,17.436 106.948,23.459C102.488,27.69 96.417,32.687 88.735,38.449C86.944,39.783 85.805,40.776 85.317,41.427C84.763,42.241 84.177,42.648 83.559,42.648C82.289,42.648 80.955,41.688 79.555,39.767C78.611,38.465 78.139,37.358 78.139,36.447C78.139,36.252 78.204,35.975 78.334,35.617C78.497,35.194 78.595,34.901 78.627,34.738C78.888,33.989 79.099,32.427 79.262,30.05C79.392,26.437 79.457,17.095 79.457,2.023C79.457,-9.273 79.197,-15.767 78.676,-17.459C78.025,-19.575 76.218,-21.105 73.256,-22.049L74.135,-24.881C79.278,-24.1 82.68,-23.172 84.34,-22.098C85.74,-21.219 86.44,-19.917 86.44,-18.192C86.44,-17.866 86.277,-16.792 85.951,-14.969C85.626,-13.211 85.414,-10.851 85.317,-7.889C84.926,12.13 84.731,25.737 84.731,32.931C91.925,28.927 98.549,24.272 104.604,18.966C109.747,14.409 115.167,8.761 120.864,2.023L123.061,3.927Z" style="fill-rule:nonzero;"/>
    </g>
</svg>
