<?xml version="1.0" encoding="UTF-8" standalone="no"?>
<!DOCTYPE svg PUBLIC "-//W3C//DTD SVG 1.1//EN" "http://www.w3.org/Graphics/SVG/1.1/DTD/svg11.dtd">
<svg width="100%" height="100%" viewBox="0 0 100 100" version="1.1" xmlns="http://www.w3.org/2000/svg" xmlns:xlink="http://www.w3.org/1999/xlink" xml:space="preserve" style="fill-rule:evenodd;clip-rule:evenodd;stroke-linejoin:round;stroke-miterlimit:1.41421;">
    <g transform="matrix(1,0,0,1,-28.8535,39.8509)">
        <path d="M96.742,32.638L98.061,9.64C89.011,10.324 78.432,11.512 66.323,13.205C65.802,13.27 64.907,13.546 63.637,14.035C62.986,14.295 62.514,14.425 62.221,14.425C59.682,14.425 56.427,11.886 52.455,6.808L54.555,4.611C56.671,6.076 58.315,7.004 59.487,7.394C60.626,7.752 62.205,7.931 64.223,7.931C65.492,7.931 68.731,7.703 73.94,7.248C79.246,6.792 87.351,6.043 98.256,5.002L99.233,-13.504C79.05,-11.746 66.99,-10.542 63.051,-9.891C62.075,-9.761 61.31,-9.582 60.756,-9.354C60.073,-9.093 59.47,-8.963 58.95,-8.963C56.769,-8.963 53.839,-11.698 50.16,-17.166L52.358,-19.071C54.539,-17.476 56.329,-16.467 57.729,-16.043C58.998,-15.653 60.838,-15.457 63.246,-15.457C64.841,-15.457 67.169,-15.555 70.229,-15.75C85.431,-16.857 93.227,-17.427 93.617,-17.459C96.189,-17.655 98.028,-18.192 99.135,-19.071C99.786,-19.754 100.519,-20.096 101.332,-20.096C102.179,-20.096 103.709,-19.022 105.922,-16.873C107.452,-15.343 108.217,-14.123 108.217,-13.211C108.217,-12.593 107.745,-11.828 106.801,-10.916C105.727,-9.972 105.108,-8.573 104.946,-6.717C104.392,-1.672 103.383,10.812 101.918,30.734C105.011,32.069 106.557,33.631 106.557,35.421C106.557,36.365 106.085,36.968 105.141,37.228C104.295,37.456 102.374,37.619 99.379,37.716C86.098,38.107 74.021,39.002 63.149,40.402C62.726,40.467 61.993,40.679 60.951,41.037C60.17,41.362 59.096,41.525 57.729,41.525C56.687,41.525 55.353,40.727 53.725,39.132C52.162,37.602 50.6,35.568 49.037,33.029L51.137,31.125C53.383,32.948 55.027,34.071 56.069,34.494C57.045,34.917 58.331,35.129 59.926,35.129C62.628,35.129 66.095,34.966 70.326,34.64C82.696,33.664 91.502,32.996 96.742,32.638Z" style="fill-rule:nonzero;"/>
    </g>
</svg>
