<?xml version="1.0" encoding="UTF-8" standalone="no"?>
<!DOCTYPE svg PUBLIC "-//W3C//DTD SVG 1.1//EN" "http://www.w3.org/Graphics/SVG/1.1/DTD/svg11.dtd">
<svg width="100%" height="100%" viewBox="0 0 100 100" version="1.1" xmlns="http://www.w3.org/2000/svg" xmlns:xlink="http://www.w3.org/1999/xlink" xml:space="preserve" style="fill-rule:evenodd;clip-rule:evenodd;stroke-linejoin:round;stroke-miterlimit:1.41421;">
    <g transform="matrix(1,0,0,1,-28.8535,39.8509)">
        <path d="M117.397,-2.664C109.617,7.752 102.179,16.004 95.082,22.091C87.758,28.407 78.334,34.787 66.811,41.232C65.313,42.078 64.174,43.006 63.393,44.015C62.742,44.959 62.075,45.431 61.391,45.431C60.187,45.431 58.689,44.227 56.899,41.818C55.499,39.995 54.799,38.498 54.799,37.326C54.799,36.837 54.962,36.203 55.287,35.421C55.971,33.761 56.313,25.623 56.313,11.007C56.313,-6.864 56.117,-16.564 55.727,-18.094C55.466,-19.299 54.848,-20.291 53.871,-21.073C53.155,-21.659 51.967,-22.358 50.307,-23.172L51.186,-25.76C55.157,-25.207 58.331,-24.23 60.707,-22.83C62.758,-21.659 63.784,-20.438 63.784,-19.168C63.784,-18.355 63.588,-17.362 63.198,-16.19C62.774,-14.888 62.514,-12.446 62.416,-8.866C62.286,-2.974 62.14,4.709 61.977,14.181C61.814,24.63 61.684,31.743 61.586,35.519C80.825,27.381 98.696,13.953 115.2,-4.764L117.397,-2.664Z" style="fill-rule:nonzero;"/>
    </g>
</svg>
