<?xml version="1.0" encoding="UTF-8" standalone="no"?>
<!DOCTYPE svg PUBLIC "-//W3C//DTD SVG 1.1//EN" "http://www.w3.org/Graphics/SVG/1.1/DTD/svg11.dtd">
<svg width="100%" height="100%" viewBox="0 0 100 100" version="1.1" xmlns="http://www.w3.org/2000/svg" xmlns:xlink="http://www.w3.org/1999/xlink" xml:space="preserve" style="fill-rule:evenodd;clip-rule:evenodd;stroke-linejoin:round;stroke-miterlimit:1.41421;">
    <g transform="matrix(1,0,0,1,-28.8535,39.8509)">
        <path d="M68.129,-3.397L66.909,-9.012C65.313,-16.434 63.979,-21.056 62.905,-22.879C61.895,-24.702 59.568,-25.744 55.922,-26.004L55.825,-28.885C58.006,-29.308 60.073,-29.52 62.026,-29.52C64.76,-29.52 66.648,-29.292 67.69,-28.836C68.862,-28.283 69.529,-27.306 69.692,-25.907C70.245,-19.787 71.352,-12.625 73.012,-4.422C85.642,-7.059 95.278,-9.175 101.918,-10.77C104.555,-11.388 106.28,-12.267 107.094,-13.407C107.68,-14.058 108.315,-14.383 108.998,-14.383C109.747,-14.383 111.244,-13.618 113.491,-12.088C115.704,-10.591 116.811,-9.256 116.811,-8.084C116.811,-7.108 116.078,-6.343 114.614,-5.789C113.246,-5.269 111.651,-3.934 109.828,-1.786C103.513,5.604 97.377,11.593 91.42,16.183L89.321,14.084C97.166,5.946 102.862,-1.379 106.41,-7.889C92.869,-4.797 81.996,-2.274 73.793,-0.321C76.235,11.724 79.099,24.191 82.387,37.082C83.591,42.03 84.194,45.268 84.194,46.798C84.194,49.858 83.054,51.388 80.776,51.388C78.888,51.388 77.7,49.826 77.211,46.701C74.607,29.448 71.905,14.214 69.106,0.998C62.009,2.755 57.045,4.09 54.213,5.002C52.944,5.49 52.146,5.832 51.821,6.027C51.104,6.418 50.405,6.613 49.721,6.613C47.312,6.613 43.976,4.041 39.711,-1.102L41.811,-3.202C44.317,-1.183 46.856,-0.174 49.428,-0.174C51.446,-0.174 57.68,-1.248 68.129,-3.397Z" style="fill-rule:nonzero;"/>
    </g>
</svg>
